<?xml version="1.0" encoding="UTF-8" standalone="no"?>
<!-- Created with Inkscape (http://www.inkscape.org/) -->

<svg
   xmlns:dc="http://purl.org/dc/elements/1.1/"
   xmlns:cc="http://creativecommons.org/ns#"
   xmlns:rdf="http://www.w3.org/1999/02/22-rdf-syntax-ns#"
   xmlns:svg="http://www.w3.org/2000/svg"
   xmlns="http://www.w3.org/2000/svg"
   xmlns:sodipodi="http://sodipodi.sourceforge.net/DTD/sodipodi-0.dtd"
   xmlns:inkscape="http://www.inkscape.org/namespaces/inkscape"
   id="svg32441"
   version="1.1"
   inkscape:version="0.48.3.1 r9886"
   width="139.97267"
   height="138.45983"
   xml:space="preserve"
   sodipodi:docname="dominio.pdf"><metadata
     id="metadata32447"><rdf:RDF><cc:Work
         rdf:about=""><dc:format>image/svg+xml</dc:format><dc:type
           rdf:resource="http://purl.org/dc/dcmitype/StillImage" /><dc:title></dc:title></cc:Work></rdf:RDF></metadata><defs
     id="defs32445"><clipPath
       clipPathUnits="userSpaceOnUse"
       id="clipPath32459"><path
         d="M 0,0 112,0 112,111 0,111 0,0 z"
         id="path32461" /></clipPath></defs><sodipodi:namedview
     pagecolor="#ffffff"
     bordercolor="#666666"
     borderopacity="1"
     objecttolerance="10"
     gridtolerance="10"
     guidetolerance="10"
     inkscape:pageopacity="0"
     inkscape:pageshadow="2"
     inkscape:window-width="1375"
     inkscape:window-height="876"
     id="namedview32443"
     showgrid="false"
     inkscape:zoom="1.7044656"
     inkscape:cx="69.986336"
     inkscape:cy="69.229912"
     inkscape:window-x="1345"
     inkscape:window-y="24"
     inkscape:window-maximized="1"
     inkscape:current-layer="g32501" /><g
     id="g32449"
     inkscape:groupmode="layer"
     inkscape:label="dominio"
     transform="matrix(1.25,0,0,-1.25,0,138.45983)"><g
       id="g32451" /><g
       id="g32453"><g
         id="g32455"
         transform="translate(0,-0.23214)"><g
           id="g32457" /><g
           id="g32463"><g
             clip-path="url(#clipPath32459)"
             id="g32465"><g
               id="g32467"><g
                 transform="translate(0,111)"
                 id="g32469"><path
                   d="m 20.406,-19.387 0.379,1.199 0.379,1.133 0.441,1.133 0.504,1.137 0.504,1.195 0.567,1.195 0.566,1.137 1.133,2.266 0.629,1.008 0.566,1.007 0.571,0.883 0.566,0.754 0.504,0.758 0.504,0.629 0.504,0.566 0.629,0.696 0.628,0.566 0.629,0.504 0.696,0.375 0.629,0.316 0.757,0.254 0.692,0.188 0.691,0.125 0.758,0.062 0.754,0.067 4.664,0 0.945,-0.067 0.942,0 1.074,-0.062 1.008,0 1.07,-0.063 1.008,-0.062 1.07,-0.125 1.008,-0.063 0.945,-0.129 0.946,-0.125 0.945,-0.187 1.008,-0.129 1.008,-0.188 1.007,-0.25 1.071,-0.254 1.07,-0.316 1.07,-0.312 1.133,-0.317 1.008,-0.312 1.008,-0.379 1.89,-0.758 0.883,-0.375 0.817,-0.441 0.695,-0.317 0.754,-0.441 0.695,-0.379 0.754,-0.504 0.82,-0.504 0.817,-0.504 0.883,-0.566 0.882,-0.629 0.946,-0.692 0.945,-0.695 1.008,-0.754 1.008,-0.758 1.07,-0.754 1.07,-0.82 1.133,-0.816 1.133,-0.883 1.008,-0.695 1.007,-0.817 1.075,-0.82 1.133,-0.816 1.257,-0.946 1.2,-0.945 1.32,-0.945 1.324,-1.071 1.387,-1.008 1.32,-1.07 1.387,-1.074 1.324,-1.133 1.32,-1.008 1.262,-1.07 1.195,-1.008 1.137,-1.008 1.133,-0.945 1.008,-0.945 0.945,-0.879 0.883,-0.883 2.016,-2.141 0.878,-1.074 0.821,-1.07 0.816,-1.07 0.695,-1.071 0.629,-1.133 0.567,-1.136 0.504,-1.071 0.441,-1.132 0.316,-1.071 0.25,-1.07 0.192,-1.008 0.125,-1.008 0.125,-2.015 -0.125,-2.141 -0.063,-1.074 -0.125,-1.195 -0.191,-1.196 -0.188,-1.199 -0.191,-1.258 -0.187,-1.262 -0.188,-1.257 -0.191,-1.2 -0.188,-1.195 -0.187,-1.133 -0.129,-1.07 -0.125,-2.016 -0.063,-0.882 0.125,-2.016 0.125,-0.945 0.192,-1.008 0.187,-0.945 0.254,-1.008 0.313,-0.946 0.253,-0.945 0.25,-0.945 0.317,-0.946 0.254,-0.878 0.375,-1.766 0.191,-0.883 0.125,-0.879 0.063,-0.945 0.062,-1.008 0,-1.07 -0.062,-1.071 -0.063,-1.136 -0.125,-1.133 -0.129,-1.133 -0.125,-1.133 -0.25,-1.074 -0.191,-1.008 -0.25,-0.945 -0.254,-0.879 -0.25,-0.883 -0.254,-0.758 -0.312,-0.816 -0.379,-0.758 -0.379,-0.754 -0.504,-0.695 -0.504,-0.754 -0.566,-0.691 -0.629,-0.633 -0.696,-0.629 -0.754,-0.566 -0.757,-0.567 -0.817,-0.504 -0.82,-0.441 -0.945,-0.379 -0.883,-0.379 -0.946,-0.312 -1.003,-0.379 -1.075,-0.317 -1.132,-0.312 -1.258,-0.317 -1.325,-0.312 -1.324,-0.254 -1.383,-0.317 -1.386,-0.25 -1.324,-0.253 -1.387,-0.188 -1.321,-0.187 -1.261,-0.129 -1.196,-0.188 -1.199,-0.125 -1.195,-0.125 -1.195,-0.066 -1.262,-0.125 -1.195,-0.063 -1.262,-0.062 -5.102,0 -1.195,0.062 -1.199,0.063 -1.133,0.125 -1.133,0.066 -1.008,0.125 -1.007,0.188 -0.946,0.125 -1.008,0.254 -0.945,0.187 -0.945,0.254 -1.008,0.25 -1.008,0.316 -1.07,0.379 -1.008,0.375 -2.141,0.883 -2.14,1.008 -1.008,0.504 -1.074,0.504 -2.016,1.133 -1.008,0.57 -0.879,0.566 -0.945,0.567 -2.016,1.257 -1.07,0.696 -1.074,0.754 -1.133,0.758 -1.133,0.816 -1.195,0.82 -1.199,0.883 -1.196,0.879 -1.132,0.883 -1.137,0.945 -1.133,0.883 -1.07,0.883 -1.071,0.879 -1.007,0.882 -1.008,0.946 -1.07,0.883 -1.008,0.945 -2.016,2.015 -1.074,1.008 -1.008,1.071 -1.07,1.132 -1.008,1.133 -1.008,1.071 -1.008,1.136 -0.945,1.133 -0.879,1.07 -0.82,1.008 -0.754,1.008 -0.633,0.945 -0.629,0.883 -0.566,0.817 -0.504,0.82 -0.695,1.195 -0.567,1.137 -0.441,1.133 -0.438,1.07 -0.316,1.07 -0.188,1.071 -0.191,1.007 -0.063,0.946 -0.062,0.883 0.062,0.82 0,0.754 0.125,0.695 0.063,0.754 0.129,0.691 0.125,0.758 0.125,0.754 0.191,0.758 0.188,0.82 0.187,0.817 0.254,0.757 0.25,0.754 0.317,0.758 0.25,0.692 0.316,0.757 0.316,0.692 0.375,0.754 0.442,0.82 0.379,0.758 0.441,0.816 0.441,0.821 0.442,0.753 0.441,0.758 0.375,0.629 0.317,0.567 0.316,0.504 0.25,0.441 0.317,0.566 0.312,0.442 0.191,0.504 0.125,0.504 0.188,0.566 0.066,0.695 0.125,0.879 0.125,1.074 0.063,0.629 0.062,0.754 0.063,0.758 0.129,0.883 0.125,1.008 0.125,1.07 0.125,1.133 0.191,1.133 0.25,1.261 0.192,1.196 0.25,1.261 0.253,1.258 0.313,1.195 0.254,1.2 0.379,1.132 0.312,1.133 z"
                   style="fill:none;stroke:#000000;stroke-opacity:1;stroke-width:0.472425;stroke-linecap:butt;stroke-linejoin:bevel;stroke-miterlimit:10;stroke-dasharray:none"
                   id="path32471" /></g><g
                 transform="translate(0,111)"
                 id="g32473"><path
                   d="m 29.602,-29.906 0,-0.063 -0.063,-0.312 -0.125,-0.696 -0.187,-0.945 -0.192,-1.07 -0.187,-1.008 -0.125,-0.879 -0.129,-0.758 -0.125,-0.691 -0.063,-0.633 -0.125,-0.629 -0.062,-0.629 -0.063,-0.691 -0.066,-0.633 -0.063,-0.691 0,-0.692 -0.062,-0.695 -0.063,-0.629 0,-1.133 -0.062,-0.695 -0.063,-0.692 0,-0.757 -0.125,-0.817 -0.066,-0.758 -0.125,-0.691 -0.125,-0.695 -0.188,-0.629 -0.191,-0.567 -0.312,-0.691 -0.379,-0.758 -0.504,-0.883 -0.567,-1.007 -0.441,-0.754 -0.254,-0.442 -0.062,-0.062"
                   style="fill:none;stroke:#000000;stroke-opacity:1;stroke-width:0.472425;stroke-linecap:butt;stroke-linejoin:bevel;stroke-miterlimit:10;stroke-dasharray:none"
                   id="path32475" /></g><g
                 transform="translate(0,111)"
                 id="g32477"><path
                   d="m 32.941,-30.344 0,-0.066 -0.062,-0.375 -0.125,-0.82 -0.192,-1.196 -0.25,-1.261 -0.191,-1.196 -0.125,-1.07 -0.125,-0.883 -0.125,-0.758 -0.062,-0.754 -0.067,-0.757 -0.062,-0.692 -0.063,-0.754 0,-0.758 -0.062,-0.754 0,-2.835 -0.063,-0.629 0,-0.571 -0.062,-0.566 0,-0.441 -0.063,-0.438 -0.062,-0.379 -0.067,-0.441 -0.125,-0.504 -0.125,-0.567 -0.187,-0.629 -0.192,-0.632 -0.312,-0.629 -0.254,-0.442 -0.316,-0.566 -0.438,-0.629 -0.57,-0.82 -0.629,-0.883 -0.504,-0.691 -0.25,-0.379 -0.063,-0.063"
                   style="fill:none;stroke:#000000;stroke-opacity:1;stroke-width:0.472425;stroke-linecap:butt;stroke-linejoin:bevel;stroke-miterlimit:10;stroke-dasharray:none"
                   id="path32479" /></g><g
                 transform="translate(0,111)"
                 id="g32481"><path
                   d="m 35.777,-37.465 0,-0.062 -0.062,-0.375 -0.129,-0.821 -0.125,-1.132 -0.188,-1.262 -0.125,-1.133 -0.128,-1.008 -0.125,-0.883 -0.063,-0.82 -0.125,-0.691 -0.062,-0.754 -0.067,-0.696 -0.125,-0.816 -0.125,-0.758 -0.062,-0.754 -0.125,-0.758 -0.129,-0.691 -0.188,-0.695 -0.125,-0.629 -0.191,-0.567 -0.25,-0.628 -0.317,-0.696 -0.379,-0.754 -0.566,-0.82 -0.566,-0.883 -0.442,-0.754 -0.25,-0.379 -0.062,-0.062"
                   style="fill:none;stroke:#000000;stroke-opacity:1;stroke-width:0.472425;stroke-linecap:butt;stroke-linejoin:bevel;stroke-miterlimit:10;stroke-dasharray:none"
                   id="path32483" /></g><g
                 transform="translate(0,111)"
                 id="g32485"><path
                   d="m 26.328,-43.008 0.063,-0.062 0.316,-0.379 0.566,-0.754 0.692,-0.883 0.695,-0.754 0.567,-0.695 1.824,-1.824 0.566,-0.379 0.504,-0.442 0.57,-0.379 0.504,-0.375 0.442,-0.378 0.504,-0.317 0.437,-0.312 1.512,-1.137 0.504,-0.375 0.504,-0.379 0.441,-0.316 0.441,-0.313 0.442,-0.316 0.441,-0.254 0.504,-0.375 0.629,-0.379 0.629,-0.442 0.57,-0.378 0.25,-0.125 0.063,-0.063"
                   style="fill:none;stroke:#000000;stroke-opacity:1;stroke-width:0.472425;stroke-linecap:butt;stroke-linejoin:bevel;stroke-miterlimit:10;stroke-dasharray:none"
                   id="path32487" /></g><g
                 transform="translate(0,111)"
                 id="g32489"><path
                   d="m 26.012,-48.801 0.062,-0.062 0.317,-0.379 0.629,-0.758 0.82,-0.879 0.691,-0.82 0.633,-0.692 1.574,-1.574 1.133,-1.008 1.258,-1.007 0.57,-0.442 0.567,-0.379 0.566,-0.316 0.504,-0.313 0.566,-0.316 0.629,-0.316 0.758,-0.313 0.816,-0.379 0.696,-0.25 0.312,-0.191 0.067,0"
                   style="fill:none;stroke:#000000;stroke-opacity:1;stroke-width:0.472425;stroke-linecap:butt;stroke-linejoin:bevel;stroke-miterlimit:10;stroke-dasharray:none"
                   id="path32491" /></g><g
                 transform="translate(0,111)"
                 id="g32493"><path
                   d="m 27.148,-38.094 0.25,-0.25 0.442,-0.566 0.691,-0.695 0.696,-0.817 0.691,-0.758 1.699,-1.699 0.504,-0.441 0.57,-0.442 0.504,-0.441 0.629,-0.504 0.567,-0.441 0.629,-0.442 0.632,-0.504 0.567,-0.379 0.566,-0.375 0.567,-0.379 0.441,-0.316 0.566,-0.375 0.567,-0.379 0.629,-0.441 0.757,-0.504 0.692,-0.504 0.629,-0.379 0.316,-0.187 0.063,-0.063"
                   style="fill:none;stroke:#000000;stroke-opacity:1;stroke-width:0.472425;stroke-linecap:butt;stroke-linejoin:bevel;stroke-miterlimit:10;stroke-dasharray:none"
                   id="path32495" /></g><g
                 transform="translate(0,111)"
                 id="g32497"><path
                   d="m 39.18,-44.078 0,-0.063 -0.067,-0.379 -0.125,-0.816 -0.125,-1.137 -0.187,-1.195 -0.129,-1.133 -0.188,-0.945 -0.125,-0.82 -0.062,-0.629 -0.129,-0.567 -0.125,-0.691 -0.125,-0.57 -0.191,-0.629 -0.375,-1.133 -0.192,-0.567 -0.187,-0.503 -0.254,-0.504 -0.25,-0.504 -0.317,-0.567 -0.375,-0.758 -0.441,-0.882 -0.566,-1.008 -0.442,-0.817 -0.191,-0.441 -0.063,-0.062"
                   style="fill:none;stroke:#000000;stroke-opacity:1;stroke-width:0.472425;stroke-linecap:butt;stroke-linejoin:bevel;stroke-miterlimit:10;stroke-dasharray:none"
                   id="path32499" /></g></g></g></g></g></g><g
       id="g32501"><path
         d="m 0.105,76.748 6.344,0 0,-2.406 -0.515,0 c 0,1.383 -0.559,2.078 -1.672,2.078 l -2.578,0 0,-8.922 0.89,0 0,-0.328 -2.578,0 0,0.328 0.891,0 0,8.922 -0.782,0 0,0.328 z"
         style="fill:#000000;fill-opacity:1;fill-rule:nonzero;stroke:none"
         id="path32503" /><path
         d="m 67.809,52.916 c -0.45,0 -0.836,-0.07 -1.157,-0.203 -0.312,-0.125 -0.574,-0.312 -0.781,-0.562 -0.211,-0.25 -0.367,-0.559 -0.469,-0.922 -0.093,-0.367 -0.14,-0.778 -0.14,-1.235 0,-0.398 0.031,-0.777 0.093,-1.14 0.071,-0.367 0.188,-0.715 0.344,-1.047 0.164,-0.336 0.375,-0.649 0.625,-0.938 0.258,-0.293 0.571,-0.57 0.938,-0.828 l 0,-0.859 -3.469,0 0,0.969 2.078,0 c -0.25,0.187 -0.484,0.41 -0.703,0.672 -0.219,0.257 -0.406,0.55 -0.563,0.875 -0.156,0.332 -0.281,0.691 -0.375,1.078 -0.085,0.394 -0.125,0.804 -0.125,1.234 0,0.594 0.079,1.125 0.235,1.594 0.164,0.476 0.406,0.883 0.719,1.219 0.312,0.343 0.695,0.601 1.156,0.781 0.457,0.187 0.988,0.281 1.594,0.281 0.601,0 1.132,-0.094 1.593,-0.281 0.457,-0.18 0.844,-0.438 1.157,-0.781 0.312,-0.336 0.546,-0.743 0.703,-1.219 0.156,-0.469 0.234,-1 0.234,-1.594 0,-0.43 -0.047,-0.84 -0.141,-1.234 C 71.27,48.389 71.152,48.03 70.996,47.698 70.84,47.373 70.652,47.08 70.434,46.823 70.223,46.561 69.996,46.338 69.746,46.151 l 2.063,0 0,-0.969 -3.469,0 0,0.859 c 0.375,0.258 0.687,0.535 0.937,0.828 0.258,0.289 0.469,0.602 0.625,0.938 0.157,0.332 0.27,0.68 0.344,1.047 0.07,0.363 0.109,0.742 0.109,1.14 0,0.457 -0.054,0.868 -0.156,1.235 -0.094,0.363 -0.246,0.672 -0.453,0.922 -0.211,0.25 -0.476,0.437 -0.797,0.562 -0.312,0.133 -0.695,0.203 -1.14,0.203 z"
         style="fill:#000000;fill-opacity:1;fill-rule:nonzero;stroke:none"
         id="path32507" /></g></g></svg>