<?xml version="1.0" encoding="UTF-8" standalone="no"?>
<!-- Created with Inkscape (http://www.inkscape.org/) -->

<svg
   xmlns:dc="http://purl.org/dc/elements/1.1/"
   xmlns:cc="http://creativecommons.org/ns#"
   xmlns:rdf="http://www.w3.org/1999/02/22-rdf-syntax-ns#"
   xmlns:svg="http://www.w3.org/2000/svg"
   xmlns="http://www.w3.org/2000/svg"
   xmlns:sodipodi="http://sodipodi.sourceforge.net/DTD/sodipodi-0.dtd"
   xmlns:inkscape="http://www.inkscape.org/namespaces/inkscape"
   id="svg2"
   version="1.1"
   inkscape:version="0.48.1 "
   width="479.35098"
   height="188.48192"
   sodipodi:docname="interdisciplinary.svg">
  <metadata
     id="metadata8">
    <rdf:RDF>
      <cc:Work
         rdf:about="">
        <dc:format>image/svg+xml</dc:format>
        <dc:type
           rdf:resource="http://purl.org/dc/dcmitype/StillImage" />
        <dc:title></dc:title>
      </cc:Work>
    </rdf:RDF>
  </metadata>
  <defs
     id="defs6" />
  <sodipodi:namedview
     pagecolor="#ffffff"
     bordercolor="#666666"
     borderopacity="1"
     objecttolerance="10"
     gridtolerance="10"
     guidetolerance="10"
     inkscape:pageopacity="0"
     inkscape:pageshadow="2"
     inkscape:window-width="1280"
     inkscape:window-height="737"
     id="namedview4"
     showgrid="false"
     inkscape:zoom="1.8847737"
     inkscape:cx="235.09484"
     inkscape:cy="92.59375"
     inkscape:window-x="-4"
     inkscape:window-y="-4"
     inkscape:window-maximized="1"
     inkscape:current-layer="svg2"
     fit-margin-top="0"
     fit-margin-left="0"
     fit-margin-right="0"
     fit-margin-bottom="0" />
  <g
     id="g3280"
     transform="matrix(0.94370413,0,0,0.94370413,6.0321443,1.8964585)">
    <text
       sodipodi:linespacing="125%"
       id="text2987"
       y="60.466755"
       x="82.49929"
       style="font-size:16px;font-style:normal;font-weight:normal;text-align:center;line-height:125%;letter-spacing:0px;word-spacing:0px;text-anchor:middle;fill:#000000;fill-opacity:1;stroke:none;font-family:Times New Roman;-inkscape-font-specification:Times New Roman"
       xml:space="preserve"><tspan
         y="60.466755"
         x="82.49929"
         id="tspan2989"
         sodipodi:role="line">Mathematics/</tspan><tspan
         id="tspan2991"
         y="80.466751"
         x="82.49929"
         sodipodi:role="line">linear algebra</tspan></text>
    <path
       transform="matrix(0.89381307,0,0,0.89381307,21.144767,10.607684)"
       d="m 152.1168,62.687546 c 0,16.093167 -37.25875,29.139257 -83.219743,29.139257 -45.960995,0 -83.219742,-13.04609 -83.219742,-29.139257 0,-16.093168 37.258747,-29.139258 83.219742,-29.139258 45.960993,0 83.219743,13.04609 83.219743,29.139258 z"
       sodipodi:ry="29.139257"
       sodipodi:rx="83.219742"
       sodipodi:cy="62.687546"
       sodipodi:cx="68.897057"
       id="path2993"
       style="fill:none;stroke:#000000;stroke-width:1;stroke-linecap:butt;stroke-linejoin:miter;stroke-miterlimit:4;stroke-opacity:1;stroke-dasharray:none;stroke-dashoffset:0"
       sodipodi:type="arc" />
  </g>
  <g
     id="g3268"
     transform="matrix(0.94370413,0,0,0.94370413,7.8964683,1.8964585)">
    <path
       transform="matrix(0.89381307,0,0,0.89381307,184.37399,-25.93986)"
       d="m 152.1168,62.687546 c 0,16.093167 -37.25875,29.139257 -83.219743,29.139257 -45.960995,0 -83.219742,-13.04609 -83.219742,-29.139257 0,-16.093168 37.258747,-29.139258 83.219742,-29.139258 45.960993,0 83.219743,13.04609 83.219743,29.139258 z"
       sodipodi:ry="29.139257"
       sodipodi:rx="83.219742"
       sodipodi:cy="62.687546"
       sodipodi:cx="68.897057"
       id="path2993-1"
       style="fill:none;stroke:#000000;stroke-width:1;stroke-linecap:butt;stroke-linejoin:miter;stroke-miterlimit:4;stroke-opacity:1;stroke-dasharray:none;stroke-dashoffset:0"
       sodipodi:type="arc" />
    <text
       sodipodi:linespacing="125%"
       id="text2987-2"
       y="23.919212"
       x="246.04883"
       style="font-size:16px;font-style:normal;font-weight:normal;text-align:center;line-height:125%;letter-spacing:0px;word-spacing:0px;text-anchor:middle;fill:#000000;fill-opacity:1;stroke:none;font-family:Times New Roman;-inkscape-font-specification:Times New Roman"
       xml:space="preserve"><tspan
         id="tspan2991-0"
         y="23.919212"
         x="246.04883"
         sodipodi:role="line">Electromagnetic</tspan><tspan
         id="tspan3053"
         y="43.919212"
         x="246.04883"
         sodipodi:role="line">physics</tspan></text>
  </g>
  <g
     id="g3274"
     transform="matrix(0.94370413,0,0,0.94370413,11.648209,2.3625417)">
    <path
       transform="matrix(0.89381307,0,0,0.89381307,344.88685,10.113797)"
       d="m 152.1168,62.687546 c 0,16.093167 -37.25875,29.139257 -83.219743,29.139257 -45.960995,0 -83.219742,-13.04609 -83.219742,-29.139257 0,-16.093168 37.258747,-29.139258 83.219742,-29.139258 45.960993,0 83.219743,13.04609 83.219743,29.139258 z"
       sodipodi:ry="29.139257"
       sodipodi:rx="83.219742"
       sodipodi:cy="62.687546"
       sodipodi:cx="68.897057"
       id="path2993-4"
       style="fill:none;stroke:#000000;stroke-width:1;stroke-linecap:butt;stroke-linejoin:miter;stroke-miterlimit:4;stroke-opacity:1;stroke-dasharray:none;stroke-dashoffset:0"
       sodipodi:type="arc" />
    <text
       sodipodi:linespacing="125%"
       id="text2987-2-2"
       y="61.590057"
       x="406.33902"
       style="font-size:16px;font-style:normal;font-weight:normal;text-align:center;line-height:125%;letter-spacing:0px;word-spacing:0px;text-anchor:middle;fill:#000000;fill-opacity:1;stroke:none;font-family:Times New Roman;-inkscape-font-specification:Times New Roman"
       xml:space="preserve"><tspan
         id="tspan3053-5"
         y="61.590057"
         x="406.33902"
         sodipodi:role="line">Computational</tspan><tspan
         id="tspan3081"
         y="81.590057"
         x="406.33902"
         sodipodi:role="line">science</tspan></text>
  </g>
  <g
     id="g3262"
     transform="matrix(0.94370413,0,0,0.94370413,7.4303822,1.8964585)">
    <path
       transform="matrix(0.89381307,0,0,0.89381307,184.86788,49.130768)"
       d="m 152.1168,62.687546 c 0,16.093167 -37.25875,29.139257 -83.219743,29.139257 -45.960995,0 -83.219742,-13.04609 -83.219742,-29.139257 0,-16.093168 37.258747,-29.139258 83.219742,-29.139258 45.960993,0 83.219743,13.04609 83.219743,29.139258 z"
       sodipodi:ry="29.139257"
       sodipodi:rx="83.219742"
       sodipodi:cy="62.687546"
       sodipodi:cx="68.897057"
       id="path2993-7"
       style="fill:none;stroke:#000000;stroke-width:1;stroke-linecap:butt;stroke-linejoin:miter;stroke-miterlimit:4;stroke-opacity:1;stroke-dasharray:none;stroke-dashoffset:0"
       sodipodi:type="arc" />
    <text
       sodipodi:linespacing="125%"
       id="text2987-2-2-5"
       y="98.989838"
       x="246.42944"
       style="font-size:16px;font-style:normal;font-weight:normal;text-align:center;line-height:125%;letter-spacing:0px;word-spacing:0px;text-anchor:middle;fill:#000000;fill-opacity:1;stroke:none;font-family:Times New Roman;-inkscape-font-specification:Times New Roman"
       xml:space="preserve"><tspan
         id="tspan3053-5-6"
         y="98.989838"
         x="246.42944"
         sodipodi:role="line">Computational</tspan><tspan
         id="tspan3081-6"
         y="118.98984"
         x="246.42944"
         sodipodi:role="line">electromagnetics</tspan></text>
  </g>
  <g
     id="g3257"
     transform="matrix(0.94370413,0,0,0.94370413,6.0321443,1.8964585)">
    <text
       sodipodi:linespacing="125%"
       id="text2987-2-2-5-0"
       y="176.89914"
       x="248.0439"
       style="font-size:16px;font-style:normal;font-weight:normal;text-align:center;line-height:125%;letter-spacing:0px;word-spacing:0px;text-anchor:middle;fill:#000000;fill-opacity:1;stroke:none;font-family:Times New Roman;-inkscape-font-specification:Times New Roman"
       xml:space="preserve"><tspan
         id="tspan3081-6-8"
         y="176.89914"
         x="248.0439"
         sodipodi:role="line">Engineering applications</tspan></text>
    <rect
       y="154.55029"
       x="152.11679"
       height="37.041428"
       width="191.62766"
       id="rect3133"
       style="fill:none;stroke:#000000;stroke-width:1;stroke-linecap:butt;stroke-linejoin:miter;stroke-miterlimit:4;stroke-opacity:1;stroke-dasharray:none;stroke-dashoffset:0" />
  </g>
  <path
     style="fill:#e6e6e6;fill-opacity:1;stroke:#000000;stroke-width:0.74605042px;stroke-linecap:butt;stroke-linejoin:miter;stroke-opacity:1"
     d="m 156.24981,71.366343 -4.28908,4.289076 13.80769,13.807692 -2.25729,2.257527 8.99202,1e-6 0.0376,-9.029754 -2.59602,2.59602 c -0.4645,-0.804361 -13.69492,-13.920562 -13.69492,-13.920562 z"
     id="path3958"
     inkscape:connector-curvature="0"
     sodipodi:nodetypes="cccccccc" />
  <path
     style="fill:#e6e6e6;fill-opacity:1;stroke:#000000;stroke-width:0.74605042px;stroke-linecap:butt;stroke-linejoin:miter;stroke-opacity:1"
     d="m 242.87849,55.812961 -6.06567,-2e-6 0,14.167084 -3.19247,1.66e-4 6.35832,6.358318 6.41157,-6.358442 -3.67133,2e-6 z"
     id="path3958-3"
     inkscape:connector-curvature="0"
     sodipodi:nodetypes="cccccccc" />
  <path
     style="fill:#e6e6e6;fill-opacity:1;stroke:#000000;stroke-width:0.74605042px;stroke-linecap:butt;stroke-linejoin:miter;stroke-opacity:1"
     d="m 323.60886,71.366343 4.28908,4.289076 -13.8077,13.807693 2.25729,2.257527 -8.99201,10e-7 -0.0376,-9.029754 2.59601,2.59602 c 0.46447,-0.804361 13.69489,-13.920563 13.69489,-13.920563 z"
     id="path3958-3-8"
     inkscape:connector-curvature="0"
     sodipodi:nodetypes="cccccccc" />
  <path
     style="fill:#e6e6e6;fill-opacity:1;stroke:#000000;stroke-width:0.74605042px;stroke-linecap:butt;stroke-linejoin:miter;stroke-opacity:1"
     d="m 243.22806,126.64701 -6.06567,0 0,14.16709 -3.19247,1.7e-4 6.35832,6.35832 6.41156,-6.35844 -3.67133,0 z"
     id="path3958-3-1"
     inkscape:connector-curvature="0"
     sodipodi:nodetypes="cccccccc" />
</svg>
