<?xml version="1.0" encoding="UTF-8" standalone="no"?>
<!-- Created with Inkscape (http://www.inkscape.org/) -->

<svg
   xmlns:dc="http://purl.org/dc/elements/1.1/"
   xmlns:cc="http://creativecommons.org/ns#"
   xmlns:rdf="http://www.w3.org/1999/02/22-rdf-syntax-ns#"
   xmlns:svg="http://www.w3.org/2000/svg"
   xmlns="http://www.w3.org/2000/svg"
   xmlns:sodipodi="http://sodipodi.sourceforge.net/DTD/sodipodi-0.dtd"
   xmlns:inkscape="http://www.inkscape.org/namespaces/inkscape"
   width="1963.901"
   height="311.87857"
   id="svg15762"
   version="1.1"
   inkscape:version="0.48.3.1 r9886"
   sodipodi:docname="matrices_2.pdf">
  <defs
     id="defs15764">
    <marker
       inkscape:stockid="Arrow1Mend"
       orient="auto"
       refY="0"
       refX="0"
       id="Arrow1Mend"
       style="overflow:visible">
      <path
         id="path15288"
         d="M 0,0 5,-5 -12.5,0 5,5 0,0 z"
         style="fill-rule:evenodd;stroke:#000000;stroke-width:1pt"
         transform="matrix(-0.4,0,0,-0.4,-4,0)"
         inkscape:connector-curvature="0" />
    </marker>
    <marker
       inkscape:stockid="Arrow1Mend"
       orient="auto"
       refY="0"
       refX="0"
       id="Arrow1Mend-1"
       style="overflow:visible">
      <path
         inkscape:connector-curvature="0"
         id="path15288-5"
         d="M 0,0 5,-5 -12.5,0 5,5 0,0 z"
         style="fill-rule:evenodd;stroke:#000000;stroke-width:1pt"
         transform="matrix(-0.4,0,0,-0.4,-4,0)" />
    </marker>
    <marker
       inkscape:stockid="Arrow1Mend"
       orient="auto"
       refY="0"
       refX="0"
       id="Arrow1Mend-3"
       style="overflow:visible">
      <path
         inkscape:connector-curvature="0"
         id="path15288-6"
         d="M 0,0 5,-5 -12.5,0 5,5 0,0 z"
         style="fill-rule:evenodd;stroke:#000000;stroke-width:1pt"
         transform="matrix(-0.4,0,0,-0.4,-4,0)" />
    </marker>
  </defs>
  <sodipodi:namedview
     id="base"
     pagecolor="#ffffff"
     bordercolor="#666666"
     borderopacity="1.0"
     inkscape:pageopacity="0.0"
     inkscape:pageshadow="2"
     inkscape:zoom="0.35"
     inkscape:cx="1004.266"
     inkscape:cy="361.76262"
     inkscape:document-units="px"
     inkscape:current-layer="layer1"
     showgrid="false"
     fit-margin-top="0"
     fit-margin-left="0"
     fit-margin-right="0"
     fit-margin-bottom="0"
     inkscape:window-width="1215"
     inkscape:window-height="776"
     inkscape:window-x="65"
     inkscape:window-y="24"
     inkscape:window-maximized="1" />
  <metadata
     id="metadata15767">
    <rdf:RDF>
      <cc:Work
         rdf:about="">
        <dc:format>image/svg+xml</dc:format>
        <dc:type
           rdf:resource="http://purl.org/dc/dcmitype/StillImage" />
        <dc:title></dc:title>
      </cc:Work>
    </rdf:RDF>
  </metadata>
  <g
     inkscape:label="Layer 1"
     inkscape:groupmode="layer"
     id="layer1"
     transform="translate(718.32411,-244.57176)">
    <g
       transform="translate(-779.25269,-136.72352)"
       id="g4053">
      <g
         style="font-style:normal;font-variant:normal;font-weight:normal;font-stretch:normal;letter-spacing:normal;word-spacing:normal;text-anchor:start;fill:none;stroke:#000000;stroke-linecap:butt;stroke-linejoin:miter;stroke-miterlimit:10.43299961;stroke-opacity:1;stroke-dasharray:none;stroke-dashoffset:0"
         id="g4055"
         transform="matrix(1.0629921,0,0,-1.0629921,-186.02362,789.27165)"
         xml:space="preserve"
         stroke-miterlimit="10.433"
         font-style="normal"
         font-variant="normal"
         font-weight="normal"
         font-stretch="normal"
         font-size-adjust="none"
         letter-spacing="normal"
         word-spacing="normal"><path
           style="fill:#000000;stroke-width:0"
           inkscape:connector-curvature="0"
           d="m 920.74,365.27 -0.09,0.17 -0.09,0.17 -0.09,0.16 -0.09,0.17 -0.1,0.15 -0.1,0.16 -0.11,0.15 -0.11,0.15 -0.11,0.14 -0.12,0.14 -0.12,0.13 -0.12,0.13 -0.13,0.12 -0.13,0.12 -0.14,0.12 -0.14,0.1 -0.14,0.11 -0.15,0.1 -0.15,0.09 -0.15,0.08 -0.16,0.08 -0.17,0.08 -0.16,0.07 -0.18,0.06 -0.17,0.05 -0.18,0.05 -0.19,0.04 -0.19,0.04 -0.19,0.02 -0.2,0.02 -0.2,0.01 -0.21,0.01 0.05,-1.1 c 3.23,0 3.94,-4.07 3.94,-4.37 0,-0.31 -0.1,-0.61 -0.15,-0.86 l -2.5,-9.77 c -0.25,-0.89 -0.25,-0.98 -1,-1.84 -2.18,-2.73 -4.23,-3.53 -5.62,-3.53 -2.48,0 -3.19,2.73 -3.19,4.69 0,2.48 1.59,8.61 2.74,10.9 1.54,2.94 3.79,4.78 5.78,4.78 l -0.05,1.1 c -5.83,0 -12,-7.32 -12,-14.6 0,-4.68 2.74,-7.97 6.62,-7.97 0.99,0 3.49,0.21 6.47,3.74 0.41,-2.09 2.15,-3.74 4.53,-3.74 1.75,0 2.9,1.15 3.69,2.74 0.85,1.8 1.5,4.84 1.5,4.94 0,0.5 -0.45,0.5 -0.59,0.5 -0.5,0 -0.55,-0.21 -0.7,-0.91 -0.85,-3.23 -1.75,-6.17 -3.78,-6.17 -1.35,0 -1.5,1.3 -1.5,2.3 0,1.09 0.09,1.48 0.63,3.68 0.57,2.1 0.66,2.6 1.12,4.49 l 1.78,6.97 c 0.35,1.39 0.35,1.5 0.35,1.68 0,0.86 -0.6,1.36 -1.45,1.36 -1.18,0 -1.93,-1.11 -2.09,-2.2 z"
           id="path4057" /><path
           style="fill:#000000;stroke-width:0"
           inkscape:connector-curvature="0"
           d="m 944.92,334.49 0,0.02 0,0.03 0,0.01 0,0.02 -0.01,0.01 0,0.02 -0.01,0.02 0,0.01 -0.01,0.02 -0.01,0.02 -0.01,0.03 -0.02,0.02 -0.01,0.02 -0.02,0.03 -0.02,0.03 -0.03,0.03 -0.02,0.04 -0.03,0.03 -0.02,0.02 -0.02,0.02 -0.01,0.02 -0.02,0.02 -0.02,0.02 -0.02,0.03 -0.02,0.02 -0.02,0.02 -0.03,0.03 -0.02,0.03 -0.03,0.02 -0.02,0.03 -0.03,0.03 -0.02,0.03 -0.03,0.03 -0.03,0.03 -0.03,0.03 -0.04,0.03 -0.03,0.04 -0.03,0.03 -0.04,0.04 -0.04,0.04 -0.03,0.03 -0.04,0.04 c -6.22,6.28 -7.81,15.69 -7.81,23.31 0,8.68 1.89,17.35 8.01,23.57 0.64,0.61 0.64,0.7 0.64,0.86 0,0.34 -0.19,0.48 -0.48,0.48 -0.5,0 -4.99,-3.37 -7.92,-9.7 -2.55,-5.49 -3.14,-11.02 -3.14,-15.21 0,-3.89 0.54,-9.9 3.28,-15.54 2.98,-6.13 7.28,-9.36 7.78,-9.36 0.29,0 0.48,0.14 0.48,0.5 z"
           id="path4059" /><path
           style="fill:#000000;stroke-width:0"
           inkscape:connector-curvature="0"
           d="m 1001,377.08 0,0.08 0.1,0.07 0,0.07 0,0.07 0,0.06 0.1,0.05 0,0.06 0,0.05 0.1,0.05 0,0.04 0,0.04 0,0.04 0.1,0.04 0,0.03 0.1,0.03 0,0.03 0,0.03 0.1,0.03 0,0.02 0.1,0.02 0.1,0.02 0,0.02 0.1,0.02 0.1,0.01 0,0.01 0.1,0.01 0,0.01 0.1,0.01 0,0 0.1,0.01 0,0.01 0.1,0 0.1,0.01 0,0.01 0.1,0 0,0.01 0.1,0.01 0.1,0 0,0.01 0.1,0.01 c 1,0.09 2,0.09 2.8,0.09 v 2.34 c -1.3,-0.04 -3,-0.14 -5.3,-0.14 -1.88,0 -4.97,0 -6.75,0.14 v -2.34 c 1.23,0 3.62,0 5.07,-0.55 l -8.57,-22.26 -8.82,22.81 h 4.78 v 2.34 c -1.89,-0.14 -6.58,-0.14 -8.71,-0.14 -1.94,0 -5.88,0 -7.63,0.14 v -2.34 h 4.3 l 2.03,-5.27 -6.77,-17.54 -8.83,22.81 h 4.78 v 2.34 c -1.88,-0.14 -6.57,-0.14 -8.71,-0.14 -1.94,0 -5.88,0 -7.61,0.14 v -2.34 h 4.28 l 11.95,-30.94 c 0.3,-0.79 0.5,-1.29 1.75,-1.29 1.24,0 1.44,0.5 1.74,1.29 l 8.67,22.42 8.67,-22.42 c 0.3,-0.79 0.5,-1.29 1.73,-1.29 1.25,0 1.46,0.5 1.75,1.29 z"
           id="path4061" /><path
           style="fill:#000000;stroke-width:0"
           inkscape:connector-curvature="0"
           d="m 1018,346.49 0,0.3 0,0.3 -0.1,0.29 0,0.28 0,0.27 0,0.27 -0.1,0.25 0,0.25 -0.1,0.23 -0.1,0.23 0,0.22 -0.1,0.21 -0.1,0.2 -0.1,0.2 -0.1,0.18 -0.1,0.17 -0.1,0.17 -0.1,0.15 -0.1,0.14 -0.1,0.14 -0.2,0.12 -0.1,0.11 -0.1,0.11 -0.2,0.09 -0.1,0.08 -0.2,0.07 -0.1,0.06 -0.2,0.05 -0.2,0.04 -0.2,0.03 -0.1,0.02 -0.2,0 c -1.6,0 -2.6,-1.25 -2.6,-2.64 0,-1.34 1,-2.64 2.6,-2.64 0.6,0 1.2,0.2 1.7,0.64 0.2,0.11 0.3,0.16 0.3,0.16 0,0 0.1,-0.05 0.1,-0.75 0,-3.69 -1.7,-6.67 -3.4,-8.31 -0.5,-0.55 -0.5,-0.66 -0.5,-0.8 0,-0.36 0.2,-0.55 0.5,-0.55 0.5,0 4.5,3.83 4.5,9.66 z"
           id="path4063" /><path
           style="fill:#000000;stroke-width:0"
           inkscape:connector-curvature="0"
           d="m 1066,360.1 h -2.4 c -1.1,-6.88 -2.5,-11.31 -11.7,-11.31 h -7.6 v 14.04 h 2.8 c 4.8,0 5.3,-2.14 5.3,-5.83 h 2.3 v 14 h -2.3 c 0,-3.68 -0.5,-5.82 -5.3,-5.82 h -2.8 v 12.79 h 7.6 c 8,0 9.3,-3.62 10.1,-9.65 h 2.4 l -1.6,12 h -30.9 v -2.35 h 5.4 v -29.18 h -5.4 v -2.35 h 31.8 z"
           id="path4065" /><path
           style="fill:#000000;stroke-width:0"
           inkscape:connector-curvature="0"
           d="m 1082,358.89 0,0.38 0,0.38 0,0.39 0,0.41 0,0.84 -0.1,0.88 -0.1,0.92 -0.1,0.95 -0.1,0.98 -0.2,1 -0.2,1.02 -0.2,1.04 -0.3,1.05 -0.3,1.06 -0.3,1.06 -0.4,1.07 -0.2,0.53 -0.3,0.53 -0.2,0.53 -0.3,0.53 c -2.9,6.13 -7.2,9.36 -7.7,9.36 -0.3,0 -0.5,-0.19 -0.5,-0.48 0,-0.16 0,-0.25 0.9,-1.16 4.9,-4.92 7.7,-12.84 7.7,-23.27 0,-8.51 -1.8,-17.28 -8,-23.56 -0.6,-0.59 -0.6,-0.7 -0.6,-0.84 0,-0.3 0.2,-0.5 0.5,-0.5 0.5,0 4.9,3.39 7.9,9.72 2.5,5.47 3.1,11 3.1,15.18 z"
           id="path4067" /><path
           style="fill:#000000;stroke-width:0"
           inkscape:connector-curvature="0"
           d="m 1130.9,357.89 0.2,0.01 0.1,0 0.2,0 0.1,0.01 0.1,0 0,0.01 0.1,0.01 0.1,0.01 0.1,0.01 0,0.01 0.1,0.02 0.1,0.02 0,0.02 0.1,0.02 0,0.03 0.1,0.03 0.1,0.04 0,0.04 0,0.04 0.1,0.05 0,0.05 0,0.02 0.1,0.03 0,0.03 0,0.03 0,0.03 0,0.04 0,0.03 0,0.03 0,0.04 0.1,0.04 0,0.04 0,0.04 0,0.04 0,0.04 0,0.05 0,0.04 c 0,1 -0.9,1 -1.8,1 H 1104 c -0.9,0 -1.8,0 -1.8,-1 0,-1 0.9,-1 1.8,-1 z"
           id="path4069" /><path
           style="fill:#000000;stroke-width:0"
           inkscape:connector-curvature="0"
           d="m 1152.3,349.38 0,-0.07 0,-0.08 -0.1,-0.07 0,-0.08 0,-0.16 0,-0.16 -0.1,-0.16 0,-0.16 -0.1,-0.16 0,-0.16 0,-0.08 0,-0.07 0,-0.07 -0.1,-0.07 0,-0.07 0,-0.07 0,-0.06 0,-0.06 0,-0.05 0,-0.06 0,-0.04 0,-0.05 -0.1,-0.04 0,-0.03 0,-0.04 0,-0.02 c 0,-0.89 0.7,-1.35 1.5,-1.35 0.6,0 1.5,0.4 1.8,1.4 0.1,0.1 0.7,2.43 1,3.68 l 1.1,4.49 c 0.3,1.09 0.6,2.18 0.8,3.34 0.2,0.84 0.6,2.28 0.7,2.49 0.7,1.54 3.4,6.07 8.1,6.07 2.2,0 2.7,-1.84 2.7,-3.48 0,-1.25 -0.4,-2.64 -0.8,-4.14 l -1.4,-5.78 -1,-3.78 c -0.2,-1 -0.6,-2.69 -0.6,-2.94 0,-0.89 0.7,-1.35 1.4,-1.35 1.6,0 1.9,1.25 2.3,2.85 0.7,2.78 2.5,10.06 3,12 0.1,0.65 2.8,6.62 8.2,6.62 2.1,0 2.7,-1.68 2.7,-3.48 0,-2.84 -2.1,-8.52 -3.1,-11.16 -0.5,-1.2 -0.7,-1.75 -0.7,-2.75 0,-2.33 1.8,-4.08 4.1,-4.08 4.7,0 6.6,7.27 6.6,7.68 0,0.5 -0.5,0.5 -0.6,0.5 -0.5,0 -0.5,-0.16 -0.8,-0.91 -0.7,-2.64 -2.3,-6.17 -5.1,-6.17 -0.8,0 -1.2,0.5 -1.2,1.64 0,1.25 0.5,2.45 0.9,3.55 1,2.57 3.1,8.11 3.1,10.95 0,3.23 -2,5.33 -5.8,5.33 -3.7,0 -6.2,-2.19 -8.1,-4.83 0,0.66 -0.2,2.34 -1.6,3.53 -1.2,1.05 -2.8,1.3 -4.1,1.3 -4.5,0 -6.9,-3.19 -7.7,-4.33 -0.3,2.84 -2.4,4.33 -4.6,4.33 -2.3,0 -3.3,-1.94 -3.7,-2.83 -0.9,-1.75 -1.6,-4.69 -1.6,-4.84 0,-0.5 0.5,-0.5 0.6,-0.5 0.5,0 0.6,0.06 0.9,1.15 0.8,3.53 1.8,5.92 3.6,5.92 0.8,0 1.6,-0.39 1.6,-2.28 0,-1.04 -0.2,-1.61 -0.8,-4.19 z"
           id="path4071" /><path
           style="fill:#000000;stroke-width:0"
           inkscape:connector-curvature="0"
           d="m 1208.1,334.49 0,0.02 0,0.03 0,0.01 0,0.02 0,0.01 0,0.02 0,0.02 -0.1,0.01 0,0.02 0,0.02 0,0.03 0,0.02 0,0.02 0,0.03 -0.1,0.03 0,0.03 0,0.04 0,0.03 -0.1,0.02 0,0.02 0,0.02 0,0.02 0,0.02 0,0.03 -0.1,0.02 0,0.02 0,0.03 0,0.03 -0.1,0.02 0,0.03 0,0.03 0,0.03 -0.1,0.03 0,0.03 0,0.03 -0.1,0.03 0,0.04 0,0.03 -0.1,0.04 0,0.04 0,0.03 -0.1,0.04 c -6.2,6.28 -7.8,15.69 -7.8,23.31 0,8.68 1.9,17.35 8,23.57 0.7,0.61 0.7,0.7 0.7,0.86 0,0.34 -0.2,0.48 -0.5,0.48 -0.5,0 -5,-3.37 -7.9,-9.7 -2.6,-5.49 -3.2,-11.02 -3.2,-15.21 0,-3.89 0.6,-9.9 3.3,-15.54 3,-6.13 7.3,-9.36 7.8,-9.36 0.3,0 0.5,0.14 0.5,0.5 z"
           id="path4073" /><path
           style="fill:#000000;stroke-width:0"
           inkscape:connector-curvature="0"
           d="m 1264.2,377.08 0,0.08 0,0.07 0,0.07 0.1,0.07 0,0.06 0,0.05 0,0.06 0.1,0.05 0,0.05 0,0.04 0.1,0.04 0,0.04 0,0.04 0.1,0.03 0,0.03 0,0.03 0.1,0.03 0,0.03 0.1,0.02 0.1,0.02 0,0.02 0.1,0.02 0.1,0.02 0,0.01 0.1,0.02 0.1,0.01 0,0.01 0.1,0 0,0.01 0.1,0.01 0,0 0.1,0.01 0.1,0.01 0,0 0.1,0.01 0,0.01 0.1,0 0.1,0.01 0.1,0.01 c 1,0.09 2,0.09 2.8,0.09 v 2.34 c -1.4,-0.04 -3.1,-0.14 -5.3,-0.14 -1.9,0 -5,0 -6.8,0.14 v -2.34 c 1.2,0 3.6,0 5.1,-0.55 l -8.6,-22.26 -8.8,22.81 h 4.8 v 2.34 c -1.9,-0.14 -6.6,-0.14 -8.8,-0.14 -1.9,0 -5.8,0 -7.6,0.14 v -2.34 h 4.3 l 2,-5.27 -6.7,-17.54 -8.8,22.81 h 4.7 v 2.34 c -1.9,-0.14 -6.6,-0.14 -8.7,-0.14 -1.9,0 -5.9,0 -7.6,0.14 v -2.34 h 4.3 l 11.9,-30.94 c 0.3,-0.79 0.5,-1.29 1.8,-1.29 1.2,0 1.4,0.5 1.7,1.29 l 8.7,22.42 8.7,-22.42 c 0.3,-0.79 0.5,-1.29 1.7,-1.29 1.3,0 1.4,0.5 1.8,1.29 z"
           id="path4075" /><path
           style="fill:#000000;stroke-width:0"
           inkscape:connector-curvature="0"
           d="m 1281.1,346.49 0,0.3 0,0.3 0,0.29 0,0.28 -0.1,0.27 0,0.27 -0.1,0.25 0,0.25 -0.1,0.23 0,0.23 -0.1,0.22 -0.1,0.21 -0.1,0.2 0,0.2 -0.1,0.18 -0.1,0.17 -0.1,0.17 -0.2,0.15 -0.1,0.14 -0.1,0.14 -0.1,0.12 -0.2,0.11 -0.1,0.11 -0.1,0.09 -0.2,0.08 -0.1,0.07 -0.2,0.06 -0.2,0.05 -0.1,0.04 -0.2,0.03 -0.2,0.02 -0.2,0 c -1.6,0 -2.6,-1.25 -2.6,-2.64 0,-1.34 1,-2.64 2.6,-2.64 0.6,0 1.3,0.2 1.8,0.64 0.1,0.11 0.2,0.16 0.2,0.16 0.1,0 0.1,-0.05 0.1,-0.75 0,-3.69 -1.7,-6.67 -3.4,-8.31 -0.5,-0.55 -0.5,-0.66 -0.5,-0.8 0,-0.36 0.2,-0.55 0.5,-0.55 0.5,0 4.5,3.83 4.5,9.66 z"
           id="path4077" /><path
           style="fill:#000000;stroke-width:0"
           inkscape:connector-curvature="0"
           d="m 1329.1,360.1 h -2.3 c -1.1,-6.88 -2.5,-11.31 -11.7,-11.31 h -7.6 v 14.04 h 2.7 c 4.8,0 5.3,-2.14 5.3,-5.83 h 2.4 v 14 h -2.4 c 0,-3.68 -0.4,-5.82 -5.3,-5.82 h -2.7 v 12.79 h 7.6 c 8,0 9.3,-3.62 10.1,-9.65 h 2.3 l -1.5,12 h -31 v -2.35 h 5.4 v -29.18 h -5.4 v -2.35 h 31.8 z"
           id="path4079" /><path
           style="fill:#000000;stroke-width:0"
           inkscape:connector-curvature="0"
           d="m 1345.2,358.89 0,0.38 0,0.38 -0.1,0.39 0,0.41 0,0.84 -0.1,0.88 0,0.92 -0.2,0.95 -0.1,0.98 -0.2,1 -0.1,1.02 -0.3,1.04 -0.2,1.05 -0.4,1.06 -0.3,1.06 -0.4,1.07 -0.2,0.53 -0.2,0.53 -0.3,0.53 -0.2,0.53 c -3,6.13 -7.3,9.36 -7.8,9.36 -0.3,0 -0.5,-0.19 -0.5,-0.48 0,-0.16 0,-0.25 1,-1.16 4.8,-4.92 7.7,-12.84 7.7,-23.27 0,-8.51 -1.9,-17.28 -8,-23.56 -0.7,-0.59 -0.7,-0.7 -0.7,-0.84 0,-0.3 0.2,-0.5 0.5,-0.5 0.5,0 5,3.39 7.9,9.72 2.6,5.47 3.2,11 3.2,15.18 z"
           id="path4081" /><path
           style="fill:#000000;stroke-width:0"
           inkscape:connector-curvature="0"
           d="m 1398.2,362.74 0.2,0 0.1,0 0.2,0 0,0.01 0.1,0 0.1,0.01 0.1,0.01 0,0.01 0.1,0.01 0.1,0.01 0,0.02 0.1,0.02 0.1,0.02 0,0.03 0.1,0.02 0,0.03 0.1,0.04 0,0.04 0.1,0.04 0,0.04 0.1,0.05 0,0.03 0,0.03 0,0.03 0,0.03 0.1,0.03 0,0.03 0,0.03 0,0.04 0,0.03 0,0.04 0,0.04 0,0.04 0,0.04 0,0.04 0,0.05 0,0.04 c 0,1 -0.9,1 -1.6,1 h -29.9 c -0.7,0 -1.6,0 -1.6,-1 0,-0.98 0.9,-0.98 1.7,-0.98 z"
           id="path4083" /><path
           style="fill:#000000;stroke-width:0"
           inkscape:connector-curvature="0"
           d="m 1398.3,353.07 0.1,0 0,0 0.2,0 0.1,0 0.1,0.01 0,0 0.1,0.01 0.1,0.01 0,0.01 0.1,0.01 0.1,0.01 0,0.02 0.1,0.02 0.1,0.02 0,0.03 0.1,0.02 0,0.04 0.1,0.03 0,0.04 0.1,0.04 0,0.05 0.1,0.02 0,0.03 0,0.02 0,0.03 0,0.03 0,0.03 0.1,0.03 0,0.04 0,0.03 0,0.04 0,0.03 0,0.04 0,0.04 0,0.04 0,0.04 0,0.05 0,0.04 0,0.05 c 0,1 -0.9,1 -1.7,1 h -29.7 c -0.8,0 -1.7,0 -1.7,-1 0,-1 0.9,-1 1.6,-1 z"
           id="path4085" /><path
           style="fill:#000000;stroke-width:0"
           inkscape:connector-curvature="0"
           d="m 1449.4,357.89 0.1,0.01 0.2,0 0.2,0 0,0.01 0.1,0 0.1,0.01 0.1,0.01 0,0.01 0.1,0.01 0.1,0.01 0.1,0.02 0,0.02 0.1,0.02 0,0.02 0.1,0.03 0.1,0.03 0,0.04 0.1,0.04 0,0.04 0,0.05 0.1,0.05 0,0.02 0,0.03 0,0.03 0.1,0.03 0,0.03 0,0.04 0,0.03 0,0.03 0,0.04 0,0.04 0,0.04 0,0.04 0,0.04 0,0.04 0,0.05 0,0.04 c 0,1 -0.9,1 -1.7,1 h -27 c -0.8,0 -1.7,0 -1.7,-1 0,-1 0.9,-1 1.7,-1 z"
           id="path4087" /><path
           style="fill:#000000;stroke-width:0"
           inkscape:connector-curvature="0"
           d="m 1477.8,367.91 0,0.02 0,0.02 0,0.02 0,0.02 0,0.02 0,0.02 0,0.02 0,0.02 0,0.02 0,0.03 0,0.02 0,0.02 0,0.02 0,0.02 -0.1,0.02 0,0.02 0,0.01 0,0.02 0,0.02 0,0.02 -0.1,0.01 0,0.01 0,0.02 0,0.01 -0.1,0.01 0,0.01 0,0.01 0,0.01 -0.1,0 0,0.01 0,0 0,0 -0.1,0 c -0.5,0 -2.5,-1.98 -3.3,-3.44 -1.1,2.69 -3.1,3.49 -4.7,3.49 v -1.1 c 3.3,0 4,-4.03 4,-4.37 0,-0.31 -2.8,-11.22 -2.9,-11.42 -0.8,-1.39 -3.6,-4.58 -6.4,-4.58 h 0 c -2.9,0 -3.1,3.84 -3.1,4.69 0,2.39 1.4,7.81 2.3,9.9 1.5,3.69 4.1,5.78 6.1,5.78 v 1.1 c -5.9,0 -12,-7.38 -12,-14.6 0,-4.87 3,-7.97 6.6,-7.97 2.1,0 4.1,1.19 5.9,2.99 -0.5,-1.74 -2.1,-8.47 -2.3,-8.92 -0.4,-1.39 -0.8,-1.6 -3.6,-1.64 -0.6,0 -1.1,0 -1.1,-1 0,-0.05 0,-0.55 0.6,-0.55 1.6,0 3.4,0.16 5,0.16 1.7,0 3.5,-0.16 5.2,-0.16 0.2,0 0.8,0 0.8,1 0,0.55 -0.4,0.55 -1.2,0.55 -2.4,0 -2.4,0.36 -2.4,0.79 0,0.36 0.1,0.66 0.2,1.1 z"
           id="path4089" /><path
           style="fill:#000000;stroke-width:0"
           inkscape:connector-curvature="0"
           d="m 1495.8,334.49 0,0.02 0,0.03 0,0.01 0,0.02 0,0.01 0,0.02 0,0.02 0,0.01 0,0.02 0,0.02 0,0.03 -0.1,0.02 0,0.02 0,0.03 0,0.03 0,0.03 -0.1,0.04 0,0.03 0,0.02 0,0.02 0,0.02 -0.1,0.02 0,0.02 0,0.03 0,0.02 0,0.02 -0.1,0.03 0,0.03 0,0.02 0,0.03 -0.1,0.03 0,0.03 0,0.03 -0.1,0.03 0,0.03 0,0.03 -0.1,0.04 0,0.03 0,0.04 -0.1,0.04 0,0.03 0,0.04 c -6.2,6.28 -7.8,15.69 -7.8,23.31 0,8.68 1.8,17.35 8,23.57 0.6,0.61 0.6,0.7 0.6,0.86 0,0.34 -0.2,0.48 -0.5,0.48 -0.5,0 -5,-3.37 -7.9,-9.7 -2.5,-5.49 -3.1,-11.02 -3.1,-15.21 0,-3.89 0.5,-9.9 3.2,-15.54 3,-6.13 7.3,-9.36 7.8,-9.36 0.3,0 0.5,0.14 0.5,0.5 z"
           id="path4091" /><path
           style="fill:#000000;stroke-width:0"
           inkscape:connector-curvature="0"
           d="m 1551.9,377.08 0,0.08 0.1,0.07 0,0.07 0,0.07 0,0.06 0.1,0.05 0,0.06 0,0.05 0,0.05 0.1,0.04 0,0.04 0,0.04 0.1,0.04 0,0.03 0,0.03 0.1,0.03 0,0.03 0.1,0.03 0,0.02 0.1,0.02 0.1,0.02 0,0.02 0.1,0.02 0.1,0.01 0,0.01 0.1,0.01 0,0.01 0.1,0.01 0,0 0.1,0.01 0,0.01 0.1,0 0,0.01 0.1,0.01 0.1,0 0,0.01 0.1,0.01 0.1,0 0,0.01 0.1,0.01 c 1,0.09 2,0.09 2.8,0.09 v 2.34 c -1.3,-0.04 -3,-0.14 -5.3,-0.14 -1.9,0 -5,0 -6.8,0.14 v -2.34 c 1.3,0 3.7,0 5.1,-0.55 l -8.6,-22.26 -8.8,22.81 h 4.8 v 2.34 c -1.9,-0.14 -6.6,-0.14 -8.7,-0.14 -2,0 -5.9,0 -7.6,0.14 v -2.34 h 4.2 l 2.1,-5.27 -6.8,-17.54 -8.8,22.81 h 4.8 v 2.34 c -1.9,-0.14 -6.6,-0.14 -8.8,-0.14 -1.9,0 -5.8,0 -7.6,0.14 v -2.34 h 4.3 l 12,-30.94 c 0.3,-0.79 0.5,-1.29 1.7,-1.29 1.3,0 1.5,0.5 1.8,1.29 l 8.6,22.42 8.7,-22.42 c 0.3,-0.79 0.5,-1.29 1.7,-1.29 1.3,0 1.5,0.5 1.8,1.29 z"
           id="path4093" /><path
           style="fill:#000000;stroke-width:0"
           inkscape:connector-curvature="0"
           d="m 1573.2,358.89 -0.1,0.38 0,0.38 0,0.39 0,0.41 0,0.84 -0.1,0.88 -0.1,0.92 -0.1,0.95 -0.1,0.98 -0.2,1 -0.2,1.02 -0.2,1.04 -0.3,1.05 -0.3,1.06 -0.3,1.06 -0.4,1.07 -0.2,0.53 -0.2,0.53 -0.3,0.53 -0.2,0.53 c -3,6.13 -7.3,9.36 -7.8,9.36 -0.3,0 -0.5,-0.19 -0.5,-0.48 0,-0.16 0,-0.25 0.9,-1.16 4.9,-4.92 7.8,-12.84 7.8,-23.27 0,-8.51 -1.9,-17.28 -8.1,-23.56 -0.6,-0.59 -0.6,-0.7 -0.6,-0.84 0,-0.3 0.2,-0.5 0.5,-0.5 0.5,0 5,3.39 7.9,9.72 2.6,5.47 3.2,11 3.2,15.18 z"
           id="path4095" /></g>    </g>
    <g
       transform="translate(-1442.1099,60.990777)"
       id="g7564">
      <g
         style="font-style:normal;font-variant:normal;font-weight:normal;font-stretch:normal;letter-spacing:normal;word-spacing:normal;text-anchor:start;fill:none;stroke:#000000;stroke-linecap:butt;stroke-linejoin:miter;stroke-miterlimit:10.43299961;stroke-opacity:1;stroke-dasharray:none;stroke-dashoffset:0"
         id="g7566"
         transform="matrix(1.0629921,0,0,-1.0629921,-186.02362,789.27165)"
         xml:space="preserve"
         stroke-miterlimit="10.433"
         font-style="normal"
         font-variant="normal"
         font-weight="normal"
         font-stretch="normal"
         font-size-adjust="none"
         letter-spacing="normal"
         word-spacing="normal"><path
           style="fill:#000000;stroke-width:0"
           inkscape:connector-curvature="0"
           d="m 872.4748,315.47 -0.09,0.17 -0.09,0.17 -0.09,0.16 -0.09,0.17 -0.1,0.15 -0.11,0.16 -0.1,0.15 -0.11,0.14 -0.11,0.15 -0.12,0.13 -0.12,0.14 -0.12,0.13 -0.13,0.12 -0.13,0.12 -0.14,0.11 -0.14,0.11 -0.14,0.11 -0.15,0.1 -0.15,0.09 -0.16,0.08 -0.16,0.08 -0.16,0.08 -0.17,0.07 -0.17,0.06 -0.18,0.05 -0.18,0.05 -0.18,0.04 -0.19,0.03 -0.19,0.03 -0.2,0.02 -0.2,0.01 -0.21,0.01 0.04,-1.1 c 3.24,0 3.94,-4.08 3.94,-4.37 0,-0.31 -0.09,-0.61 -0.14,-0.86 l -2.5,-9.77 c -0.25,-0.89 -0.25,-0.98 -1,-1.84 -2.19,-2.74 -4.23,-3.53 -5.62,-3.53 -2.49,0 -3.19,2.73 -3.19,4.69 0,2.48 1.59,8.6 2.73,10.9 1.55,2.94 3.8,4.78 5.78,4.78 l -0.04,1.1 c -5.83,0 -12,-7.32 -12,-14.6 0,-4.68 2.73,-7.97 6.62,-7.97 0.99,0 3.49,0.21 6.47,3.74 0.41,-2.1 2.14,-3.74 4.53,-3.74 1.75,0 2.89,1.14 3.69,2.74 0.84,1.79 1.5,4.84 1.5,4.94 0,0.5 -0.45,0.5 -0.59,0.5 -0.5,0 -0.55,-0.21 -0.71,-0.91 -0.84,-3.24 -1.75,-6.17 -3.78,-6.17 -1.34,0 -1.5,1.29 -1.5,2.29 0,1.1 0.1,1.49 0.64,3.69 0.57,2.1 0.66,2.6 1.11,4.49 l 1.78,6.96 c 0.36,1.4 0.36,1.5 0.36,1.69 0,0.86 -0.61,1.36 -1.45,1.36 -1.19,0 -1.94,-1.11 -2.09,-2.2 z"
           id="path7568" /><path
           style="fill:#000000;stroke-width:0"
           inkscape:connector-curvature="0"
           d="m 904.9348,284.69 0,0.02 0,0.03 0,0.01 0,0.02 -0.01,0.01 0,0.02 -0.01,0.02 0,0.01 -0.01,0.02 -0.01,0.02 -0.02,0.02 -0.01,0.03 -0.02,0.02 -0.01,0.03 -0.03,0.03 -0.02,0.03 -0.03,0.04 -0.03,0.03 -0.01,0.02 -0.02,0.02 -0.02,0.02 -0.01,0.02 -0.02,0.02 -0.02,0.03 -0.02,0.02 -0.03,0.02 -0.02,0.03 -0.02,0.03 -0.03,0.02 -0.02,0.03 -0.03,0.03 -0.03,0.03 -0.02,0.03 -0.03,0.03 -0.04,0.03 -0.03,0.03 -0.03,0.04 -0.03,0.03 -0.04,0.04 -0.04,0.03 -0.03,0.04 -0.04,0.04 c -6.22,6.28 -7.81,15.69 -7.81,23.31 0,8.68 1.88,17.35 8.01,23.57 0.64,0.61 0.64,0.7 0.64,0.86 0,0.34 -0.19,0.48 -0.48,0.48 -0.5,0 -4.99,-3.38 -7.92,-9.7 -2.55,-5.49 -3.15,-11.02 -3.15,-15.21 0,-3.89 0.55,-9.9 3.28,-15.54 2.99,-6.13 7.29,-9.36 7.79,-9.36 0.29,0 0.48,0.14 0.48,0.5 z"
           id="path7570" /><path
           style="fill:#000000;stroke-width:0"
           inkscape:connector-curvature="0"
           d="m 953.5748,324.89 0.24,0.41 0.23,0.39 0.24,0.38 0.25,0.37 0.13,0.18 0.13,0.17 0.13,0.17 0.14,0.17 0.14,0.16 0.15,0.15 0.15,0.15 0.15,0.14 0.16,0.14 0.17,0.14 0.17,0.12 0.18,0.12 0.19,0.12 0.2,0.1 0.2,0.1 0.21,0.1 0.22,0.08 0.23,0.08 0.23,0.07 0.25,0.06 0.26,0.05 0.26,0.05 0.28,0.04 0.29,0.02 c 0.45,0.05 0.95,0.05 0.95,1 0,0.19 -0.2,0.55 -0.61,0.55 -1.18,0 -2.58,-0.15 -3.83,-0.15 -1.7,0 -3.54,0.15 -5.18,0.15 -0.3,0 -0.94,0 -0.94,-0.95 0,-0.55 0.44,-0.6 0.74,-0.6 1.2,-0.04 2.95,-0.45 2.95,-1.93 0,-0.55 -0.25,-0.96 -0.66,-1.66 l -13.45,-23.45 -1.84,24.7 c -0.05,1 -0.15,2.3 3.48,2.34 0.86,0 1.36,0 1.36,1 0,0.5 -0.56,0.55 -0.75,0.55 -2,0 -4.09,-0.15 -6.08,-0.15 -1.16,0 -4.09,0.15 -5.23,0.15 -0.3,0 -0.96,0 -0.96,-1 0,-0.55 0.5,-0.55 1.21,-0.55 2.18,0 2.53,-0.29 2.64,-1.24 l 0.29,-3.83 -12.61,-21.97 -1.89,25.25 c 0,0.59 0,1.75 3.79,1.79 0.5,0 1.04,0 1.04,1 0,0.55 -0.59,0.55 -0.69,0.55 -2,0 -4.09,-0.15 -6.12,-0.15 -1.75,0 -3.55,0.15 -5.23,0.15 -0.25,0 -0.91,0 -0.91,-0.95 0,-0.6 0.45,-0.6 1.25,-0.6 2.5,0 2.54,-0.45 2.64,-1.84 l 2.25,-30.44 c 0.05,-0.9 0.09,-1.29 0.8,-1.29 0.59,0 0.73,0.29 1.18,1.04 l 14.66,25.41 1.84,-25.16 c 0.1,-1.04 0.19,-1.29 0.8,-1.29 0.64,0 0.94,0.5 1.19,0.93 z"
           id="path7572" /><path
           style="fill:#000000;stroke-width:0"
           inkscape:connector-curvature="0"
           d="m 971.31,296.69 0,0.3 -0.02,0.3 -0.01,0.29 -0.03,0.28 -0.03,0.27 -0.04,0.26 -0.04,0.26 -0.05,0.25 -0.06,0.23 -0.07,0.23 -0.07,0.22 -0.07,0.21 -0.09,0.2 -0.09,0.2 -0.09,0.18 -0.1,0.17 -0.11,0.16 -0.11,0.16 -0.12,0.14 -0.12,0.13 -0.13,0.13 -0.13,0.11 -0.14,0.11 -0.15,0.09 -0.15,0.08 -0.15,0.07 -0.16,0.06 -0.16,0.05 -0.17,0.04 -0.17,0.03 -0.18,0.02 -0.18,0 c -1.64,0 -2.64,-1.25 -2.64,-2.64 0,-1.34 1,-2.64 2.64,-2.64 0.6,0 1.25,0.2 1.75,0.64 0.14,0.11 0.2,0.16 0.25,0.16 0.05,0 0.1,-0.05 0.1,-0.75 0,-3.69 -1.74,-6.67 -3.4,-8.31 -0.54,-0.55 -0.54,-0.66 -0.54,-0.8 0,-0.36 0.25,-0.55 0.5,-0.55 0.54,0 4.53,3.83 4.53,9.66 z"
           id="path7576" /><path
           style="fill:#000000;stroke-width:0"
           inkscape:connector-curvature="0"
           d="m 1018.6,308.25 0,0.02 0,0.03 0,0.05 0,0.05 0,0.05 0.1,0.05 0,0.05 0,0.05 0,0.05 0,0.03 0,0.02 0,0.03 0,0.02 0,0.02 0.1,0.02 0,0.02 0,0.02 0,0.02 0,0.02 0,0.02 0,0.01 0,0.02 0,0.01 0,0.01 0,0.01 c 0,0.05 0,0.55 -0.6,0.55 -0.4,0 -0.5,-0.3 -0.6,-0.61 -3.3,-7.37 -5.1,-10.7 -13.6,-10.7 h -7.32 c -0.7,0 -0.79,0 -1.09,0.04 -0.5,0.05 -0.66,0.1 -0.66,0.5 0,0.15 0,0.25 0.25,1.15 l 3.39,13.6 h 4.93 c 4.3,0 4.3,-1.04 4.3,-2.29 0,-0.35 0,-0.96 -0.4,-2.44 -0.1,-0.25 -0.2,-0.41 -0.2,-0.55 0,-0.25 0.2,-0.54 0.7,-0.54 0.4,0 0.5,0.25 0.7,0.98 l 2.9,11.67 c 0,0.3 -0.3,0.55 -0.6,0.55 -0.5,0 -0.6,-0.3 -0.7,-0.91 -1.1,-3.78 -2,-4.92 -6.5,-4.92 h -4.73 l 3.03,12 c 0.4,1.75 0.5,1.94 2.7,1.94 h 7 c 6.1,0 7.5,-1.44 7.5,-5.53 0,-1.19 0,-1.28 -0.2,-2.64 0,-0.3 0,-0.64 0,-0.89 0,-0.25 0.2,-0.6 0.6,-0.6 0.6,0 0.6,0.3 0.7,1.25 l 1,8.61 c 0.1,1.35 -0.1,1.35 -1.3,1.35 h -25.21 c -1,0 -1.5,0 -1.5,-1 0,-0.55 0.46,-0.55 1.39,-0.55 1.85,0 3.24,0 3.24,-0.89 0,-0.2 0,-0.3 -0.25,-1.2 l -6.57,-26.35 c -0.5,-1.95 -0.6,-2.34 -4.54,-2.34 -0.84,0 -1.39,0 -1.39,-0.96 0,-0.59 0.45,-0.59 1.39,-0.59 h 25.84 c 1.2,0 1.2,0.05 1.6,0.84 z"
           id="path7578" /><path
           style="fill:#000000;stroke-width:0"
           inkscape:connector-curvature="0"
           d="m 1059.6,309.09 0,0.37 0,0.39 0,0.39 0,0.41 -0.1,0.84 0,0.88 -0.1,0.92 -0.1,0.95 -0.2,0.98 -0.1,1 -0.2,1.02 -0.3,1.04 -0.2,1.05 -0.3,1.06 -0.4,1.06 -0.4,1.07 -0.2,0.53 -0.2,0.53 -0.2,0.53 -0.3,0.53 c -3,6.13 -7.3,9.36 -7.8,9.36 -0.3,0 -0.5,-0.19 -0.5,-0.48 0,-0.16 0,-0.25 1,-1.16 4.9,-4.92 7.7,-12.84 7.7,-23.27 0,-8.51 -1.8,-17.28 -8,-23.56 -0.7,-0.59 -0.7,-0.7 -0.7,-0.84 0,-0.3 0.2,-0.5 0.5,-0.5 0.5,0 5,3.39 8,9.72 2.5,5.47 3.1,11 3.1,15.18 z"
           id="path7582" /><path
           style="fill:#000000;stroke-width:0"
           inkscape:connector-curvature="0"
           d="m 1112.7,312.94 0.1,0 0.2,0 0.1,0 0.1,0.01 0,0 0.1,0.01 0.1,0.01 0.1,0.01 0,0.01 0.1,0.01 0.1,0.02 0,0.02 0.1,0.02 0.1,0.03 0,0.02 0.1,0.03 0,0.04 0.1,0.04 0,0.04 0.1,0.04 0,0.05 0,0.03 0,0.03 0.1,0.03 0,0.03 0,0.03 0,0.03 0,0.03 0,0.04 0,0.03 0,0.04 0,0.04 0,0.04 0.1,0.04 0,0.04 0,0.05 0,0.04 c 0,1 -1,1 -1.7,1 h -29.8 c -0.7,0 -1.7,0 -1.7,-1 0,-0.98 1,-0.98 1.7,-0.98 z"
           id="path7584" /><path
           style="fill:#000000;stroke-width:0"
           inkscape:connector-curvature="0"
           d="m 1112.7,303.27 0.1,0 0.1,0 0.1,0 0.1,0 0.1,0.01 0.1,0 0,0.01 0.1,0.01 0.1,0.01 0,0.01 0.1,0.01 0.1,0.02 0,0.02 0.1,0.02 0.1,0.03 0,0.02 0.1,0.04 0,0.03 0.1,0.04 0,0.04 0.1,0.05 0,0.02 0,0.03 0,0.02 0,0.03 0.1,0.03 0,0.03 0,0.03 0,0.04 0,0.03 0,0.04 0,0.03 0,0.04 0,0.04 0,0.04 0.1,0.04 0,0.05 0,0.04 0,0.05 c 0,1 -1,1 -1.7,1 h -29.8 c -0.7,0 -1.7,0 -1.7,-1 0,-1 1,-1 1.7,-1 z"
           id="path7586" /><path
           style="fill:#000000;stroke-width:0"
           inkscape:connector-curvature="0"
           d="m 1133.4,332.11 0,0.02 0,0.03 0.1,0.02 0,0.03 0,0.04 0,0.04 0,0.05 0,0.03 0.1,0.04 0,0.04 0,0.03 0,0.03 0,0.03 0,0.03 0,0.03 0,0.02 0,0.03 0,0.02 0,0.03 0,0.02 0.1,0.02 0,0.02 0,0.02 0,0.03 0,0.04 0,0.04 0,0.04 0,0.04 0,0.02 0,0.03 c 0,0.54 -0.5,0.98 -1,0.98 -0.5,0 -0.8,-0.25 -1.2,-1.14 L 1122.8,310 c -0.1,-0.31 -0.2,-0.61 -0.2,-0.91 0,-0.14 0,-0.25 0.2,-0.84 l 8.7,-22.87 c 0.2,-0.55 0.5,-1.19 1.2,-1.19 0.5,0 1,0.45 1,1 0,0.14 0,0.25 -0.3,0.79 l -8.8,23.11 z"
           id="path7588" /><path
           style="fill:#000000;stroke-width:0"
           inkscape:connector-curvature="0"
           d="m 1154.7,330.62 -0.1,0.08 0,0.08 0,0.07 0,0.06 -0.1,0.07 0,0.06 0,0.06 -0.1,0.05 0,0.05 0,0.05 0,0.05 0,0.04 -0.1,0.04 0,0.04 0,0.04 0,0.03 -0.1,0.03 0,0.03 0,0.02 -0.1,0.03 0,0.02 0,0.02 -0.1,0.01 0,0.02 0,0.01 -0.1,0.01 0,0.01 0,0.01 -0.1,0 0,0.01 -0.1,0 0,0 c -0.6,0 -0.8,-0.45 -1.1,-1.05 l -11.3,-29.79 1.7,-0.4 0.8,2.14 0.1,-0.06 v -0.48 c -0.1,-0.11 -0.1,-0.16 -0.1,-0.46 0,-0.2 0,-2.09 0.7,-3.23 h -2.7 c 0.7,0.69 0.9,1.3 1.2,2.09 l -1.7,0.4 c -0.6,-1.6 -1.7,-2.35 -3,-2.49 -0.3,0 -1.1,-0.11 -1.1,-0.86 0,-0.89 0.8,-0.89 1.7,-0.89 h 8 c 0.9,0 1.7,0 1.7,0.89 0,0.75 -0.8,0.8 -1.1,0.86 -0.7,0.05 -1.9,0.25 -1.9,3.23 0,1.65 0.3,3.24 0.6,4.83 l 0.6,1.75 c 1.1,4.38 2.7,8.61 4.3,12.8 1.6,-3.33 4.6,-10.52 5.4,-12.8 h -9.7 l -0.6,-1.75 h 11 c 1.7,-4.87 1.8,-5.67 1.9,-6.72 l 1.1,-1.34 c 0.5,0.3 0.6,0.99 0.6,1.59 0,3.04 -4.3,13.14 -6.5,18.13 l -2.4,5.58 1.8,4.84 12.1,-27.56 c 0.2,-0.49 0.7,-1.69 1.4,-2.58 h -7 l -1.1,1.34 c -1.2,-1.2 -2.6,-1.29 -3.2,-1.34 -0.5,-0.06 -0.8,-0.41 -0.8,-0.86 0,-0.89 0.7,-0.89 1.6,-0.89 h 13 c 0.9,0 1.7,0 1.7,0.89 0,0.7 -0.6,0.8 -1.1,0.86 -1.1,0.19 -1.9,1.05 -2.9,3.28 z"
           id="path7590" /><path
           style="fill:#000000;stroke-width:0"
           inkscape:connector-curvature="0"
           d="m 1197,326.28 -0.1,-0.06 -0.1,-0.07 0,-0.07 -0.1,-0.07 -0.1,-0.08 -0.1,-0.08 -0.1,-0.09 -0.1,-0.08 -0.1,-0.09 -0.1,-0.09 -0.2,-0.19 -0.2,-0.2 -0.1,-0.2 -0.1,-0.11 -0.1,-0.1 -0.1,-0.1 -0.1,-0.1 -0.1,-0.11 -0.1,-0.1 0,-0.1 -0.1,-0.1 -0.1,-0.1 0,-0.1 0,-0.1 -0.1,-0.09 0,-0.09 0,-0.09 -0.1,-0.09 0,-0.09 c 0,-0.5 0.5,-1 1,-1 0.5,0 0.7,0.36 1,0.66 0.6,0.75 1.7,2.14 3.9,3.23 0.4,0.21 0.9,0.46 0.9,1.05 0,0.5 -0.4,0.75 -0.7,1 -1.1,0.75 -1.7,1.64 -2.1,2.83 -0.1,0.45 -0.3,1.11 -1,1.11 -0.7,0 -1,-0.66 -1,-1.05 0,-0.25 0.4,-1.84 1.2,-2.89 H 1181 c -0.8,0 -1.7,0 -1.7,-1 0,-1 0.9,-1 1.7,-1 z"
           id="path7592" /><path
           style="fill:#000000;stroke-width:0"
           inkscape:connector-curvature="0"
           d="m 1195.9,315.42 0,0.06 0,0.05 0,0.06 0,0.05 0,0.1 0,0.06 0,0.05 0.1,0.05 0,0.06 0,0.05 0,0.06 0,0.06 0,0.06 0,0.03 0,0.03 0,0.03 0,0.03 c 0,0.86 -0.6,1.36 -1.4,1.36 -0.5,0 -1.9,-0.36 -2.1,-2.15 -0.9,1.84 -2.6,3.14 -4.6,3.14 l 0,-1.1 c 3.3,0 4,-4.03 4,-4.28 0,-0.25 -0.1,-0.55 -0.1,-0.75 l -2.4,-9.51 c -0.3,-1.3 -1.5,-2.54 -2.6,-3.49 -1,-0.89 -2.6,-1.8 -4,-1.8 -2.5,0 -3.2,2.6 -3.2,4.58 0,2.41 1.4,8.28 2.8,10.81 1.3,2.46 3.4,4.44 5.5,4.44 l 0,1.1 c -5.7,0 -11.9,-6.97 -11.9,-14.14 0,-4.94 3.1,-7.88 6.7,-7.88 2.9,0 5.2,2.34 5.7,2.89 l 0.1,-0.05 c -1.1,-4.43 -1.7,-6.48 -1.7,-6.57 -0.2,-0.46 -1.9,-5.39 -7.1,-5.39 -1,0 -2.6,0.06 -4,0.5 1.5,0.45 2,1.75 2,2.59 0,0.8 -0.5,1.75 -1.9,1.75 -1.1,0 -2.7,-0.91 -2.7,-2.89 0,-2.05 1.9,-3.05 6.7,-3.05 6.2,0 9.8,3.89 10.5,6.88 z"
           id="path7594" /><path
           style="fill:#000000;stroke-width:0"
           inkscape:connector-curvature="0"
           d="m 1210.722,296.69 0,0.3 0,0.3 -0.1,0.29 0,0.28 0,0.27 -0.1,0.26 0,0.26 -0.1,0.25 0,0.23 -0.1,0.23 0,0.22 -0.1,0.21 -0.1,0.2 -0.1,0.2 -0.1,0.18 -0.1,0.17 -0.1,0.16 -0.1,0.16 -0.1,0.14 -0.1,0.13 -0.2,0.13 -0.1,0.11 -0.2,0.11 -0.1,0.09 -0.1,0.08 -0.2,0.07 -0.2,0.06 -0.1,0.05 -0.2,0.04 -0.2,0.03 -0.1,0.02 -0.2,0 c -1.7,0 -2.7,-1.25 -2.7,-2.64 0,-1.34 1,-2.64 2.7,-2.64 0.6,0 1.2,0.2 1.7,0.64 0.2,0.11 0.2,0.16 0.3,0.16 0,0 0.1,-0.05 0.1,-0.75 0,-3.69 -1.8,-6.67 -3.4,-8.31 -0.6,-0.55 -0.6,-0.66 -0.6,-0.8 0,-0.36 0.3,-0.55 0.5,-0.55 0.6,0 4.6,3.83 4.6,9.66 z"
           id="path7598" /><path
           style="fill:#000000;stroke-width:0"
           inkscape:connector-curvature="0"
           d="m 1260.122,338.76 -0.1,-0.06 -0.1,-0.07 0,-0.07 -0.1,-0.07 -0.1,-0.08 -0.1,-0.08 -0.1,-0.09 -0.1,-0.08 -0.1,-0.09 -0.1,-0.09 -0.2,-0.19 -0.2,-0.2 -0.2,-0.2 -0.1,-0.11 0,-0.1 -0.1,-0.1 -0.1,-0.1 -0.1,-0.11 -0.1,-0.1 0,-0.1 -0.1,-0.1 -0.1,-0.1 0,-0.1 -0.1,-0.1 0,-0.09 0,-0.09 -0.1,-0.09 0,-0.09 0,-0.09 c 0,-0.5 0.5,-1 1,-1 0.5,0 0.7,0.36 1,0.66 0.6,0.75 1.7,2.14 3.9,3.23 0.4,0.21 0.9,0.46 0.9,1.05 0,0.5 -0.4,0.75 -0.7,1 -1.1,0.75 -1.7,1.64 -2.1,2.83 -0.1,0.45 -0.3,1.11 -1,1.11 -0.7,0 -1,-0.66 -1,-1.05 0,-0.25 0.4,-1.84 1.2,-2.89 h -16.8 c -0.8,0 -1.7,0 -1.7,-1 0,-1 0.9,-1 1.7,-1 z"
           id="path7600" /><path
           style="fill:#000000;stroke-width:0"
           inkscape:connector-curvature="0"
           d="m 1268.322,324.89 0.3,0.41 0.2,0.39 0.2,0.38 0.3,0.37 0.1,0.18 0.1,0.17 0.2,0.17 0.1,0.17 0.2,0.16 0.1,0.15 0.2,0.15 0.1,0.14 0.2,0.14 0.1,0.14 0.2,0.12 0.2,0.12 0.2,0.12 0.2,0.1 0.2,0.1 0.2,0.1 0.2,0.08 0.2,0.08 0.3,0.07 0.2,0.06 0.3,0.05 0.2,0.05 0.3,0.04 0.3,0.02 c 0.5,0.05 1,0.05 1,1 0,0.19 -0.3,0.55 -0.7,0.55 -1.1,0 -2.5,-0.15 -3.8,-0.15 -1.7,0 -3.5,0.15 -5.2,0.15 -0.3,0 -0.9,0 -0.9,-0.95 0,-0.55 0.4,-0.6 0.7,-0.6 1.2,-0.04 3,-0.45 3,-1.93 0,-0.55 -0.3,-0.96 -0.7,-1.66 l -13.4,-23.45 -1.9,24.7 c 0,1 -0.1,2.3 3.5,2.34 0.9,0 1.4,0 1.4,1 0,0.5 -0.6,0.55 -0.8,0.55 -2,0 -4.1,-0.15 -6.1,-0.15 -1.1,0 -4,0.15 -5.2,0.15 -0.3,0 -0.9,0 -0.9,-1 0,-0.55 0.5,-0.55 1.2,-0.55 2.1,0 2.5,-0.29 2.6,-1.24 l 0.3,-3.83 -12.6,-21.97 -1.9,25.25 c 0,0.59 0,1.75 3.8,1.79 0.5,0 1,0 1,1 0,0.55 -0.6,0.55 -0.7,0.55 -2,0 -4.1,-0.15 -6.1,-0.15 -1.7,0 -3.5,0.15 -5.2,0.15 -0.3,0 -0.9,0 -0.9,-0.95 0,-0.6 0.4,-0.6 1.2,-0.6 2.5,0 2.6,-0.45 2.7,-1.84 l 2.2,-30.44 c 0.1,-0.9 0.1,-1.29 0.8,-1.29 0.6,0 0.7,0.29 1.2,1.04 l 14.7,25.41 1.8,-25.16 c 0.1,-1.04 0.2,-1.29 0.8,-1.29 0.6,0 0.9,0.5 1.2,0.93 z"
           id="path7602" /><path
           style="fill:#000000;stroke-width:0"
           inkscape:connector-curvature="0"
           d="m 1298.3885,308.25 0,0.03 0,0.02 0,0.03 0.1,0.03 0,0.02 0,0.02 0,0.03 0,0.02 0,0.02 0,0.02 0,0.03 0,0.02 0,0.04 0.1,0.03 0,0.04 0,0.03 0,0.03 0,0.03 0,0.03 0,0.02 0,0.03 0,0.02 0,0.02 0,0.02 0,0.02 0,0.02 0,0.02 0.1,0.02 0,0.01 0,0.02 0,0.01 0,0.01 0,0.03 0,0.03 0,0.02 c 0,0.16 0,0.25 -0.3,0.85 l -8.7,22.92 c -0.3,0.84 -0.6,1.14 -1.1,1.14 -0.6,0 -1,-0.44 -1,-0.98 0,-0.16 0,-0.25 0.2,-0.8 l 8.8,-23.13 -8.8,-23.01 c -0.2,-0.55 -0.2,-0.64 -0.2,-0.89 0,-0.55 0.4,-1 1,-1 0.6,0 0.8,0.5 1,1 z"
           id="path7606" /><path
           style="fill:#000000;stroke-width:0"
           inkscape:connector-curvature="0"
           d="m 1335.5885,308.09 h 13.9 c 0.6,0 1.6,0 1.6,1 0,1 -1,1 -1.6,1 h -13.9 v 13.96 c 0,0.68 0,1.64 -1,1.64 -1,0 -1,-0.96 -1,-1.64 v -13.96 h -14 c -0.7,0 -1.6,0 -1.6,-1 0,-1 0.9,-1 1.6,-1 h 14 v -13.93 c 0,-0.71 0,-1.66 1,-1.66 1,0 1,0.95 1,1.66 z"
           id="path7608" /><path
           style="fill:#000000;stroke-width:0"
           inkscape:connector-curvature="0"
           d="m 1381.3885,332.11 0.1,0.02 0,0.03 0,0.02 0,0.03 0,0.04 0,0.04 0,0.05 0.1,0.03 0,0.04 0,0.04 0,0.03 0,0.03 0,0.03 0,0.03 0,0.03 0,0.02 0.1,0.03 0,0.02 0,0.03 0,0.02 0,0.02 0,0.02 0,0.02 0,0.03 0,0.04 0,0.04 0,0.04 0,0.04 0,0.02 0,0.03 c 0,0.54 -0.5,0.98 -1,0.98 -0.5,0 -0.8,-0.25 -1.1,-1.14 l -8.8,-22.86 c -0.1,-0.31 -0.2,-0.61 -0.2,-0.91 0,-0.14 0,-0.25 0.2,-0.84 l 8.8,-22.87 c 0.1,-0.55 0.4,-1.19 1.1,-1.19 0.5,0 1,0.45 1,1 0,0.14 0,0.25 -0.3,0.79 l -8.8,23.11 z"
           id="path7610" /><path
           style="fill:#000000;stroke-width:0"
           inkscape:connector-curvature="0"
           d="m 1402.6885,330.62 0,0.08 -0.1,0.08 0,0.07 0,0.06 -0.1,0.07 0,0.06 0,0.06 0,0.05 -0.1,0.05 0,0.05 0,0.05 0,0.04 -0.1,0.04 0,0.04 0,0.04 0,0.03 -0.1,0.03 0,0.03 0,0.02 0,0.03 -0.1,0.02 0,0.02 0,0.01 -0.1,0.02 0,0.01 0,0.01 -0.1,0.01 0,0.01 -0.1,0 0,0.01 -0.1,0 0,0 c -0.6,0 -0.8,-0.45 -1.1,-1.05 l -11.3,-29.79 1.7,-0.4 0.8,2.14 0.1,-0.06 v -0.48 c -0.1,-0.11 -0.1,-0.16 -0.1,-0.46 0,-0.2 0,-2.09 0.7,-3.23 h -2.7 c 0.7,0.69 0.9,1.3 1.2,2.09 l -1.7,0.4 c -0.6,-1.6 -1.7,-2.35 -3,-2.49 -0.2,0 -1,-0.11 -1,-0.86 0,-0.89 0.8,-0.89 1.7,-0.89 h 7.9 c 0.9,0 1.7,0 1.7,0.89 0,0.75 -0.7,0.8 -1.1,0.86 -0.7,0.05 -1.9,0.25 -1.9,3.23 0,1.65 0.3,3.24 0.7,4.83 l 0.5,1.75 c 1.1,4.38 2.7,8.61 4.4,12.8 1.5,-3.33 4.5,-10.52 5.3,-12.8 h -9.7 l -0.5,-1.75 h 10.9 c 1.8,-4.87 1.8,-5.67 1.9,-6.72 l 1.1,-1.34 c 0.5,0.3 0.6,0.99 0.6,1.59 0,3.04 -4.3,13.14 -6.5,18.13 l -2.4,5.58 1.8,4.84 12.1,-27.56 c 0.2,-0.49 0.8,-1.69 1.5,-2.58 h -7.1 l -1.1,1.34 c -1.2,-1.2 -2.6,-1.29 -3.2,-1.34 -0.5,-0.06 -0.8,-0.41 -0.8,-0.86 0,-0.89 0.7,-0.89 1.6,-0.89 h 13 c 0.9,0 1.7,0 1.7,0.89 0,0.7 -0.6,0.8 -1.1,0.86 -1.1,0.19 -1.9,1.05 -2.9,3.28 z"
           id="path7612" /><path
           style="fill:#000000;stroke-width:0"
           inkscape:connector-curvature="0"
           d="m 1454.7885,338.76 0,-0.06 -0.1,-0.07 -0.1,-0.07 0,-0.07 -0.1,-0.08 -0.1,-0.08 -0.1,-0.09 -0.1,-0.08 -0.1,-0.09 -0.1,-0.09 -0.2,-0.19 -0.2,-0.2 -0.2,-0.2 -0.1,-0.11 -0.1,-0.1 0,-0.1 -0.1,-0.1 -0.1,-0.11 -0.1,-0.1 -0.1,-0.1 0,-0.1 -0.1,-0.1 0,-0.1 -0.1,-0.1 0,-0.09 0,-0.09 -0.1,-0.09 0,-0.09 0,-0.09 c 0,-0.5 0.5,-1 1,-1 0.5,0 0.7,0.36 1,0.66 0.6,0.75 1.7,2.14 3.9,3.23 0.3,0.21 0.8,0.46 0.8,1.05 0,0.5 -0.3,0.75 -0.7,1 -1.1,0.75 -1.6,1.64 -2,2.83 -0.1,0.45 -0.3,1.11 -1,1.11 -0.7,0 -1,-0.66 -1,-1.05 0,-0.25 0.4,-1.84 1.2,-2.89 h -16.8 c -0.8,0 -1.7,0 -1.7,-1 0,-1 0.9,-1 1.7,-1 z"
           id="path7614" /><path
           style="fill:#000000;stroke-width:0"
           inkscape:connector-curvature="0"
           d="m 1455.6885,308.25 0,0.02 0,0.03 0,0.05 0.1,0.05 0,0.05 0,0.05 0,0.05 0,0.05 0.1,0.05 0,0.03 0,0.02 0,0.03 0,0.02 0,0.02 0,0.02 0,0.02 0,0.02 0,0.02 0,0.02 0,0.02 0,0.01 0,0.02 0,0.01 0,0.01 0,0.01 c 0,0.05 0,0.55 -0.6,0.55 -0.4,0 -0.5,-0.3 -0.6,-0.61 -3.3,-7.37 -5.1,-10.7 -13.6,-10.7 h -7.3 c -0.7,0 -0.8,0 -1.1,0.04 -0.5,0.05 -0.6,0.1 -0.6,0.5 0,0.15 0,0.25 0.2,1.15 l 3.4,13.6 h 5 c 4.2,0 4.2,-1.04 4.2,-2.29 0,-0.35 0,-0.96 -0.4,-2.44 -0.1,-0.25 -0.1,-0.41 -0.1,-0.55 0,-0.25 0.2,-0.54 0.6,-0.54 0.4,0 0.6,0.25 0.8,0.98 l 2.8,11.67 c 0,0.3 -0.2,0.55 -0.6,0.55 -0.4,0 -0.5,-0.3 -0.7,-0.91 -1,-3.78 -1.9,-4.92 -6.5,-4.92 h -4.7 l 3,12 c 0.5,1.75 0.5,1.94 2.7,1.94 h 7 c 6.1,0 7.6,-1.44 7.6,-5.53 0,-1.19 0,-1.28 -0.2,-2.64 0,-0.3 -0.1,-0.64 -0.1,-0.89 0,-0.25 0.2,-0.6 0.6,-0.6 0.6,0 0.6,0.3 0.7,1.25 l 1,8.61 c 0.2,1.35 -0.1,1.35 -1.3,1.35 h -25.2 c -1,0 -1.5,0 -1.5,-1 0,-0.55 0.5,-0.55 1.4,-0.55 1.9,0 3.3,0 3.3,-0.89 0,-0.2 0,-0.3 -0.3,-1.2 l -6.5,-26.35 c -0.6,-1.95 -0.7,-2.34 -4.6,-2.34 -0.8,0 -1.4,0 -1.4,-0.96 0,-0.59 0.5,-0.59 1.4,-0.59 h 25.9 c 1.1,0 1.2,0.05 1.5,0.84 z"
           id="path7616" /><path
           style="fill:#000000;stroke-width:0"
           inkscape:connector-curvature="0"
           d="m 1472.6105,296.69 0,0.3 0,0.3 0,0.29 0,0.28 -0.1,0.27 0,0.26 -0.1,0.26 0,0.25 -0.1,0.23 0,0.23 -0.1,0.22 -0.1,0.21 -0.1,0.2 -0.1,0.2 0,0.18 -0.2,0.17 -0.1,0.16 -0.1,0.16 -0.1,0.14 -0.1,0.13 -0.1,0.13 -0.2,0.11 -0.1,0.11 -0.2,0.09 -0.1,0.08 -0.2,0.07 -0.1,0.06 -0.2,0.05 -0.1,0.04 -0.2,0.03 -0.2,0.02 -0.2,0 c -1.6,0 -2.6,-1.25 -2.6,-2.64 0,-1.34 1,-2.64 2.6,-2.64 0.6,0 1.3,0.2 1.8,0.64 0.1,0.11 0.2,0.16 0.2,0.16 0.1,0 0.1,-0.05 0.1,-0.75 0,-3.69 -1.7,-6.67 -3.4,-8.31 -0.5,-0.55 -0.5,-0.66 -0.5,-0.8 0,-0.36 0.2,-0.55 0.5,-0.55 0.5,0 4.5,3.83 4.5,9.66 z"
           id="path7620" /><path
           style="fill:#000000;stroke-width:0"
           inkscape:connector-curvature="0"
           d="m 1522.1105,338.76 0,-0.06 -0.1,-0.07 -0.1,-0.07 -0.1,-0.07 -0.1,-0.08 0,-0.08 -0.1,-0.09 -0.1,-0.08 -0.1,-0.09 -0.1,-0.09 -0.2,-0.19 -0.2,-0.2 -0.2,-0.2 -0.1,-0.11 -0.1,-0.1 -0.1,-0.1 -0.1,-0.1 0,-0.11 -0.1,-0.1 -0.1,-0.1 0,-0.1 -0.1,-0.1 -0.1,-0.1 0,-0.1 0,-0.09 -0.1,-0.09 0,-0.09 0,-0.09 0,-0.09 c 0,-0.5 0.5,-1 1,-1 0.4,0 0.7,0.36 0.9,0.66 0.6,0.75 1.8,2.14 4,3.23 0.3,0.21 0.8,0.46 0.8,1.05 0,0.5 -0.3,0.75 -0.7,1 -1.1,0.75 -1.6,1.64 -2,2.83 -0.1,0.45 -0.3,1.11 -1,1.11 -0.7,0 -1,-0.66 -1,-1.05 0,-0.25 0.4,-1.84 1.2,-2.89 h -16.8 c -0.9,0 -1.8,0 -1.8,-1 0,-1 0.9,-1 1.8,-1 z"
           id="path7622" /><path
           style="fill:#000000;stroke-width:0"
           inkscape:connector-curvature="0"
           d="m 1530.3105,324.89 0.2,0.41 0.2,0.39 0.3,0.38 0.2,0.37 0.2,0.18 0.1,0.17 0.1,0.17 0.2,0.17 0.1,0.16 0.1,0.15 0.2,0.15 0.1,0.14 0.2,0.14 0.2,0.14 0.1,0.12 0.2,0.12 0.2,0.12 0.2,0.1 0.2,0.1 0.2,0.1 0.2,0.08 0.3,0.08 0.2,0.07 0.3,0.06 0.2,0.05 0.3,0.05 0.3,0.04 0.2,0.02 c 0.5,0.05 1,0.05 1,1 0,0.19 -0.2,0.55 -0.6,0.55 -1.2,0 -2.6,-0.15 -3.8,-0.15 -1.7,0 -3.6,0.15 -5.2,0.15 -0.3,0 -1,0 -1,-0.95 0,-0.55 0.5,-0.6 0.8,-0.6 1.2,-0.04 2.9,-0.45 2.9,-1.93 0,-0.55 -0.2,-0.96 -0.6,-1.66 l -13.5,-23.45 -1.8,24.7 c -0.1,1 -0.2,2.3 3.5,2.34 0.8,0 1.3,0 1.3,1 0,0.5 -0.6,0.55 -0.7,0.55 -2,0 -4.1,-0.15 -6.1,-0.15 -1.2,0 -4.1,0.15 -5.3,0.15 -0.2,0 -0.9,0 -0.9,-1 0,-0.55 0.5,-0.55 1.2,-0.55 2.2,0 2.5,-0.29 2.6,-1.24 l 0.3,-3.83 -12.6,-21.97 -1.9,25.25 c 0,0.59 0,1.75 3.8,1.79 0.5,0 1.1,0 1.1,1 0,0.55 -0.6,0.55 -0.7,0.55 -2,0 -4.1,-0.15 -6.1,-0.15 -1.8,0 -3.6,0.15 -5.3,0.15 -0.2,0 -0.9,0 -0.9,-0.95 0,-0.6 0.5,-0.6 1.3,-0.6 2.5,0 2.5,-0.45 2.6,-1.84 l 2.3,-30.44 c 0,-0.9 0.1,-1.29 0.7,-1.29 0.6,0 0.8,0.29 1.2,1.04 l 14.7,25.41 1.8,-25.16 c 0.1,-1.04 0.2,-1.29 0.8,-1.29 0.7,0 1,0.5 1.2,0.93 z"
           id="path7624" /><path
           style="fill:#000000;stroke-width:0"
           inkscape:connector-curvature="0"
           d="m 1560.377,308.25 0,0.03 0,0.02 0,0.03 0,0.03 0,0.02 0,0.02 0,0.03 0,0.02 0.1,0.02 0,0.02 0,0.03 0,0.02 0,0.04 0,0.03 0,0.04 0,0.03 0,0.03 0,0.03 0.1,0.03 0,0.02 0,0.03 0,0.02 0,0.02 0,0.02 0,0.02 0,0.02 0,0.02 0,0.02 0,0.01 0,0.02 0,0.01 0,0.01 0,0.03 0,0.03 0,0.02 c 0,0.16 0,0.25 -0.2,0.85 l -8.8,22.92 c -0.3,0.84 -0.6,1.14 -1.1,1.14 -0.6,0 -1,-0.44 -1,-0.98 0,-0.16 0,-0.25 0.3,-0.8 l 8.8,-23.13 -8.8,-23.01 c -0.3,-0.55 -0.3,-0.64 -0.3,-0.89 0,-0.55 0.4,-1 1,-1 0.7,0 0.8,0.5 1,1 z"
           id="path7628" /></g>    </g>
    <g
       transform="translate(-22.109831,152.41935)"
       id="g9070">
      <g
         style="font-style:normal;font-variant:normal;font-weight:normal;font-stretch:normal;letter-spacing:normal;word-spacing:normal;text-anchor:start;fill:none;stroke:#000000;stroke-linecap:butt;stroke-linejoin:miter;stroke-miterlimit:10.43299961;stroke-opacity:1;stroke-dasharray:none;stroke-dashoffset:0"
         id="g9072"
         transform="matrix(1.0629921,0,0,-1.0629921,-328.88076,794.98594)"
         xml:space="preserve"
         stroke-miterlimit="10.433"
         font-style="normal"
         font-variant="normal"
         font-weight="normal"
         font-stretch="normal"
         font-size-adjust="none"
         letter-spacing="normal"
         word-spacing="normal"><path
           style="fill:#000000;stroke-width:0"
           inkscape:connector-curvature="0"
           d="m 497.85349,385.32181 -0.01,-0.07 -0.02,-0.08 -0.02,-0.07 -0.01,-0.08 -0.04,-0.16 -0.04,-0.16 -0.03,-0.16 -0.04,-0.16 -0.04,-0.16 -0.03,-0.16 -0.02,-0.08 -0.02,-0.07 -0.02,-0.07 -0.01,-0.07 -0.02,-0.07 -0.01,-0.07 -0.01,-0.06 -0.01,-0.06 -0.01,-0.05 -0.01,-0.06 -0.01,-0.04 -0.01,-0.05 -0.01,-0.04 0,-0.04 0,-0.03 0,-0.02 c 0,-0.89 0.7,-1.35 1.43,-1.35 0.61,0 1.5,0.39 1.85,1.39 0.06,0.11 0.65,2.44 0.95,3.69 l 1.1,4.49 c 0.29,1.09 0.59,2.18 0.84,3.34 0.2,0.84 0.61,2.28 0.66,2.48 0.75,1.55 3.38,6.08 8.1,6.08 2.25,0 2.71,-1.84 2.71,-3.48 0,-1.25 -0.36,-2.64 -0.75,-4.14 l -1.39,-5.78 -1,-3.78 c -0.21,-1 -0.66,-2.69 -0.66,-2.94 0,-0.89 0.7,-1.35 1.45,-1.35 1.55,0 1.85,1.25 2.24,2.85 0.7,2.78 2.55,10.06 3,12 0.14,0.65 2.78,6.62 8.22,6.62 2.14,0 2.68,-1.68 2.68,-3.48 0,-2.85 -2.09,-8.52 -3.09,-11.16 -0.45,-1.2 -0.64,-1.75 -0.64,-2.75 0,-2.33 1.73,-4.08 4.08,-4.08 4.68,0 6.53,7.27 6.53,7.68 0,0.5 -0.45,0.5 -0.6,0.5 -0.5,0 -0.5,-0.16 -0.75,-0.91 -0.75,-2.64 -2.34,-6.17 -5.07,-6.17 -0.86,0 -1.21,0.5 -1.21,1.64 0,1.25 0.46,2.45 0.9,3.55 0.95,2.57 3.04,8.1 3.04,10.95 0,3.23 -2,5.33 -5.73,5.33 -3.74,0 -6.27,-2.19 -8.11,-4.83 -0.07,0.65 -0.2,2.34 -1.61,3.53 -1.24,1.05 -2.83,1.3 -4.08,1.3 -4.48,0 -6.92,-3.19 -7.76,-4.33 -0.25,2.84 -2.35,4.33 -4.6,4.33 -2.28,0 -3.23,-1.94 -3.69,-2.83 -0.89,-1.75 -1.54,-4.69 -1.54,-4.85 0,-0.5 0.5,-0.5 0.61,-0.5 0.5,0 0.54,0.07 0.84,1.16 0.84,3.53 1.84,5.92 3.64,5.92 0.8,0 1.55,-0.39 1.55,-2.28 0,-1.05 -0.16,-1.61 -0.8,-4.19 z"
           id="path9074" /><path
           style="fill:#000000;stroke-width:0"
           inkscape:connector-curvature="0"
           d="m 561.91349,370.43181 -0.01,0.02 0,0.03 0,0.01 0,0.02 0,0.01 -0.01,0.02 0,0.02 -0.01,0.01 -0.01,0.02 -0.01,0.02 -0.01,0.02 -0.02,0.03 -0.01,0.02 -0.02,0.03 -0.02,0.03 -0.03,0.03 -0.02,0.04 -0.03,0.03 -0.02,0.02 -0.01,0.02 -0.02,0.02 -0.02,0.02 -0.02,0.02 -0.02,0.03 -0.02,0.02 -0.02,0.02 -0.02,0.03 -0.03,0.03 -0.02,0.02 -0.03,0.03 -0.02,0.03 -0.03,0.03 -0.03,0.03 -0.03,0.03 -0.03,0.03 -0.03,0.03 -0.04,0.04 -0.03,0.03 -0.04,0.04 -0.03,0.03 -0.04,0.04 -0.04,0.04 c -6.22,6.28 -7.81,15.69 -7.81,23.31 0,8.68 1.89,17.35 8.01,23.57 0.65,0.61 0.65,0.7 0.65,0.86 0,0.34 -0.19,0.48 -0.49,0.48 -0.5,0 -4.98,-3.38 -7.92,-9.7 -2.55,-5.49 -3.14,-11.02 -3.14,-15.21 0,-3.89 0.55,-9.9 3.28,-15.54 2.98,-6.13 7.28,-9.36 7.78,-9.36 0.3,0 0.49,0.14 0.49,0.5 z"
           id="path9076" /><path
           style="fill:#000000;stroke-width:0"
           inkscape:connector-curvature="0"
           d="m 610.54349,410.63181 0.24,0.41 0.23,0.39 0.24,0.38 0.25,0.37 0.13,0.18 0.13,0.17 0.13,0.17 0.14,0.17 0.14,0.16 0.15,0.15 0.15,0.15 0.16,0.14 0.16,0.14 0.16,0.14 0.18,0.12 0.18,0.12 0.19,0.12 0.19,0.1 0.2,0.1 0.21,0.1 0.22,0.08 0.23,0.08 0.24,0.07 0.24,0.06 0.26,0.05 0.27,0.05 0.27,0.04 0.29,0.02 c 0.46,0.05 0.96,0.05 0.96,1 0,0.19 -0.21,0.55 -0.61,0.55 -1.19,0 -2.58,-0.15 -3.83,-0.15 -1.7,0 -3.55,0.15 -5.19,0.15 -0.29,0 -0.94,0 -0.94,-0.95 0,-0.55 0.44,-0.6 0.74,-0.6 1.2,-0.04 2.95,-0.45 2.95,-1.93 0,-0.55 -0.25,-0.96 -0.66,-1.66 l -13.45,-23.45 -1.84,24.7 c -0.05,1 -0.14,2.3 3.48,2.34 0.86,0 1.36,0 1.36,1 0,0.5 -0.56,0.55 -0.75,0.55 -2,0 -4.09,-0.15 -6.08,-0.15 -1.15,0 -4.09,0.15 -5.23,0.15 -0.3,0 -0.95,0 -0.95,-1 0,-0.55 0.5,-0.55 1.2,-0.55 2.19,0 2.53,-0.29 2.64,-1.24 l 0.3,-3.83 -12.61,-21.97 -1.89,25.25 c 0,0.59 0,1.75 3.78,1.79 0.5,0 1.04,0 1.04,1 0,0.55 -0.59,0.55 -0.68,0.55 -2,0 -4.1,-0.15 -6.13,-0.15 -1.75,0 -3.54,0.15 -5.23,0.15 -0.25,0 -0.91,0 -0.91,-0.95 0,-0.6 0.45,-0.6 1.25,-0.6 2.5,0 2.55,-0.45 2.64,-1.84 l 2.25,-30.44 c 0.05,-0.9 0.1,-1.29 0.8,-1.29 0.59,0 0.73,0.29 1.19,1.04 l 14.65,25.41 1.85,-25.16 c 0.09,-1.04 0.19,-1.29 0.79,-1.29 0.65,0 0.94,0.5 1.19,0.93 z"
           id="path9078" /><path
           style="fill:#000000;stroke-width:0"
           inkscape:connector-curvature="0"
           d="m 618.87129,382.43181 -0.01,0.3 -0.01,0.3 -0.01,0.29 -0.03,0.28 -0.03,0.27 -0.04,0.26 -0.04,0.26 -0.06,0.25 -0.05,0.23 -0.07,0.23 -0.07,0.22 -0.08,0.21 -0.08,0.2 -0.09,0.2 -0.09,0.18 -0.1,0.17 -0.11,0.16 -0.11,0.16 -0.12,0.14 -0.12,0.13 -0.13,0.13 -0.13,0.11 -0.14,0.11 -0.15,0.09 -0.15,0.08 -0.15,0.07 -0.16,0.06 -0.16,0.05 -0.17,0.04 -0.17,0.03 -0.18,0.02 -0.18,0 c -1.64,0 -2.64,-1.25 -2.64,-2.64 0,-1.34 1,-2.64 2.64,-2.64 0.59,0 1.25,0.2 1.75,0.64 0.14,0.11 0.2,0.16 0.25,0.16 0.05,0 0.09,-0.05 0.09,-0.75 0,-3.69 -1.73,-6.67 -3.39,-8.31 -0.54,-0.55 -0.54,-0.66 -0.54,-0.8 0,-0.36 0.25,-0.55 0.5,-0.55 0.54,0 4.53,3.83 4.53,9.66 z"
           id="path9082" /><path
           style="fill:#000000;stroke-width:0"
           inkscape:connector-curvature="0"
           d="m 666.12129,393.99181 0.01,0.02 0.01,0.03 0.02,0.05 0.01,0.05 0.02,0.05 0.02,0.05 0.02,0.05 0.02,0.05 0.02,0.05 0.01,0.03 0.01,0.02 0.01,0.03 0,0.02 0.01,0.02 0.01,0.02 0,0.02 0.01,0.02 0,0.02 0.01,0.02 0,0.02 0.01,0.01 0,0.02 0,0.01 0,0.01 0,0.01 c 0,0.05 0,0.55 -0.59,0.55 -0.45,0 -0.55,-0.3 -0.64,-0.61 -3.25,-7.37 -5.08,-10.7 -13.61,-10.7 h -7.27 c -0.7,0 -0.79,0 -1.09,0.04 -0.5,0.05 -0.66,0.1 -0.66,0.5 0,0.15 0,0.25 0.25,1.15 l 3.39,13.6 h 4.94 c 4.24,0 4.24,-1.04 4.24,-2.29 0,-0.35 0,-0.96 -0.36,-2.44 -0.1,-0.25 -0.14,-0.41 -0.14,-0.55 0,-0.25 0.18,-0.54 0.64,-0.54 0.4,0 0.54,0.25 0.75,0.98 l 2.84,11.67 c 0,0.3 -0.25,0.55 -0.61,0.55 -0.44,0 -0.55,-0.3 -0.69,-0.91 -1.04,-3.78 -1.95,-4.92 -6.53,-4.92 h -4.69 l 3,12 c 0.44,1.75 0.5,1.94 2.69,1.94 h 7.02 c 6.08,0 7.58,-1.44 7.58,-5.53 0,-1.19 0,-1.28 -0.21,-2.64 0,-0.3 -0.04,-0.64 -0.04,-0.89 0,-0.25 0.15,-0.6 0.59,-0.6 0.56,0 0.61,0.3 0.7,1.25 l 1,8.61 c 0.14,1.35 -0.09,1.35 -1.34,1.35 h -25.16 c -1,0 -1.5,0 -1.5,-1 0,-0.55 0.46,-0.55 1.39,-0.55 1.85,0 3.24,0 3.24,-0.89 0,-0.2 0,-0.3 -0.25,-1.2 l -6.57,-26.35 c -0.5,-1.95 -0.6,-2.34 -4.54,-2.34 -0.85,0 -1.39,0 -1.39,-0.96 0,-0.59 0.45,-0.59 1.39,-0.59 h 25.86 c 1.15,0 1.2,0.05 1.54,0.84 z"
           id="path9084" /><path
           style="fill:#000000;stroke-width:0"
           inkscape:connector-curvature="0"
           d="m 690.20797,394.83181 0,0.37 0,0.39 0,0.39 0,0.41 -0.1,0.84 0,0.88 -0.1,0.92 -0.1,0.95 -0.1,0.98 -0.2,1 -0.2,1.02 -0.2,1.04 -0.3,1.05 -0.3,1.06 -0.4,1.06 -0.3,1.07 -0.3,0.53 -0.2,0.53 -0.2,0.53 -0.3,0.53 c -3,6.13 -7.2,9.36 -7.7,9.36 -0.3,0 -0.5,-0.19 -0.5,-0.48 0,-0.16 0,-0.25 0.9,-1.16 4.9,-4.92 7.7,-12.84 7.7,-23.27 0,-8.51 -1.8,-17.28 -8,-23.56 -0.6,-0.59 -0.6,-0.7 -0.6,-0.84 0,-0.3 0.2,-0.5 0.5,-0.5 0.5,0 4.9,3.39 7.9,9.72 2.5,5.47 3.1,11 3.1,15.18 z"
           id="path9088" /><path
           style="fill:#000000;stroke-width:0"
           inkscape:connector-curvature="0"
           d="m 743.30797,398.68181 0.1,0 0.2,0 0.1,0 0.1,0.01 0.1,0 0,0.01 0.1,0.01 0.1,0.01 0,0.01 0.1,0.01 0.1,0.02 0,0.02 0.1,0.02 0.1,0.03 0,0.02 0.1,0.03 0,0.04 0.1,0.04 0,0.04 0.1,0.04 0,0.05 0,0.03 0.1,0.03 0,0.03 0,0.03 0,0.03 0,0.03 0,0.03 0,0.04 0,0.03 0.1,0.04 0,0.04 0,0.04 0,0.04 0,0.04 0,0.05 0,0.04 c 0,1 -1,1 -1.7,1 h -29.8 c -0.7,0 -1.6,0 -1.6,-1 0,-0.98 0.9,-0.98 1.6,-0.98 z"
           id="path9090" /><path
           style="fill:#000000;stroke-width:0"
           inkscape:connector-curvature="0"
           d="m 743.30797,389.01181 0.1,0 0.1,0 0.1,0 0.1,0 0.1,0.01 0.1,0 0.1,0.01 0,0.01 0.1,0.01 0.1,0.01 0,0.01 0.1,0.02 0.1,0.02 0,0.02 0.1,0.03 0,0.02 0.1,0.04 0,0.03 0.1,0.04 0,0.04 0.1,0.05 0,0.02 0,0.03 0,0.02 0.1,0.03 0,0.03 0,0.03 0,0.03 0,0.04 0,0.03 0,0.04 0,0.03 0.1,0.04 0,0.04 0,0.04 0,0.04 0,0.05 0,0.04 0,0.05 c 0,1 -1,1 -1.7,1 h -29.8 c -0.7,0 -1.6,0 -1.6,-1 0,-1 0.9,-1 1.6,-1 z"
           id="path9092" /><path
           style="fill:#000000;stroke-width:0"
           inkscape:connector-curvature="0"
           d="m 775.062,416.90152 0,0.02 0,0.03 0,0.02 0,0.03 0,0.04 0.1,0.04 0,0.05 0,0.03 0,0.04 0,0.04 0,0.03 0,0.03 0.1,0.03 0,0.03 0,0.03 0,0.02 0,0.03 0,0.02 0,0.03 0,0.02 0,0.02 0,0.02 0,0.02 0,0.03 0,0.04 0,0.04 0,0.04 0,0.04 0,0.02 0,0.03 c 0,0.54 -0.4,0.98 -1,0.98 -0.4,0 -0.8,-0.25 -1.1,-1.14 l -8.7,-22.86 c -0.1,-0.31 -0.3,-0.61 -0.3,-0.91 0,-0.14 0,-0.25 0.3,-0.84 l 8.7,-22.87 c 0.2,-0.55 0.4,-1.19 1.1,-1.19 0.6,0 1,0.45 1,1 0,0.14 0,0.25 -0.2,0.79 l -8.8,23.11 z"
           id="path9118" /><path
           style="fill:#000000;stroke-width:0"
           inkscape:connector-curvature="0"
           d="m 801.262,391.90152 -9.6,22.66 c -0.4,1 -0.4,1 -1.7,1 l 0.2,-1.74 9.6,-22.83 c 0.4,-0.84 0.4,-0.89 1,-1.09 l -2.2,-5.28 h -0.1 l -11.3,27.11 c -0.3,0.64 -0.7,1.48 -1.4,2.09 h 4.4 l -0.2,1.74 h -9.3 c -0.9,0 -1.6,0 -1.6,-0.89 0,-0.85 0.8,-0.85 1.1,-0.85 0.6,0 1.9,-0.11 3,-0.5 v -26.61 c 0,-1.04 0,-3.23 -3.4,-3.53 -0.9,-0.11 -0.9,-0.8 -0.9,-0.86 0,-0.89 0.8,-0.89 1.7,-0.89 h 7.7 c 0.9,0 1.7,0 1.7,0.89 0,0.45 -0.4,0.8 -0.8,0.86 -3.9,0.3 -3.9,2.39 -3.9,3.53 l -1,-2.98 0.4,-0.55 h -0.8 c 0.1,0.14 0.2,0.3 0.3,0.39 0,0.05 0,0.1 0.1,0.16 l 1,2.98 v 24.81 l 0.1,0.05 12.1,-29.09 c 0.4,-0.89 0.8,-1.05 1.1,-1.05 0.6,0 0.7,0.41 1,1 l 12.2,29.14 0,-0.05 v -24.81 l 1.8,-0.09 v 27.2 h 5.2 c -1.1,-1.25 -1.1,-2.55 -1.1,-3.44 v -23.76 c 0,-0.91 0,-2.21 1.2,-3.44 h -6.4 c 1.1,1.23 1.1,2.53 1.1,3.44 l -1.8,0.09 c 0,-1.04 0,-3.23 -3.4,-3.53 -0.9,-0.11 -0.9,-0.8 -0.9,-0.86 0,-0.89 0.8,-0.89 1.7,-0.89 h 13.3 c 0.9,0 1.6,0 1.6,0.89 0,0.45 -0.4,0.8 -0.8,0.86 -3.8,0.3 -3.8,2.39 -3.8,3.53 v 23.56 c 0,1.05 0,3.24 3.4,3.55 0.5,0.05 0.9,0.3 0.9,0.85 0,0.89 -0.7,0.89 -1.6,0.89 h -9.6 c -1.3,0 -1.4,0 -1.9,-1.05 z"
           id="path9120" /><path
           style="fill:#000000;stroke-width:0"
           inkscape:connector-curvature="0"
           d="m 862.08412,423.55152 0,-0.06 -0.1,-0.07 -0.1,-0.07 -0.1,-0.07 -0.1,-0.08 0,-0.08 -0.1,-0.09 -0.1,-0.08 -0.1,-0.09 -0.1,-0.09 -0.2,-0.19 -0.2,-0.2 -0.19998,-0.2 -0.1,-0.11 -0.1,-0.1 -0.1,-0.1 -0.1,-0.1 0,-0.11 -0.1,-0.1 -0.1,-0.1 0,-0.1 -0.1,-0.1 -0.1,-0.1 0,-0.1 0,-0.09 -0.1,-0.09 0,-0.09 0,-0.09 0,-0.09 c 0,-0.5 0.5,-1 0.99998,-1 0.4,0 0.7,0.36 0.9,0.66 0.6,0.75 1.79998,2.14 3.99996,3.23 0.3,0.21 0.79998,0.46 0.79998,1.05 0,0.5 -0.29998,0.75 -0.69998,1 -1.1,0.75 -1.59998,1.64 -1.99998,2.83 -0.1,0.45 -0.3,1.11 -1,1.11 -0.69998,0 -0.99998,-0.66 -0.99998,-1.05 0,-0.25 0.4,-1.84 1.19998,-2.89 h -16.79986 c -0.9,0 -1.8,0 -1.8,-1 0,-1 0.9,-1 1.8,-1 z"
           id="path9124" /><path
           style="fill:#000000;stroke-width:0"
           inkscape:connector-curvature="0"
           d="m 862.9841,393.04152 0,0.02 0,0.03 0,0.05 0,0.05 0.1,0.05 0,0.05 0,0.05 0,0.05 0,0.05 0,0.03 0.1,0.02 0,0.03 0,0.02 0,0.02 0,0.02 0,0.02 0,0.02 0,0.02 0,0.02 0,0.02 0,0.01 0,0.02 0,0.01 0,0.01 0,0.01 c 0,0.05 0,0.55 -0.59998,0.55 -0.4,0 -0.5,-0.3 -0.6,-0.61 -3.29996,-7.37 -5.09994,-10.7 -13.59988,-10.7 h -7.3 c -0.7,0 -0.8,0 -1.1,0.04 -0.5,0.05 -0.6,0.1 -0.6,0.5 0,0.15 0,0.25 0.2,1.15 l 3.4,13.6 h 4.9 c 4.3,0 4.3,-1.04 4.3,-2.29 0,-0.35 0,-0.96 -0.4,-2.44 -0.1,-0.25 -0.1,-0.41 -0.1,-0.55 0,-0.25 0.2,-0.54 0.6,-0.54 0.4,0 0.6,0.25 0.8,0.98 l 2.79994,11.67 c 0,0.3 -0.2,0.55 -0.6,0.55 -0.39998,0 -0.59998,-0.3 -0.69998,-0.91 -1,-3.78 -1.89996,-4.92 -6.49996,-4.92 h -4.7 l 3,12 c 0.4,1.75 0.5,1.94 2.7,1.94 h 6.99994 c 6.09994,0 7.59992,-1.44 7.59992,-5.53 0,-1.19 0,-1.28 -0.2,-2.64 0,-0.3 -0.1,-0.64 -0.1,-0.89 0,-0.25 0.2,-0.6 0.6,-0.6 0.59998,0 0.59998,0.3 0.69998,1.25 l 1,8.61 c 0.2,1.35 -0.1,1.35 -1.29998,1.35 h -25.19986 c -1,0 -1.5,0 -1.5,-1 0,-0.55 0.5,-0.55 1.4,-0.55 1.9,0 3.2,0 3.2,-0.89 0,-0.2 0,-0.3 -0.2,-1.2 l -6.6,-26.35 c -0.5,-1.95 -0.6,-2.34 -4.5,-2.34 -0.9,0 -1.4,0 -1.4,-0.96 0,-0.59 0.4,-0.59 1.4,-0.59 h 25.79994 c 1.19998,0 1.19998,0.05 1.59998,0.84 z"
           id="path9126" /><path
           style="fill:#000000;stroke-width:0"
           inkscape:connector-curvature="0"
           d="m 874.26148,381.48152 0,0.3 0,0.3 0,0.29 -0.1,0.28 0,0.27 0,0.26 -0.1,0.26 0,0.25 -0.1,0.23 -0.1,0.23 0,0.22 -0.1,0.21 -0.1,0.2 -0.1,0.2 -0.1,0.18 -0.1,0.17 -0.1,0.16 -0.1,0.16 -0.1,0.14 -0.1,0.13 -0.2,0.13 -0.1,0.11 -0.1,0.11 -0.2,0.09 -0.1,0.08 -0.2,0.07 -0.1,0.06 -0.2,0.05 -0.2,0.04 -0.1,0.03 -0.2,0.02 -0.2,0 c -1.59998,0 -2.59998,-1.25 -2.59998,-2.64 0,-1.34 1,-2.64 2.59998,-2.64 0.6,0 1.29998,0.2 1.79998,0.64 0.1,0.11 0.2,0.16 0.2,0.16 0,0 0.1,-0.05 0.1,-0.75 0,-3.69 -1.69998,-6.67 -3.39996,-8.31 -0.5,-0.55 -0.5,-0.66 -0.5,-0.8 0,-0.36 0.2,-0.55 0.5,-0.55 0.49998,0 4.49996,3.83 4.49996,9.66 z"
           id="path9130" /><path
           style="fill:#000000;stroke-width:0"
           inkscape:connector-curvature="0"
           d="m 921.87948,423.55152 -0.1,-0.06 0,-0.07 -0.1,-0.07 -0.1,-0.07 -0.1,-0.08 -0.1,-0.08 -0.1,-0.09 0,-0.08 -0.1,-0.09 -0.1,-0.09 -0.19998,-0.19 -0.2,-0.2 -0.2,-0.2 -0.1,-0.11 -0.1,-0.1 -0.1,-0.1 -0.1,-0.1 -0.1,-0.11 0,-0.1 -0.1,-0.1 -0.1,-0.1 0,-0.1 -0.1,-0.1 0,-0.1 -0.1,-0.09 0,-0.09 0,-0.09 0,-0.09 0,-0.09 c 0,-0.5 0.5,-1 1,-1 0.39998,0 0.69998,0.36 0.89998,0.66 0.6,0.75 1.7,2.14 4,3.23 0.3,0.21 0.8,0.46 0.8,1.05 0,0.5 -0.3,0.75 -0.7,1 -1.1,0.75 -1.6,1.64 -2,2.83 -0.1,0.45 -0.4,1.11 -1,1.11 -0.7,0 -1,-0.66 -1,-1.05 0,-0.25 0.4,-1.84 1.1,-2.89 h -16.69984 c -0.89998,0 -1.79998,0 -1.79998,-1 0,-1 0.9,-1 1.79998,-1 z"
           id="path9132" /><path
           style="fill:#000000;stroke-width:0"
           inkscape:connector-curvature="0"
           d="m 929.97948,409.68152 0.3,0.41 0.2,0.39 0.3,0.38 0.2,0.37 0.1,0.18 0.2,0.17 0.1,0.17 0.1,0.17 0.2,0.16 0.1,0.15 0.2,0.15 0.1,0.14 0.2,0.14 0.2,0.14 0.1,0.12 0.2,0.12 0.2,0.12 0.2,0.1 0.2,0.1 0.2,0.1 0.2,0.08 0.2,0.08 0.3,0.07 0.2,0.06 0.3,0.05 0.3,0.05 0.2,0.04 0.3,0.02 c 0.5,0.05 1,0.05 1,1 0,0.19 -0.2,0.55 -0.6,0.55 -1.2,0 -2.6,-0.15 -3.9,-0.15 -1.7,0 -3.5,0.15 -5.1,0.15 -0.3,0 -1,0 -1,-0.95 0,-0.55 0.5,-0.6 0.7,-0.6 1.3,-0.04 3,-0.45 3,-1.93 0,-0.55 -0.2,-0.96 -0.7,-1.66 l -13.39994,-23.45 -1.89998,24.7 c 0,1 -0.1,2.3 3.49998,2.34 0.89998,0 1.39998,0 1.39998,1 0,0.5 -0.6,0.55 -0.8,0.55 -1.99998,0 -4.09996,-0.15 -5.99994,-0.15 -1.19998,0 -4.09994,0.15 -5.29994,0.15 -0.3,0 -0.89998,0 -0.89998,-1 0,-0.55 0.49998,-0.55 1.19998,-0.55 2.19998,0 2.49998,-0.29 2.59998,-1.24 l 0.3,-3.83 -12.59988,-21.97 -1.89998,25.25 c 0,0.59 0,1.75 3.79996,1.79 0.5,0 1,0 1,1 0,0.55 -0.5,0.55 -0.6,0.55 -1.99998,0 -4.09996,-0.15 -6.19994,-0.15 -1.69998,0 -3.49996,0.15 -5.19994,0.15 -0.3,0 -0.89998,0 -0.89998,-0.95 0,-0.6 0.49998,-0.6 1.19998,-0.6 2.49998,0 2.59996,-0.45 2.69996,-1.84 l 2.19998,-30.44 c 0.1,-0.9 0.1,-1.29 0.8,-1.29 0.6,0 0.79998,0.29 1.19998,1.04 l 14.69984,25.41 1.79998,-25.16 c 0.1,-1.04 0.2,-1.29 0.8,-1.29 0.7,0 0.99998,0.5 1.19998,0.93 z"
           id="path9134" /><path
           style="fill:#000000;stroke-width:0"
           inkscape:connector-curvature="0"
           d="m 958.16448,393.04152 0,0.03 0.1,0.02 0,0.03 0,0.03 0,0.02 0,0.02 0,0.03 0,0.02 0,0.02 0,0.02 0,0.03 0,0.02 0.1,0.04 0,0.03 0,0.04 0,0.03 0,0.03 0,0.03 0,0.03 0,0.02 0,0.03 0,0.02 0.1,0.02 0,0.02 0,0.02 0,0.02 0,0.02 0,0.02 0,0.01 0,0.02 0,0.01 0,0.01 0,0.03 0,0.03 0,0.02 c 0,0.16 0,0.25 -0.3,0.85 l -8.7,22.92 c -0.3,0.84 -0.6,1.14 -1.1,1.14 -0.6,0 -1,-0.44 -1,-0.98 0,-0.16 0,-0.25 0.2,-0.8 l 8.8,-23.13 -8.8,-23.01 c -0.2,-0.55 -0.2,-0.64 -0.2,-0.89 0,-0.55 0.4,-1 1,-1 0.6,0 0.8,0.5 1,1 z"
           id="path9138" /></g>    </g>
    <path
       id="path10108"
       d="m 880.42307,520.39363 0,-0.0213 0,-0.0213 0,-0.0213 0,-0.0213 -0.011,-0.0213 0,-0.0213 -0.011,-0.0213 0,-0.0213 -0.011,-0.0213 -0.011,-0.0319 -0.011,-0.0213 -0.011,-0.0213 -0.011,-0.0213 -0.011,-0.0213 -0.021,-0.0213 -0.011,-0.0213 -0.021,-0.0106 -0.011,-0.0213 -0.021,-0.0213 -0.021,-0.0213 -0.021,-0.0106 -0.021,-0.0106 -0.021,-0.0213 -0.032,-0.0106 -0.021,-0.0106 -0.032,-0.0106 -0.021,-0.0106 -0.032,-0.0106 -0.032,0 -0.032,-0.0106 -0.032,0 -0.021,0 -0.021,0 c -0.574,0 -2.6893,2.10472 -3.5823,3.65669 -1.1799,-2.85945 -3.2421,-3.70984 -4.9322,-3.70984 v 1.16929 c 3.4334,0 4.1881,4.28386 4.1881,4.64528 0,0.32952 -2.9126,11.92677 -3.0826,12.13937 -0.7973,1.47756 -3.7524,4.8685 -6.7181,4.8685 h 0 c -3.1784,0 -3.391,-4.08189 -3.391,-4.98543 0,-2.54055 1.5307,-8.30197 2.4449,-10.52362 1.6264,-3.92245 4.3795,-6.1441 6.5587,-6.1441 v -1.16929 c -6.2504,0 -12.7559,7.84489 -12.7559,15.51969 0,5.17678 3.1252,8.47205 6.9732,8.47205 2.296,0 4.3583,-1.26497 6.261,-3.17834 -0.4783,1.8496 -2.2216,9.00354 -2.3917,9.48188 -0.4146,1.47756 -0.8398,1.7008 -3.8055,1.74331 -0.691,0 -1.2225,0 -1.2225,1.06299 0,0.0531 0,0.58464 0.691,0.58464 1.7008,0 3.5397,-0.17008 5.3043,-0.17008 1.7858,0 3.6992,0.17008 5.4425,0.17008 0.2658,0 0.9461,0 0.9461,-1.06298 0,-0.58465 -0.5103,-0.58465 -1.3606,-0.58465 -2.5512,0 -2.5512,-0.38268 -2.5512,-0.83977 0,-0.38268 0.1063,-0.70156 0.2126,-1.16929 z"
       inkscape:connector-curvature="0"
       style="font-style:normal;font-variant:normal;font-weight:normal;font-stretch:normal;letter-spacing:normal;word-spacing:normal;text-anchor:start;fill:#000000;stroke:#000000;stroke-width:0;stroke-linecap:butt;stroke-linejoin:miter;stroke-miterlimit:10.43299961;stroke-opacity:1;stroke-dasharray:none;stroke-dashoffset:0" />
    <path
       id="path10110"
       d="m 899.52507,555.91883 0,-0.0213 0,-0.0319 0,-0.0106 0,-0.0213 -0.011,-0.0106 0,-0.0213 -0.011,-0.0213 0,-0.0106 -0.011,-0.0213 -0.011,-0.0213 -0.011,-0.0319 -0.021,-0.0213 -0.011,-0.0213 -0.021,-0.0319 -0.021,-0.0319 -0.032,-0.0319 -0.021,-0.0425 -0.032,-0.0319 -0.021,-0.0213 -0.021,-0.0213 -0.011,-0.0213 -0.021,-0.0213 -0.021,-0.0213 -0.021,-0.0319 -0.021,-0.0213 -0.021,-0.0213 -0.032,-0.0319 -0.021,-0.0319 -0.021,-0.0213 -0.032,-0.0319 -0.032,-0.0319 -0.021,-0.0319 -0.032,-0.0319 -0.032,-0.0319 -0.032,-0.0319 -0.043,-0.0319 -0.032,-0.0425 -0.032,-0.0319 -0.042,-0.0425 -0.032,-0.0425 -0.043,-0.0319 -0.043,-0.0425 c -6.6118,-6.6756 -8.302,-16.67835 -8.302,-24.77835 0,-9.22677 2.0091,-18.44291 8.5146,-25.05472 0.6803,-0.64843 0.6803,-0.7441 0.6803,-0.91418 0,-0.36142 -0.202,-0.51023 -0.5103,-0.51023 -0.5314,0 -5.3043,3.58228 -8.4188,10.31102 -2.7107,5.83583 -3.3378,11.71417 -3.3378,16.16811 0,4.13504 0.574,10.52362 3.4866,16.5189 3.1677,6.51614 7.7386,9.9496 8.27,9.9496 0.3083,0 0.5103,-0.14882 0.5103,-0.53149 z"
       inkscape:connector-curvature="0"
       style="font-style:normal;font-variant:normal;font-weight:normal;font-stretch:normal;letter-spacing:normal;word-spacing:normal;text-anchor:start;fill:#000000;stroke:#000000;stroke-width:0;stroke-linecap:butt;stroke-linejoin:miter;stroke-miterlimit:10.43299961;stroke-opacity:1;stroke-dasharray:none;stroke-dashoffset:0" />
    <path
       id="path10112"
       d="m 951.14397,513.18655 0.2126,-0.43582 0.2126,-0.41457 0.3189,-0.40394 0.2126,-0.3933 0.1063,-0.19135 0.2126,-0.1807 0.1063,-0.18072 0.1063,-0.18071 0.2126,-0.17007 0.1063,-0.15945 0.2126,-0.15944 0.1063,-0.15946 0.2126,-0.13819 0.2126,-0.14882 0.1063,-0.12756 0.2126,-0.12756 0.2126,-0.12756 0.2126,-0.1063 0.2126,-0.1063 0.2126,-0.10631 0.2126,-0.085 0.3189,-0.085 0.2126,-0.0744 0.2126,-0.0638 0.3189,-0.0638 0.3188,-0.0425 0.3189,-0.0425 0.2126,-0.0319 c 0.5315,-0.0425 1.063,-0.0425 1.063,-1.06299 0,-0.19134 -0.2126,-0.57401 -0.6378,-0.57401 -1.2755,0 -2.7637,0.15944 -4.0393,0.15944 -1.8071,0 -3.8268,-0.15944 -5.5276,-0.15944 -0.3189,0 -1.063,0 -1.063,1.00984 0,0.58464 0.5315,0.62716 0.8504,0.62716 1.2756,0.0531 3.0827,0.48898 3.0827,2.06221 0,0.58464 -0.2126,1.00984 -0.6378,1.76456 l -14.3398,24.92717 -1.9559,-26.2559 c -0.053,-1.06299 -0.1594,-2.44487 3.6992,-2.49803 0.9142,0 1.4457,0 1.4457,-1.063 0,-0.53149 -0.5953,-0.57401 -0.7972,-0.57401 -2.126,0 -4.3477,0.15945 -6.463,0.15945 -1.2331,0 -4.3477,-0.15945 -5.5595,-0.15945 -0.3189,0 -1.0204,0 -1.0204,1.06299 0,0.57402 0.5314,0.57402 1.2862,0.57402 2.3173,0 2.6893,0.3189 2.8063,1.32874 l 0.3082,4.07126 -13.4043,23.35393 -2.009,-26.84054 c 0,-0.62717 0,-1.86023 4.0287,-1.91339 0.5315,0 1.1055,0 1.1055,-1.063 0,-0.57401 -0.6272,-0.57401 -0.7228,-0.57401 -2.126,0 -4.3583,0.15945 -6.5162,0.15945 -1.8602,0 -3.7736,-0.15945 -5.5594,-0.15945 -0.2658,0 -0.9673,0 -0.9673,1.00985 0,0.62716 0.4783,0.62716 1.3287,0.62716 2.6575,0 2.7106,0.48897 2.8063,1.96653 l 2.3917,32.35748 c 0.053,0.9567 0.096,1.37127 0.8504,1.37127 0.6272,0 0.776,-0.30828 1.2544,-1.10552 l 15.5834,-27.01062 1.9559,26.74487 c 0.1063,1.10552 0.202,1.37127 0.8504,1.37127 0.6803,0 0.9992,-0.53149 1.265,-0.99922 z"
       inkscape:connector-curvature="0"
       style="font-style:normal;font-variant:normal;font-weight:normal;font-stretch:normal;letter-spacing:normal;word-spacing:normal;text-anchor:start;fill:#000000;stroke:#000000;stroke-width:0;stroke-linecap:butt;stroke-linejoin:miter;stroke-miterlimit:10.43299961;stroke-opacity:1;stroke-dasharray:none;stroke-dashoffset:0" />
    <path
       id="path10116"
       d="m 994.62037,529.98183 0,-0.40394 0,-0.40394 0,-0.41456 0,-0.43584 -0.1063,-0.8929 0,-0.93544 -0.1063,-0.97796 -0.1063,-1.00984 -0.1063,-1.04173 -0.2126,-1.063 -0.2126,-1.08425 -0.2126,-1.10551 -0.3189,-1.11613 -0.3189,-1.12678 -0.4252,-1.12677 -0.3189,-1.1374 -0.3189,-0.56339 -0.2126,-0.56339 -0.2126,-0.56338 -0.3189,-0.56338 c -3.189,-6.51615 -7.6536,-9.9496 -8.185,-9.9496 -0.3189,0 -0.5315,0.20195 -0.5315,0.51023 0,0.17007 0,0.26575 0.9566,1.23307 5.2087,5.22992 8.1851,13.64881 8.1851,24.73583 0,9.04606 -1.9134,18.36849 -8.5039,25.04409 -0.6378,0.62716 -0.6378,0.74409 -0.6378,0.89291 0,0.3189 0.2126,0.53149 0.5315,0.53149 0.5314,0 5.2086,-3.60353 8.3976,-10.33227 2.6575,-5.81458 3.2953,-11.69291 3.2953,-16.13622 z"
       inkscape:connector-curvature="0"
       style="font-style:normal;font-variant:normal;font-weight:normal;font-stretch:normal;letter-spacing:normal;word-spacing:normal;text-anchor:start;fill:#000000;stroke:#000000;stroke-width:0;stroke-linecap:butt;stroke-linejoin:miter;stroke-miterlimit:10.43299961;stroke-opacity:1;stroke-dasharray:none;stroke-dashoffset:0" />
    <path
       id="path10118"
       d="m 1051.0652,525.8893 0.1063,0 0.2126,0 0.1063,0 0.1063,-0.0106 0.1063,0 0,-0.0106 0.1063,-0.0106 0.1063,-0.0106 0,-0.0106 0.1063,-0.0106 0.1063,-0.0213 0,-0.0213 0.1063,-0.0213 0.1063,-0.0319 0,-0.0213 0.1063,-0.0319 0,-0.0425 0.1063,-0.0425 0,-0.0425 0.1063,-0.0425 0,-0.0531 0,-0.0319 0.1063,-0.0319 0,-0.0319 0,-0.0319 0,-0.0319 0,-0.0319 0,-0.0319 0,-0.0425 0,-0.0319 0.1063,-0.0425 0,-0.0425 0,-0.0425 0,-0.0425 0,-0.0425 0,-0.0531 0,-0.0425 c 0,-1.06299 -1.063,-1.06299 -1.8071,-1.06299 h -31.6771 c -0.7441,0 -1.7008,0 -1.7008,1.06299 0,1.04173 0.9567,1.04173 1.7008,1.04173 z"
       inkscape:connector-curvature="0"
       style="font-style:normal;font-variant:normal;font-weight:normal;font-stretch:normal;letter-spacing:normal;word-spacing:normal;text-anchor:start;fill:#000000;stroke:#000000;stroke-width:0;stroke-linecap:butt;stroke-linejoin:miter;stroke-miterlimit:10.43299961;stroke-opacity:1;stroke-dasharray:none;stroke-dashoffset:0" />
    <path
       id="path10120"
       d="m 1051.0652,536.16844 0.1063,0 0.1063,0 0.1063,0 0.1063,0 0.1063,-0.0106 0.1063,0 0.1063,-0.0106 0,-0.0106 0.1063,-0.0106 0.1063,-0.0106 0,-0.0106 0.1063,-0.0213 0.1063,-0.0213 0,-0.0213 0.1063,-0.0319 0,-0.0213 0.1063,-0.0425 0,-0.0319 0.1063,-0.0425 0,-0.0425 0.1063,-0.0531 0,-0.0213 0,-0.0319 0,-0.0319 0.1063,-0.0213 0,-0.0319 0,-0.0319 0,-0.0319 0,-0.0425 0,-0.0319 0,-0.0425 0,-0.0319 0.1063,-0.0425 0,-0.0425 0,-0.0425 0,-0.0425 0,-0.0532 0,-0.0425 0,-0.0531 c 0,-1.06299 -1.063,-1.06299 -1.8071,-1.06299 h -31.6771 c -0.7441,0 -1.7008,0 -1.7008,1.06299 0,1.06299 0.9567,1.06299 1.7008,1.06299 z"
       inkscape:connector-curvature="0"
       style="font-style:normal;font-variant:normal;font-weight:normal;font-stretch:normal;letter-spacing:normal;word-spacing:normal;text-anchor:start;fill:#000000;stroke:#000000;stroke-width:0;stroke-linecap:butt;stroke-linejoin:miter;stroke-miterlimit:10.43299961;stroke-opacity:1;stroke-dasharray:none;stroke-dashoffset:0" />
    <path
       id="path10122"
       d="m 1087.9511,505.51175 0,-0.0319 0,-0.0213 0,-0.0213 0,-0.0319 0,-0.0425 0,-0.0531 0.1063,-0.0425 0,-0.0425 0,-0.0319 0,-0.0425 0,-0.0319 0,-0.0319 0,-0.0319 0,-0.0319 0.1063,-0.0319 0,-0.0319 0,-0.0213 0,-0.0213 0,-0.0319 0,-0.0213 0,-0.0213 0,-0.0213 0,-0.0319 0,-0.0213 0,-0.0425 0,-0.0425 0,-0.0425 0,-0.0425 0,-0.0213 0,-0.0319 c 0,-0.57401 -0.4252,-1.04173 -1.063,-1.04173 -0.4252,0 -0.8504,0.26575 -1.1693,1.21181 l -9.248,24.3 c -0.2126,0.32953 -0.3189,0.64842 -0.3189,0.96732 0,0.14882 0,0.26575 0.3189,0.89292 l 9.248,24.31062 c 0.2126,0.58465 0.4252,1.26497 1.1693,1.26497 0.6378,0 1.063,-0.47835 1.063,-1.063 0,-0.14882 0,-0.26574 -0.2126,-0.85039 l -9.4607,-24.55512 z"
       inkscape:connector-curvature="0"
       style="font-style:normal;font-variant:normal;font-weight:normal;font-stretch:normal;letter-spacing:normal;word-spacing:normal;text-anchor:start;fill:#000000;stroke:#000000;stroke-width:0;stroke-linecap:butt;stroke-linejoin:miter;stroke-miterlimit:10.43299961;stroke-opacity:1;stroke-dasharray:none;stroke-dashoffset:0" />
    <path
       id="path10124"
       d="m 1119.4156,511.70899 -0.1063,0.0638 -0.1063,0.0744 -0.1063,0.0744 0,0.0744 -0.1063,0.085 -0.1063,0.085 -0.1063,0.085 -0.1063,0.0957 -0.1063,0.0957 -0.1063,0.0957 -0.2126,0.20197 -0.2126,0.2126 -0.2126,0.2126 -0.1063,0.1063 -0.1062,0.11693 0,0.1063 -0.1063,0.1063 -0.1063,0.11693 -0.1063,0.10629 0,0.1063 -0.1063,0.1063 -0.1063,0.1063 0,0.1063 -0.1063,0.0957 0,0.1063 0,0.0957 -0.1063,0.0957 0,0.0957 0,0.0957 c 0,0.5315 0.5315,1.06299 1.0629,1.06299 0.5315,0 0.7441,-0.38266 1.063,-0.70156 0.6378,-0.79725 1.8071,-2.2748 4.1457,-3.4441 0.4252,-0.21259 0.8504,-0.47834 0.8504,-1.10552 0,-0.53149 -0.3189,-0.79724 -0.6378,-1.06299 -1.2756,-0.79723 -1.8071,-1.74331 -2.2323,-3.00826 -0.1063,-0.47834 -0.3189,-1.17993 -1.063,-1.17993 -0.7441,0 -1.063,0.70159 -1.063,1.11615 0,0.26575 0.4252,1.95591 1.2756,3.07204 h -17.8582 c -0.8504,0 -1.8071,0 -1.8071,1.06299 0,1.063 0.9567,1.063 1.8071,1.063 z"
       inkscape:connector-curvature="0"
       style="font-style:normal;font-variant:normal;font-weight:normal;font-stretch:normal;letter-spacing:normal;word-spacing:normal;text-anchor:start;fill:#000000;stroke:#000000;stroke-width:0;stroke-linecap:butt;stroke-linejoin:miter;stroke-miterlimit:10.43299961;stroke-opacity:1;stroke-dasharray:none;stroke-dashoffset:0" />
    <path
       id="path10126"
       d="m 1114.9511,520.39363 0,-0.0213 0,-0.0213 0,-0.0213 0,-0.0213 0,-0.0213 0,-0.0213 0,-0.0213 0,-0.0213 0,-0.0213 0,-0.0319 0,-0.0213 0,-0.0213 0,-0.0213 0,-0.0213 -0.1063,-0.0213 0,-0.0213 0,-0.0106 0,-0.0213 0,-0.0213 0,-0.0213 -0.1063,-0.0106 0,-0.0106 0,-0.0213 0,-0.0106 -0.1063,-0.0106 0,-0.0106 0,-0.0106 0,-0.0106 -0.1063,0 0,-0.0106 0,0 0,0 -0.1063,0 c -0.5315,0 -2.6575,2.10472 -3.5079,3.65669 -1.1693,-2.85945 -3.2953,-3.70984 -4.9961,-3.70984 v 1.16929 c 3.5079,0 4.252,4.28386 4.252,4.64528 0,0.32952 -2.9764,11.92677 -3.0827,12.13937 -0.8504,1.47756 -3.8267,4.8685 -6.8031,4.8685 h 0 c -3.0827,0 -3.2953,-4.08189 -3.2953,-4.98543 0,-2.54055 1.4882,-8.30197 2.4449,-10.52362 1.5945,-3.92245 4.3583,-6.1441 6.4842,-6.1441 v -1.16929 c -6.2716,0 -12.7559,7.84488 -12.7559,15.51968 0,5.17678 3.189,8.47205 7.0158,8.47205 2.2323,0 4.3582,-1.26496 6.2716,-3.17834 -0.5315,1.8496 -2.2323,9.00354 -2.4448,9.48188 -0.4252,1.47756 -0.8504,1.70079 -3.8268,1.74331 -0.6378,0 -1.1693,0 -1.1693,1.06299 0,0.0532 0,0.58465 0.6378,0.58465 1.7008,0 3.6142,-0.17008 5.3149,-0.17008 1.8071,0 3.7205,0.17008 5.5276,0.17008 0.2126,0 0.8504,0 0.8504,-1.06299 0,-0.58465 -0.4252,-0.58465 -1.2756,-0.58465 -2.5512,0 -2.5512,-0.38268 -2.5512,-0.83976 0,-0.38268 0.1063,-0.70158 0.2126,-1.16929 z"
       inkscape:connector-curvature="0"
       style="font-style:normal;font-variant:normal;font-weight:normal;font-stretch:normal;letter-spacing:normal;word-spacing:normal;text-anchor:start;fill:#000000;stroke:#000000;stroke-width:0;stroke-linecap:butt;stroke-linejoin:miter;stroke-miterlimit:10.43299961;stroke-opacity:1;stroke-dasharray:none;stroke-dashoffset:0" />
    <path
       id="path10130"
       d="m 1153.9629,543.16293 0,-0.31891 0,-0.31888 0,-0.30827 0,-0.29765 -0.1063,-0.28701 0,-0.28701 0,-0.26574 -0.1063,-0.26575 -0.1063,-0.24449 0,-0.24448 -0.1063,-0.23386 -0.1063,-0.22324 0,-0.21258 -0.1063,-0.21261 -0.1063,-0.19133 -0.1063,-0.18072 -0.1063,-0.1807 -0.1063,-0.15945 -0.2126,-0.14882 -0.1063,-0.14882 -0.1063,-0.12755 -0.2126,-0.11693 -0.1063,-0.11693 -0.1063,-0.0957 -0.2126,-0.085 -0.1063,-0.0744 -0.2126,-0.0638 -0.2126,-0.0531 -0.1063,-0.0425 -0.2126,-0.0319 -0.2126,-0.0213 -0.2126,0 c -1.7008,0 -2.7638,1.32874 -2.7638,2.8063 0,1.42441 1.063,2.8063 2.7638,2.8063 0.6378,0 1.3819,-0.2126 1.9134,-0.68032 0.1063,-0.11693 0.2126,-0.17008 0.2126,-0.17008 0.1063,0 0.1063,0.0531 0.1063,0.79725 0,3.92244 -1.8071,7.09015 -3.6142,8.83346 -0.5315,0.58465 -0.5315,0.70158 -0.5315,0.85039 0,0.38268 0.3189,0.58465 0.5315,0.58465 0.5315,0 4.7835,-4.07126 4.7835,-10.2685 z"
       inkscape:connector-curvature="0"
       style="font-style:normal;font-variant:normal;font-weight:normal;font-stretch:normal;letter-spacing:normal;word-spacing:normal;text-anchor:start;fill:#000000;stroke:#000000;stroke-width:0;stroke-linecap:butt;stroke-linejoin:miter;stroke-miterlimit:10.43299961;stroke-opacity:1;stroke-dasharray:none;stroke-dashoffset:0" />
    <path
       id="path10132"
       d="m 1219.8684,498.31528 0,0.0638 -0.1063,0.0744 -0.1063,0.0744 -0.1063,0.0744 -0.1063,0.085 0,0.085 -0.1063,0.0957 -0.1063,0.085 -0.1063,0.0957 -0.1063,0.1063 -0.2126,0.20196 -0.2126,0.20197 -0.2126,0.22323 -0.1063,0.1063 -0.1063,0.1063 -0.1063,0.1063 -0.1063,0.11693 0,0.1063 -0.1063,0.1063 -0.1063,0.1063 0,0.10629 -0.1063,0.1063 -0.1063,0.1063 0,0.1063 0,0.0957 -0.1063,0.0957 0,0.1063 0,0.085 0,0.0957 c 0,0.53149 0.5315,1.06299 1.063,1.06299 0.4252,0 0.7441,-0.38268 0.9567,-0.70158 0.6378,-0.79724 1.9134,-2.2748 4.252,-3.43346 0.3189,-0.22323 0.8504,-0.48898 0.8504,-1.11614 0,-0.5315 -0.3189,-0.79725 -0.7441,-1.06299 -1.1693,-0.79725 -1.7008,-1.74331 -2.126,-3.00827 -0.1063,-0.47834 -0.3189,-1.17992 -1.063,-1.17992 -0.7441,0 -1.063,0.70158 -1.063,1.11614 0,0.26575 0.4252,1.95591 1.2756,3.07205 h -17.8583 c -0.8504,0 -1.9134,0 -1.9134,1.06299 0,1.06299 1.063,1.06299 1.9134,1.06299 z"
       inkscape:connector-curvature="0"
       style="font-style:normal;font-variant:normal;font-weight:normal;font-stretch:normal;letter-spacing:normal;word-spacing:normal;text-anchor:start;fill:#000000;stroke:#000000;stroke-width:0;stroke-linecap:butt;stroke-linejoin:miter;stroke-miterlimit:10.43299961;stroke-opacity:1;stroke-dasharray:none;stroke-dashoffset:0" />
    <path
       id="path10134"
       d="m 1215.2975,513.18655 0.2126,-0.43582 0.3189,-0.41457 0.2126,-0.40394 0.2126,-0.3933 0.2126,-0.19135 0.1063,-0.1807 0.1063,-0.18072 0.2126,-0.18071 0.1063,-0.17007 0.2126,-0.15945 0.1063,-0.15944 0.2126,-0.15946 0.1063,-0.13819 0.2126,-0.14882 0.2126,-0.12756 0.1063,-0.12756 0.2126,-0.12756 0.2126,-0.1063 0.2126,-0.1063 0.2126,-0.10631 0.3189,-0.085 0.2126,-0.085 0.2126,-0.0744 0.3189,-0.0638 0.2126,-0.0638 0.3189,-0.0425 0.3189,-0.0425 0.3189,-0.0319 c 0.4252,-0.0425 0.9567,-0.0425 0.9567,-1.06299 0,-0.19134 -0.2126,-0.57401 -0.6378,-0.57401 -1.2756,0 -2.7638,0.15944 -4.0394,0.15944 -1.8071,0 -3.8268,-0.15944 -5.5276,-0.15944 -0.3188,0 -0.9566,0 -0.9566,1.00984 0,0.58464 0.4252,0.62716 0.7441,0.62716 1.2755,0.0531 3.0826,0.48898 3.0826,2.06221 0,0.58464 -0.2126,1.00984 -0.6378,1.76456 l -14.3504,24.92717 -1.9133,-26.25591 c -0.1063,-1.06299 -0.1063,-2.44488 3.7204,-2.49803 0.8504,0 1.3819,0 1.3819,-1.06299 0,-0.5315 -0.5315,-0.57401 -0.7441,-0.57401 -2.126,0 -4.3582,0.15944 -6.4842,0.15944 -1.1693,0 -4.3583,-0.15944 -5.5276,-0.15944 -0.3189,0 -1.063,0 -1.063,1.06299 0,0.57401 0.5315,0.57401 1.2756,0.57401 2.3386,0 2.6575,0.3189 2.8701,1.32874 l 0.3189,4.07126 -13.3937,23.35394 -2.0197,-26.84055 c 0,-0.62717 0,-1.86024 3.9331,-1.91339 0.5315,0 1.1693,0 1.1693,-1.06299 0,-0.57401 -0.6378,-0.57401 -0.7441,-0.57401 -2.126,0 -4.3583,0.15944 -6.4843,0.15944 -1.9134,0 -3.8268,-0.15944 -5.6338,-0.15944 -0.2126,0 -0.9567,0 -0.9567,1.00984 0,0.62716 0.5315,0.62716 1.3819,0.62716 2.6574,0 2.6574,0.48898 2.7637,1.96654 l 2.4449,32.35748 c 0,0.95669 0.1063,1.37126 0.8504,1.37126 0.6378,0 0.7441,-0.30827 1.2756,-1.10551 l 15.5197,-27.01063 2.0197,26.74488 c 0,1.10551 0.1063,1.37126 0.8504,1.37126 0.6378,0 0.9567,-0.5315 1.1693,-0.99921 z"
       inkscape:connector-curvature="0"
       style="font-style:normal;font-variant:normal;font-weight:normal;font-stretch:normal;letter-spacing:normal;word-spacing:normal;text-anchor:start;fill:#000000;stroke:#000000;stroke-width:0;stroke-linecap:butt;stroke-linejoin:miter;stroke-miterlimit:10.43299961;stroke-opacity:1;stroke-dasharray:none;stroke-dashoffset:0" />
    <path
       id="path10138"
       d="m 1245.3643,530.87473 0,-0.0319 0,-0.0319 0,-0.0213 0,-0.0319 0.1063,-0.0213 0,-0.0319 0,-0.0213 0,-0.0213 0,-0.0213 0,-0.0319 0,-0.0213 0,-0.0213 0,-0.0425 0,-0.0319 0.1063,-0.0425 0,-0.0319 0,-0.0319 0,-0.0319 0,-0.0319 0,-0.0319 0,-0.0213 0,-0.0213 0,-0.0213 0,-0.0319 0,-0.0106 0,-0.0213 0,-0.0213 0,-0.0213 0,-0.0106 0,-0.0213 0,-0.0106 0,-0.0213 0,-0.0213 0,-0.0319 0,-0.0213 c 0,-0.17008 0,-0.26575 -0.2126,-0.90354 l -9.2481,-24.36378 c -0.3189,-0.89291 -0.6378,-1.21181 -1.2756,-1.21181 -0.5315,0 -1.063,0.46771 -1.063,1.04173 0,0.17008 0,0.26575 0.3189,0.85039 l 9.3544,24.58701 -9.3544,24.45945 c -0.3189,0.58465 -0.3189,0.68031 -0.3189,0.94606 0,0.58465 0.5315,1.06299 1.063,1.06299 0.7441,0 0.9567,-0.53149 1.1693,-1.06299 z"
       inkscape:connector-curvature="0"
       style="font-style:normal;font-variant:normal;font-weight:normal;font-stretch:normal;letter-spacing:normal;word-spacing:normal;text-anchor:start;fill:#000000;stroke:#000000;stroke-width:0;stroke-linecap:butt;stroke-linejoin:miter;stroke-miterlimit:10.43299961;stroke-opacity:1;stroke-dasharray:none;stroke-dashoffset:0" />
  </g>
</svg>
