<?xml version="1.0" encoding="UTF-8" standalone="no"?>
<!-- Created with Inkscape (http://www.inkscape.org/) -->

<svg
   xmlns:dc="http://purl.org/dc/elements/1.1/"
   xmlns:cc="http://creativecommons.org/ns#"
   xmlns:rdf="http://www.w3.org/1999/02/22-rdf-syntax-ns#"
   xmlns:svg="http://www.w3.org/2000/svg"
   xmlns="http://www.w3.org/2000/svg"
   xmlns:sodipodi="http://sodipodi.sourceforge.net/DTD/sodipodi-0.dtd"
   xmlns:inkscape="http://www.inkscape.org/namespaces/inkscape"
   width="1118.8516"
   height="382.33252"
   id="svg17368"
   version="1.1"
   inkscape:version="0.48.3.1 r9886"
   sodipodi:docname="matrices_4.pdf">
  <defs
     id="defs17370" />
  <sodipodi:namedview
     id="base"
     pagecolor="#ffffff"
     bordercolor="#666666"
     borderopacity="1.0"
     inkscape:pageopacity="0.0"
     inkscape:pageshadow="2"
     inkscape:zoom="0.35"
     inkscape:cx="1028.7115"
     inkscape:cy="294.0234"
     inkscape:document-units="px"
     inkscape:current-layer="layer1"
     showgrid="false"
     fit-margin-top="0"
     fit-margin-left="0"
     fit-margin-right="0"
     fit-margin-bottom="0"
     inkscape:window-width="1215"
     inkscape:window-height="776"
     inkscape:window-x="65"
     inkscape:window-y="24"
     inkscape:window-maximized="1" />
  <metadata
     id="metadata17373">
    <rdf:RDF>
      <cc:Work
         rdf:about="">
        <dc:format>image/svg+xml</dc:format>
        <dc:type
           rdf:resource="http://purl.org/dc/dcmitype/StillImage" />
        <dc:title></dc:title>
      </cc:Work>
    </rdf:RDF>
  </metadata>
  <g
     inkscape:label="Layer 1"
     inkscape:groupmode="layer"
     id="layer1"
     transform="translate(16.568609,-338.33878)">
    <g
       transform="translate(-704.89144,492.1183)"
       id="g11316">
      <g
         style="font-style:normal;font-variant:normal;font-weight:normal;font-stretch:normal;letter-spacing:normal;word-spacing:normal;text-anchor:start;fill:none;stroke:#000000;stroke-linecap:butt;stroke-linejoin:miter;stroke-miterlimit:10.43299961;stroke-opacity:1;stroke-dasharray:none;stroke-dashoffset:0"
         id="g11318"
         transform="matrix(1.0629921,0,0,-1.0629921,33.97638,805.27165)"
         xml:space="preserve"
         stroke-miterlimit="10.433"
         font-style="normal"
         font-variant="normal"
         font-weight="normal"
         font-stretch="normal"
         font-size-adjust="none"
         letter-spacing="normal"
         word-spacing="normal"><path
           style="fill:#000000;stroke-width:0"
           inkscape:connector-curvature="0"
           d="m 626.43038,889.02853 0.01,0.02 0.01,0.03 0.02,0.02 0.01,0.03 0.02,0.04 0.01,0.04 0.02,0.05 0.02,0.03 0.01,0.04 0.02,0.04 0.01,0.03 0.01,0.03 0.01,0.03 0.01,0.03 0.01,0.03 0.01,0.02 0,0.03 0.01,0.02 0.01,0.03 0,0.02 0.01,0.02 0,0.02 0,0.02 0,0.03 0.01,0.04 0,0.04 0,0.04 0,0.04 0,0.02 0,0.03 c 0,0.54 -0.45,0.98 -1,0.98 -0.45,0 -0.79,-0.25 -1.14,-1.14 l -8.72,-22.86 c -0.11,-0.31 -0.25,-0.61 -0.25,-0.91 0,-0.14 0,-0.25 0.25,-0.84 l 8.72,-22.87 c 0.19,-0.55 0.44,-1.19 1.14,-1.19 0.55,0 1,0.45 1,1 0,0.14 0,0.25 -0.25,0.79 l -8.83,23.11 z"
           id="path11320" /><path
           style="fill:#000000;stroke-width:0"
           inkscape:connector-curvature="0"
           d="m 661.20038,896.27853 -0.07,-0.06 -0.07,-0.07 -0.08,-0.07 -0.08,-0.07 -0.09,-0.08 -0.08,-0.08 -0.09,-0.09 -0.1,-0.08 -0.09,-0.09 -0.1,-0.1 -0.2,-0.19 -0.19,-0.19 -0.19,-0.21 -0.09,-0.1 -0.09,-0.1 -0.09,-0.1 -0.09,-0.11 -0.08,-0.1 -0.07,-0.1 -0.07,-0.1 -0.07,-0.1 -0.06,-0.1 -0.05,-0.1 -0.04,-0.1 -0.04,-0.09 -0.03,-0.1 -0.03,-0.09 -0.01,-0.08 -0.01,-0.09 c 0,-0.5 0.5,-1 1,-1 0.46,0 0.71,0.36 0.96,0.66 0.59,0.75 1.73,2.14 3.94,3.23 0.34,0.21 0.84,0.46 0.84,1.05 0,0.5 -0.34,0.75 -0.7,1 -1.1,0.75 -1.64,1.64 -2.05,2.83 -0.09,0.45 -0.3,1.11 -0.99,1.11 -0.7,0 -1,-0.66 -1,-1.05 0,-0.25 0.4,-1.84 1.19,-2.89 h -16.78 c -0.84,0 -1.75,0 -1.75,-1 0,-1 0.91,-1 1.75,-1 z"
           id="path11322" /><path
           style="fill:#000000;stroke-width:0"
           inkscape:connector-curvature="0"
           d="m 655.11038,887.58853 0,0 0,0.01 0,0.01 0,0.01 0,0.01 0,0.01 0,0.02 0,0.02 -0.01,0.02 0,0.02 -0.01,0.02 0,0.02 -0.01,0.03 -0.01,0.02 -0.01,0.02 -0.01,0.03 -0.02,0.02 -0.01,0.03 -0.02,0.02 -0.02,0.03 -0.02,0.02 -0.02,0.01 -0.01,0.01 -0.01,0.01 -0.02,0.01 -0.01,0.01 -0.02,0.01 -0.01,0.01 -0.02,0.01 -0.02,0.01 -0.01,0.01 -0.02,0.01 -0.02,0 -0.02,0.01 -0.02,0.01 -0.02,0 -0.03,0.01 -0.02,0 -0.02,0.01 -0.03,0 -0.03,0 -0.02,0.01 -0.03,0 -0.03,0 -0.03,0 c -0.75,0 -5.48,-0.45 -6.33,-0.55 -0.4,-0.05 -0.7,-0.29 -0.7,-0.95 0,-0.6 0.45,-0.6 1.2,-0.6 2.39,0 2.49,-0.34 2.49,-0.84 l -0.14,-1 -3,-11.81 c -0.89,1.84 -2.35,3.19 -4.58,3.19 l 0.05,-1.1 c 3.23,0 3.93,-4.08 3.93,-4.37 0,-0.31 -0.09,-0.61 -0.14,-0.86 l -2.5,-9.77 c -0.25,-0.89 -0.25,-0.98 -1,-1.84 -2.18,-2.74 -4.23,-3.53 -5.62,-3.53 -2.49,0 -3.19,2.73 -3.19,4.69 0,2.48 1.59,8.6 2.73,10.9 1.55,2.94 3.8,4.78 5.79,4.78 l -0.05,1.1 c -5.83,0 -12,-7.32 -12,-14.6 0,-4.68 2.73,-7.97 6.62,-7.97 0.99,0 3.49,0.21 6.47,3.74 0.41,-2.1 2.14,-3.74 4.53,-3.74 1.75,0 2.89,1.14 3.69,2.74 0.85,1.79 1.5,4.84 1.5,4.94 0,0.5 -0.45,0.5 -0.59,0.5 -0.5,0 -0.55,-0.21 -0.71,-0.91 -0.84,-3.24 -1.75,-6.17 -3.78,-6.17 -1.34,0 -1.5,1.29 -1.5,2.29 0,1.19 0.1,1.55 0.3,2.4 z"
           id="path11324" /><path
           style="fill:#000000;stroke-width:0"
           inkscape:connector-curvature="0"
           d="m 690.52038,853.60853 -0.01,0.3 -0.01,0.3 -0.01,0.29 -0.03,0.28 -0.03,0.27 -0.04,0.26 -0.04,0.26 -0.06,0.25 -0.05,0.23 -0.07,0.23 -0.07,0.22 -0.08,0.21 -0.08,0.2 -0.09,0.2 -0.09,0.18 -0.1,0.17 -0.11,0.16 -0.11,0.16 -0.12,0.14 -0.12,0.13 -0.13,0.13 -0.13,0.11 -0.14,0.11 -0.15,0.09 -0.15,0.08 -0.15,0.07 -0.16,0.06 -0.16,0.05 -0.17,0.04 -0.17,0.03 -0.18,0.02 -0.18,0 c -1.64,0 -2.64,-1.25 -2.64,-2.64 0,-1.34 1,-2.64 2.64,-2.64 0.59,0 1.25,0.2 1.75,0.64 0.14,0.11 0.2,0.16 0.25,0.16 0.05,0 0.09,-0.05 0.09,-0.75 0,-3.69 -1.73,-6.67 -3.39,-8.31 -0.54,-0.55 -0.54,-0.66 -0.54,-0.8 0,-0.36 0.25,-0.55 0.5,-0.55 0.54,0 4.53,3.83 4.53,9.66 z"
           id="path11328" /><path
           style="fill:#000000;stroke-width:0"
           inkscape:connector-curvature="0"
           d="m 740.04038,895.67853 -0.07,-0.06 -0.07,-0.07 -0.07,-0.07 -0.09,-0.07 -0.08,-0.08 -0.09,-0.08 -0.09,-0.09 -0.09,-0.08 -0.1,-0.09 -0.1,-0.09 -0.19,-0.19 -0.2,-0.2 -0.19,-0.2 -0.09,-0.11 -0.09,-0.1 -0.09,-0.1 -0.08,-0.1 -0.08,-0.11 -0.08,-0.1 -0.07,-0.1 -0.06,-0.1 -0.06,-0.1 -0.05,-0.1 -0.05,-0.1 -0.04,-0.09 -0.03,-0.09 -0.02,-0.09 -0.02,-0.09 0,-0.09 c 0,-0.5 0.5,-1 1,-1 0.45,0 0.7,0.36 0.95,0.66 0.6,0.75 1.74,2.14 3.94,3.23 0.34,0.21 0.84,0.46 0.84,1.05 0,0.5 -0.34,0.75 -0.7,1 -1.09,0.75 -1.64,1.64 -2.05,2.83 -0.09,0.45 -0.29,1.11 -0.98,1.11 -0.71,0 -1,-0.66 -1,-1.05 0,-0.25 0.39,-1.84 1.19,-2.89 h -16.79 c -0.84,0 -1.75,0 -1.75,-1 0,-1 0.91,-1 1.75,-1 z"
           id="path11330" /><path
           style="fill:#000000;stroke-width:0"
           inkscape:connector-curvature="0"
           d="m 748.18038,881.80853 0.23,0.41 0.24,0.39 0.24,0.38 0.25,0.37 0.12,0.18 0.13,0.17 0.14,0.17 0.14,0.17 0.14,0.16 0.14,0.15 0.15,0.15 0.16,0.14 0.16,0.14 0.17,0.14 0.17,0.12 0.18,0.12 0.19,0.12 0.19,0.1 0.21,0.1 0.21,0.1 0.22,0.08 0.22,0.08 0.24,0.07 0.25,0.06 0.25,0.05 0.27,0.05 0.28,0.04 0.29,0.02 c 0.45,0.05 0.95,0.05 0.95,1 0,0.19 -0.2,0.55 -0.61,0.55 -1.19,0 -2.58,-0.15 -3.83,-0.15 -1.7,0 -3.55,0.15 -5.18,0.15 -0.3,0 -0.94,0 -0.94,-0.95 0,-0.55 0.44,-0.6 0.73,-0.6 1.21,-0.04 2.96,-0.45 2.96,-1.93 0,-0.55 -0.25,-0.96 -0.66,-1.66 l -13.46,-23.45 -1.84,24.7 c -0.04,1 -0.14,2.3 3.49,2.34 0.85,0 1.35,0 1.35,1 0,0.5 -0.56,0.55 -0.75,0.55 -2,0 -4.09,-0.15 -6.07,-0.15 -1.16,0 -4.1,0.15 -5.24,0.15 -0.29,0 -0.95,0 -0.95,-1 0,-0.55 0.5,-0.55 1.2,-0.55 2.19,0 2.53,-0.29 2.64,-1.24 l 0.3,-3.83 -12.61,-21.97 -1.89,25.25 c 0,0.59 0,1.75 3.78,1.79 0.5,0 1.05,0 1.05,1 0,0.55 -0.6,0.55 -0.69,0.55 -2,0 -4.09,-0.15 -6.12,-0.15 -1.75,0 -3.55,0.15 -5.24,0.15 -0.25,0 -0.9,0 -0.9,-0.95 0,-0.6 0.45,-0.6 1.25,-0.6 2.5,0 2.54,-0.45 2.64,-1.84 l 2.25,-30.44 c 0.04,-0.9 0.09,-1.29 0.79,-1.29 0.6,0 0.74,0.29 1.19,1.04 l 14.66,25.41 1.84,-25.16 c 0.09,-1.04 0.19,-1.29 0.8,-1.29 0.64,0 0.94,0.5 1.19,0.93 z"
           id="path11332" /><path
           style="fill:#000000;stroke-width:0"
           inkscape:connector-curvature="0"
           d="m 778.34706,865.16853 0.02,0.03 0.01,0.02 0.01,0.03 0.01,0.03 0.01,0.02 0.01,0.02 0.01,0.03 0.01,0.02 0.01,0.02 0,0.02 0.01,0.03 0.01,0.02 0.01,0.04 0.02,0.03 0.01,0.04 0.01,0.03 0.01,0.03 0.01,0.03 0.01,0.03 0.01,0.02 0.01,0.03 0,0.02 0.01,0.02 0,0.02 0.01,0.02 0,0.02 0,0.02 0.01,0.02 0,0.01 0,0.02 0,0.01 0,0.01 0,0.03 0,0.03 0,0.02 c 0,0.16 0,0.25 -0.25,0.85 l -8.71,22.92 c -0.3,0.84 -0.6,1.14 -1.15,1.14 -0.54,0 -1,-0.44 -1,-0.98 0,-0.16 0,-0.25 0.25,-0.8 l 8.83,-23.13 -8.83,-23.01 c -0.25,-0.55 -0.25,-0.64 -0.25,-0.89 0,-0.55 0.46,-1 1,-1 0.66,0 0.85,0.5 1.05,1 z"
           id="path11336" /><path
           style="fill:#000000;stroke-width:0"
           inkscape:connector-curvature="0"
           d="m 806.07966,865.00853 h 13.91 c 0.69,0 1.64,0 1.64,1 0,1 -0.95,1 -1.64,1 h -13.91 v 13.96 c 0,0.68 0,1.64 -1,1.64 -0.98,0 -0.98,-0.96 -0.98,-1.64 v -13.96 h -13.96 c -0.7,0 -1.64,0 -1.64,-1 0,-1 0.94,-1 1.64,-1 h 13.96 v -13.93 c 0,-0.71 0,-1.66 0.98,-1.66 1,0 1,0.95 1,1.66 z"
           id="path11338" /><path
           style="fill:#000000;stroke-width:0"
           inkscape:connector-curvature="0"
           d="m 851.84966,889.02853 0.01,0.02 0.01,0.03 0.01,0.02 0.01,0.03 0.02,0.04 0.02,0.04 0.02,0.05 0.01,0.03 0.02,0.04 0.01,0.04 0.01,0.03 0.01,0.03 0.02,0.03 0,0.03 0.01,0.03 0.01,0.02 0.01,0.03 0,0.02 0.01,0.03 0.01,0.02 0,0.02 0,0.02 0.01,0.02 0,0.03 0,0.04 0,0.04 0.01,0.04 0,0.04 0,0.02 0,0.03 c 0,0.54 -0.46,0.98 -1,0.98 -0.46,0 -0.8,-0.25 -1.14,-1.14 l -8.72,-22.86 c -0.11,-0.31 -0.25,-0.61 -0.25,-0.91 0,-0.14 0,-0.25 0.25,-0.84 l 8.72,-22.87 c 0.18,-0.55 0.43,-1.19 1.14,-1.19 0.54,0 1,0.45 1,1 0,0.14 0,0.25 -0.25,0.79 l -8.83,23.11 z"
           id="path11340" /><path
           style="fill:#000000;stroke-width:0"
           inkscape:connector-curvature="0"
           d="m 873.09966,887.53853 -0.03,0.08 -0.03,0.08 -0.03,0.07 -0.03,0.06 -0.03,0.07 -0.02,0.06 -0.03,0.06 -0.02,0.05 -0.03,0.05 -0.02,0.05 -0.02,0.05 -0.03,0.04 -0.02,0.04 -0.03,0.04 -0.02,0.04 -0.03,0.03 -0.02,0.03 -0.03,0.03 -0.03,0.02 -0.03,0.03 -0.03,0.02 -0.03,0.02 -0.03,0.01 -0.03,0.02 -0.04,0.01 -0.04,0.01 -0.04,0.01 -0.04,0.01 -0.04,0 -0.05,0.01 -0.05,0 -0.05,0 c -0.55,0 -0.8,-0.45 -1.05,-1.05 l -11.36,-29.79 1.71,-0.4 0.84,2.14 0.05,-0.06 v -0.48 c -0.05,-0.11 -0.05,-0.16 -0.05,-0.46 0,-0.2 0,-2.09 0.7,-3.23 h -2.68 c 0.64,0.69 0.84,1.3 1.14,2.09 l -1.71,0.4 c -0.59,-1.6 -1.64,-2.35 -2.98,-2.49 -0.25,0 -1.05,-0.11 -1.05,-0.86 0,-0.89 0.8,-0.89 1.71,-0.89 h 7.96 c 0.9,0 1.65,0 1.65,0.89 0,0.75 -0.71,0.8 -1.05,0.86 -0.7,0.05 -1.94,0.25 -1.94,3.23 0,1.65 0.34,3.24 0.69,4.83 l 0.5,1.75 c 1.15,4.38 2.75,8.61 4.39,12.8 1.55,-3.33 4.53,-10.52 5.37,-12.8 h -9.76 l -0.5,-1.75 h 10.97 c 1.73,-4.87 1.79,-5.67 1.84,-6.72 l 1.09,-1.34 c 0.5,0.3 0.65,0.99 0.65,1.59 0,3.04 -4.33,13.14 -6.47,18.13 l -2.44,5.58 1.78,4.84 12.11,-27.56 c 0.2,-0.49 0.75,-1.69 1.45,-2.58 h -7.08 l -1.09,1.34 c -1.2,-1.2 -2.59,-1.29 -3.14,-1.34 -0.5,-0.06 -0.84,-0.41 -0.84,-0.86 0,-0.89 0.75,-0.89 1.64,-0.89 h 13 c 0.9,0 1.7,0 1.7,0.89 0,0.7 -0.66,0.8 -1.11,0.86 -1.09,0.19 -1.94,1.05 -2.94,3.28 z"
           id="path11342" /><path
           style="fill:#000000;stroke-width:0"
           inkscape:connector-curvature="0"
           d="m 950.45966,895.67853 -0.07,-0.06 -0.07,-0.07 -0.08,-0.07 -0.08,-0.07 -0.08,-0.08 -0.09,-0.08 -0.09,-0.09 -0.1,-0.08 -0.09,-0.09 -0.1,-0.09 -0.19,-0.19 -0.2,-0.2 -0.19,-0.2 -0.09,-0.11 -0.09,-0.1 -0.09,-0.1 -0.08,-0.1 -0.08,-0.11 -0.08,-0.1 -0.07,-0.1 -0.06,-0.1 -0.06,-0.1 -0.06,-0.1 -0.04,-0.1 -0.04,-0.09 -0.03,-0.09 -0.03,-0.09 -0.01,-0.09 0,-0.09 c 0,-0.5 0.5,-1 1,-1 0.45,0 0.7,0.36 0.95,0.66 0.59,0.75 1.73,2.14 3.94,3.23 0.34,0.21 0.84,0.46 0.84,1.05 0,0.5 -0.34,0.75 -0.7,1 -1.1,0.75 -1.64,1.64 -2.05,2.83 -0.09,0.45 -0.3,1.11 -0.98,1.11 -0.71,0 -1,-0.66 -1,-1.05 0,-0.25 0.39,-1.84 1.18,-2.89 h -16.78 c -0.84,0 -1.75,0 -1.75,-1 0,-1 0.91,-1 1.75,-1 z"
           id="path11346" /><path
           style="fill:#000000;stroke-width:0"
           inkscape:connector-curvature="0"
           d="m 951.30966,865.16853 0.01,0.02 0.01,0.03 0.02,0.05 0.02,0.05 0.02,0.05 0.02,0.05 0.02,0.05 0.02,0.05 0.01,0.05 0.01,0.03 0.01,0.02 0.01,0.03 0.01,0.02 0,0.02 0.01,0.02 0.01,0.02 0,0.02 0.01,0.02 0,0.02 0.01,0.02 0,0.01 0,0.02 0,0.01 0.01,0.01 0,0.01 c 0,0.05 0,0.55 -0.6,0.55 -0.45,0 -0.54,-0.3 -0.64,-0.61 -3.25,-7.37 -5.08,-10.7 -13.61,-10.7 h -7.26 c -0.71,0 -0.8,0 -1.1,0.04 -0.5,0.05 -0.65,0.1 -0.65,0.5 0,0.15 0,0.25 0.25,1.15 l 3.39,13.6 h 4.93 c 4.24,0 4.24,-1.04 4.24,-2.29 0,-0.35 0,-0.96 -0.36,-2.44 -0.09,-0.25 -0.14,-0.41 -0.14,-0.55 0,-0.25 0.19,-0.54 0.64,-0.54 0.41,0 0.55,0.25 0.75,0.98 l 2.84,11.67 c 0,0.3 -0.25,0.55 -0.61,0.55 -0.43,0 -0.54,-0.3 -0.68,-0.91 -1.05,-3.78 -1.96,-4.92 -6.53,-4.92 h -4.69 l 3,12 c 0.43,1.75 0.5,1.94 2.69,1.94 h 7.01 c 6.08,0 7.58,-1.44 7.58,-5.53 0,-1.19 0,-1.28 -0.2,-2.64 0,-0.3 -0.05,-0.64 -0.05,-0.89 0,-0.25 0.16,-0.6 0.59,-0.6 0.57,0 0.61,0.3 0.71,1.25 l 1,8.61 c 0.14,1.35 -0.1,1.35 -1.35,1.35 h -25.15 c -1,0 -1.5,0 -1.5,-1 0,-0.55 0.45,-0.55 1.39,-0.55 1.84,0 3.23,0 3.23,-0.89 0,-0.2 0,-0.3 -0.25,-1.2 l -6.56,-26.35 c -0.5,-1.95 -0.61,-2.34 -4.55,-2.34 -0.84,0 -1.39,0 -1.39,-0.96 0,-0.59 0.45,-0.59 1.39,-0.59 h 25.86 c 1.16,0 1.2,0.05 1.55,0.84 z"
           id="path11348" /><path
           style="fill:#000000;stroke-width:0"
           inkscape:connector-curvature="0"
           d="m 990.81952,853.60853 0,0.3 -0.02,0.3 -0.01,0.29 -0.03,0.28 -0.03,0.27 -0.04,0.26 -0.04,0.26 -0.05,0.25 -0.06,0.23 -0.07,0.23 -0.07,0.22 -0.07,0.21 -0.09,0.2 -0.09,0.2 -0.09,0.18 -0.1,0.17 -0.11,0.16 -0.11,0.16 -0.12,0.14 -0.12,0.13 -0.13,0.13 -0.13,0.11 -0.14,0.11 -0.15,0.09 -0.14,0.08 -0.15996,0.07 -0.16,0.06 -0.16,0.05 -0.17,0.04 -0.17,0.03 -0.18,0.02 -0.18,0 c -1.64,0 -2.64,-1.25 -2.64,-2.64 0,-1.34 1,-2.64 2.64,-2.64 0.6,0 1.24996,0.2 1.74996,0.64 0.14,0.11 0.2,0.16 0.25,0.16 0.05,0 0.1,-0.05 0.1,-0.75 0,-3.69 -1.73996,-6.67 -3.39996,-8.31 -0.54,-0.55 -0.54,-0.66 -0.54,-0.8 0,-0.36 0.25,-0.55 0.5,-0.55 0.54,0 4.52996,3.83 4.52996,9.66 z"
           id="path11352" /><path
           style="fill:#000000;stroke-width:0"
           inkscape:connector-curvature="0"
           d="m 1040.3394,895.67853 -0.07,-0.06 -0.07,-0.07 -0.08,-0.07 -0.08,-0.07 -0.08,-0.08 -0.09,-0.08 -0.09,-0.09 -0.1,-0.08 -0.09,-0.09 -0.1,-0.09 -0.19,-0.19 -0.2,-0.2 -0.19,-0.2 -0.09,-0.11 -0.09,-0.1 -0.09,-0.1 -0.08,-0.1 -0.08,-0.11 -0.08,-0.1 -0.07,-0.1 -0.07,-0.1 -0.05,-0.1 -0.06,-0.1 -0.04,-0.1 -0.04,-0.09 -0.03,-0.09 -0.03,-0.09 -0.01,-0.09 0,-0.09 c 0,-0.5 0.5,-1 1,-1 0.45,0 0.7,0.36 0.95,0.66 0.59,0.75 1.73,2.14 3.93,3.23 0.35,0.21 0.85,0.46 0.85,1.05 0,0.5 -0.35,0.75 -0.7,1 -1.1,0.75 -1.65,1.64 -2.05,2.83 -0.1,0.45 -0.3,1.11 -0.98,1.11 -0.71,0 -1,-0.66 -1,-1.05 0,-0.25 0.38,-1.84 1.18,-2.89 h -16.78 c -0.84,0 -1.75,0 -1.75,-1 0,-1 0.91,-1 1.75,-1 z"
           id="path11354" /><path
           style="fill:#000000;stroke-width:0"
           inkscape:connector-curvature="0"
           d="m 1048.4794,881.80853 0.23,0.41 0.24,0.39 0.24,0.38 0.25,0.37 0.12,0.18 0.13,0.17 0.14,0.17 0.14,0.17 0.14,0.16 0.14,0.15 0.15,0.15 0.16,0.14 0.16,0.14 0.17,0.14 0.17,0.12 0.18,0.12 0.19,0.12 0.19,0.1 0.21,0.1 0.21,0.1 0.22,0.08 0.22,0.08 0.24,0.07 0.25,0.06 0.25,0.05 0.27,0.05 0.28,0.04 0.29,0.02 c 0.45,0.05 0.95,0.05 0.95,1 0,0.19 -0.2,0.55 -0.61,0.55 -1.19,0 -2.58,-0.15 -3.83,-0.15 -1.7,0 -3.54,0.15 -5.19,0.15 -0.29,0 -0.93,0 -0.93,-0.95 0,-0.55 0.43,-0.6 0.73,-0.6 1.2,-0.04 2.95,-0.45 2.95,-1.93 0,-0.55 -0.25,-0.96 -0.65,-1.66 l -13.45,-23.45 -1.85,24.7 c -0.05,1 -0.14,2.3 3.49,2.34 0.86,0 1.36,0 1.36,1 0,0.5 -0.57,0.55 -0.75,0.55 -2,0 -4.1,-0.15 -6.08,-0.15 -1.16,0 -4.1,0.15 -5.24,0.15 -0.29,0 -0.95,0 -0.95,-1 0,-0.55 0.5,-0.55 1.2,-0.55 2.19,0 2.54,-0.29 2.64,-1.24 l 0.3,-3.83 -12.61,-21.97 -1.89,25.25 c 0,0.59 0,1.75 3.78,1.79 0.5,0 1.05,0 1.05,1 0,0.55 -0.6,0.55 -0.69,0.55 -2,0 -4.09,-0.15 -6.12,-0.15 -1.75,0 -3.55,0.15 -5.24,0.15 -0.25,0 -0.9,0 -0.9,-0.95 0,-0.6 0.45,-0.6 1.25,-0.6 2.5,0 2.54,-0.45 2.64,-1.84 l 2.25,-30.44 c 0.04,-0.9 0.09,-1.29 0.79,-1.29 0.6,0 0.74,0.29 1.19,1.04 l 14.66,25.41 1.84,-25.16 c 0.1,-1.04 0.19,-1.29 0.8,-1.29 0.64,0 0.93,0.5 1.18,0.93 z"
           id="path11356" /><path
           style="fill:#000000;stroke-width:0"
           inkscape:connector-curvature="0"
           d="m 1072.8814,865.16853 0.02,0.03 0.01,0.02 0.01,0.03 0.01,0.03 0.01,0.02 0.01,0.02 0.01,0.03 0.01,0.02 0.01,0.02 0,0.02 0.01,0.03 0.01,0.02 0.01,0.04 0.02,0.03 0.01,0.04 0.01,0.03 0.01,0.03 0.01,0.03 0.01,0.03 0.01,0.02 0.01,0.03 0,0.02 0.01,0.02 0,0.02 0.01,0.02 0,0.02 0,0.02 0.01,0.02 0,0.01 0,0.02 0,0.01 0,0.01 0,0.03 0,0.03 0,0.02 c 0,0.16 0,0.25 -0.25,0.85 l -8.71,22.92 c -0.3,0.84 -0.6,1.14 -1.15,1.14 -0.54,0 -1,-0.44 -1,-0.98 0,-0.16 0,-0.25 0.25,-0.8 l 8.83,-23.13 -8.83,-23.01 c -0.25,-0.55 -0.25,-0.64 -0.25,-0.89 0,-0.55 0.46,-1 1,-1 0.66,0 0.85,0.5 1.05,1 z"
           id="path11360" /><path
           style="fill:#000000;stroke-width:0"
           inkscape:connector-curvature="0"
           d="m 1114.1237,863.44986 0.2,0 0.2,0.01 0.1,0 0.1,0 0.1,0.01 0,0.01 0.1,0 0.1,0.01 0.1,0.02 0,0.01 0.1,0.02 0.1,0.02 0,0.02 0.1,0.02 0.1,0.03 0,0.03 0.1,0.04 0,0.04 0.1,0.04 0,0.05 0,0.05 0.1,0.02 0,0.03 0,0.03 0,0.03 0,0.03 0,0.03 0,0.04 0,0.03 0.1,0.04 0,0.04 0,0.04 0,0.04 0,0.04 0,0.04 0,0.05 0,0.04 c 0,1 -0.9,1 -1.8,1 h -26.9 c -0.8,0 -1.7,0 -1.7,-1 0,-1 0.9,-1 1.7,-1 z"
           id="path11382" /><path
           style="fill:#000000;stroke-width:0"
           inkscape:connector-curvature="0"
           d="m 1147.5237,887.46986 0,0.02 0,0.03 0,0.02 0,0.03 0,0.04 0,0.04 0.1,0.05 0,0.03 0,0.04 0,0.04 0,0.03 0,0.03 0,0.03 0,0.03 0.1,0.03 0,0.02 0,0.03 0,0.02 0,0.03 0,0.02 0,0.02 0,0.02 0,0.02 0,0.03 0,0.04 0,0.04 0,0.04 0,0.04 0,0.02 0,0.03 c 0,0.54 -0.5,0.98 -1,0.98 -0.5,0 -0.8,-0.25 -1.1,-1.14 l -8.7,-22.86 c -0.2,-0.31 -0.3,-0.61 -0.3,-0.91 0,-0.14 0,-0.25 0.3,-0.84 l 8.7,-22.87 c 0.1,-0.55 0.4,-1.19 1.1,-1.19 0.5,0 1,0.45 1,1 0,0.14 0,0.25 -0.2,0.79 l -8.9,23.11 z"
           id="path11384" /><path
           style="fill:#000000;stroke-width:0"
           inkscape:connector-curvature="0"
           d="m 1173.6237,862.46986 -9.5,22.66 c -0.4,1 -0.4,1 -1.8,1 l 0.2,-1.74 9.6,-22.83 c 0.5,-0.84 0.5,-0.89 1.1,-1.09 l -2.2,-5.28 h -0.1 l -11.3,27.11 c -0.3,0.64 -0.7,1.48 -1.4,2.09 h 4.3 l -0.2,1.74 h -9.2 c -0.9,0 -1.7,0 -1.7,-0.89 0,-0.85 0.9,-0.85 1.2,-0.85 0.6,0 1.9,-0.11 3,-0.5 v -26.61 l 1.1,-2.98 0.4,-0.55 h -0.8 c 0.1,0.14 0.2,0.3 0.3,0.39 0,0.05 0,0.1 0.1,0.16 l -1.1,2.98 c 0,-1.04 0,-3.23 -3.4,-3.53 -0.9,-0.11 -0.9,-0.8 -0.9,-0.86 0,-0.89 0.8,-0.89 1.7,-0.89 h 7.7 c 0.9,0 1.6,0 1.6,0.89 0,0.45 -0.4,0.8 -0.8,0.86 -3.8,0.3 -3.8,2.39 -3.8,3.53 v 24.81 l 0.1,0.05 12.1,-29.09 c 0.4,-0.89 0.8,-1.05 1.1,-1.05 0.6,0 0.7,0.41 0.9,1 l 12.3,29.14 0,-0.05 v -24.81 l 1.7,-0.09 v 27.2 h 5.3 c -1.1,-1.25 -1.1,-2.55 -1.1,-3.44 v -23.76 c 0,-0.91 0,-2.21 1.2,-3.44 h -6.4 c 1,1.23 1,2.53 1,3.44 l -1.7,0.09 c 0,-1.04 0,-3.23 -3.4,-3.53 -0.9,-0.11 -0.9,-0.8 -0.9,-0.86 0,-0.89 0.8,-0.89 1.7,-0.89 h 13.3 c 0.9,0 1.6,0 1.6,0.89 0,0.45 -0.4,0.8 -0.8,0.86 -3.8,0.3 -3.8,2.39 -3.8,3.53 v 23.56 c 0,1.05 0,3.24 3.4,3.55 0.5,0.05 0.9,0.3 0.9,0.85 0,0.89 -0.7,0.89 -1.6,0.89 h -9.6 c -1.3,0 -1.4,0 -1.9,-1.05 z"
           id="path11386" /><path
           style="fill:#000000;stroke-width:0"
           inkscape:connector-curvature="0"
           d="m 1257.1237,894.11986 -0.1,-0.06 0,-0.07 -0.1,-0.07 -0.1,-0.07 -0.1,-0.08 -0.1,-0.08 -0.1,-0.09 0,-0.08 -0.1,-0.09 -0.1,-0.09 -0.2,-0.19 -0.2,-0.2 -0.2,-0.2 -0.1,-0.11 -0.1,-0.1 -0.1,-0.1 -0.1,-0.1 -0.1,-0.11 0,-0.1 -0.1,-0.1 -0.1,-0.1 0,-0.1 -0.1,-0.1 0,-0.1 -0.1,-0.09 0,-0.09 0,-0.09 0,-0.09 0,-0.09 c 0,-0.5 0.5,-1 1,-1 0.4,0 0.7,0.36 0.9,0.66 0.6,0.75 1.8,2.14 4,3.23 0.3,0.21 0.8,0.46 0.8,1.05 0,0.5 -0.3,0.75 -0.7,1 -1.1,0.75 -1.6,1.64 -2.1,2.83 0,0.45 -0.2,1.11 -0.9,1.11 -0.7,0 -1,-0.66 -1,-1.05 0,-0.25 0.4,-1.84 1.2,-2.89 h -16.8 c -0.9,0 -1.8,0 -1.8,-1 0,-1 0.9,-1 1.8,-1 z"
           id="path11390" /><path
           style="fill:#000000;stroke-width:0"
           inkscape:connector-curvature="0"
           d="m 1258.0237,863.60986 0,0.02 0,0.03 0,0.05 0,0.05 0,0.05 0.1,0.05 0,0.05 0,0.05 0,0.05 0,0.03 0,0.02 0,0.03 0,0.02 0,0.02 0.1,0.02 0,0.02 0,0.02 0,0.02 0,0.02 0,0.02 0,0.01 0,0.02 0,0.01 0,0.01 0,0.01 c 0,0.05 0,0.55 -0.6,0.55 -0.5,0 -0.6,-0.3 -0.6,-0.61 -3.3,-7.37 -5.1,-10.7 -13.6,-10.7 h -7.3 c -0.7,0 -0.8,0 -1.1,0.04 -0.5,0.05 -0.7,0.1 -0.7,0.5 0,0.15 0,0.25 0.3,1.15 l 3.4,13.6 h 4.9 c 4.2,0 4.2,-1.04 4.2,-2.29 0,-0.35 0,-0.96 -0.3,-2.44 -0.1,-0.25 -0.2,-0.41 -0.2,-0.55 0,-0.25 0.2,-0.54 0.7,-0.54 0.4,0 0.5,0.25 0.7,0.98 l 2.9,11.67 c 0,0.3 -0.3,0.55 -0.6,0.55 -0.5,0 -0.6,-0.3 -0.7,-0.91 -1.1,-3.78 -2,-4.92 -6.6,-4.92 h -4.6 l 3,12 c 0.4,1.75 0.5,1.94 2.6,1.94 h 7.1 c 6,0 7.5,-1.44 7.5,-5.53 0,-1.19 0,-1.28 -0.2,-2.64 0,-0.3 0,-0.64 0,-0.89 0,-0.25 0.2,-0.6 0.6,-0.6 0.6,0 0.6,0.3 0.7,1.25 l 1,8.61 c 0.1,1.35 -0.1,1.35 -1.3,1.35 h -25.2 c -1,0 -1.5,0 -1.5,-1 0,-0.55 0.4,-0.55 1.4,-0.55 1.8,0 3.2,0 3.2,-0.89 0,-0.2 0,-0.3 -0.2,-1.2 l -6.6,-26.35 c -0.5,-1.95 -0.6,-2.34 -4.5,-2.34 -0.9,0 -1.4,0 -1.4,-0.96 0,-0.59 0.4,-0.59 1.4,-0.59 h 25.8 c 1.2,0 1.2,0.05 1.6,0.84 z"
           id="path11392" /><path
           style="fill:#000000;stroke-width:0"
           inkscape:connector-curvature="0"
           d="m 1297.5237,852.04986 0,0.3 0,0.3 -0.1,0.29 0,0.28 0,0.27 -0.1,0.26 0,0.26 -0.1,0.25 0,0.23 -0.1,0.23 0,0.22 -0.1,0.21 -0.1,0.2 -0.1,0.2 -0.1,0.18 -0.1,0.17 -0.1,0.16 -0.1,0.16 -0.1,0.14 -0.2,0.13 -0.1,0.13 -0.1,0.11 -0.2,0.11 -0.1,0.09 -0.1,0.08 -0.2,0.07 -0.2,0.06 -0.1,0.05 -0.2,0.04 -0.2,0.03 -0.1,0.02 -0.2,0 c -1.7,0 -2.7,-1.25 -2.7,-2.64 0,-1.34 1,-2.64 2.7,-2.64 0.6,0 1.2,0.2 1.7,0.64 0.2,0.11 0.2,0.16 0.3,0.16 0,0 0.1,-0.05 0.1,-0.75 0,-3.69 -1.8,-6.67 -3.4,-8.31 -0.6,-0.55 -0.6,-0.66 -0.6,-0.8 0,-0.36 0.3,-0.55 0.5,-0.55 0.6,0 4.6,3.83 4.6,9.66 z"
           id="path11396" /><path
           style="fill:#000000;stroke-width:0"
           inkscape:connector-curvature="0"
           d="m 1347.0237,894.11986 -0.1,-0.06 -0.1,-0.07 0,-0.07 -0.1,-0.07 -0.1,-0.08 -0.1,-0.08 -0.1,-0.09 -0.1,-0.08 -0.1,-0.09 -0.1,-0.09 -0.2,-0.19 -0.1,-0.2 -0.2,-0.2 -0.1,-0.11 -0.1,-0.1 -0.1,-0.1 -0.1,-0.1 -0.1,-0.11 0,-0.1 -0.1,-0.1 -0.1,-0.1 0,-0.1 -0.1,-0.1 0,-0.1 -0.1,-0.09 0,-0.09 0,-0.09 0,-0.09 -0.1,-0.09 c 0,-0.5 0.5,-1 1,-1 0.5,0 0.8,0.36 1,0.66 0.6,0.75 1.7,2.14 3.9,3.23 0.4,0.21 0.9,0.46 0.9,1.05 0,0.5 -0.4,0.75 -0.7,1 -1.1,0.75 -1.7,1.64 -2.1,2.83 -0.1,0.45 -0.3,1.11 -1,1.11 -0.7,0 -1,-0.66 -1,-1.05 0,-0.25 0.4,-1.84 1.2,-2.89 h -16.8 c -0.8,0 -1.7,0 -1.7,-1 0,-1 0.9,-1 1.7,-1 z"
           id="path11398" /><path
           style="fill:#000000;stroke-width:0"
           inkscape:connector-curvature="0"
           d="m 1355.1237,880.24986 0.3,0.41 0.2,0.39 0.2,0.38 0.3,0.37 0.1,0.18 0.1,0.17 0.2,0.17 0.1,0.17 0.2,0.16 0.1,0.15 0.2,0.15 0.1,0.14 0.2,0.14 0.1,0.14 0.2,0.12 0.2,0.12 0.2,0.12 0.2,0.1 0.2,0.1 0.2,0.1 0.2,0.08 0.2,0.08 0.3,0.07 0.2,0.06 0.3,0.05 0.2,0.05 0.3,0.04 0.3,0.02 c 0.5,0.05 1,0.05 1,1 0,0.19 -0.2,0.55 -0.7,0.55 -1.1,0 -2.5,-0.15 -3.8,-0.15 -1.7,0 -3.5,0.15 -5.2,0.15 -0.3,0 -0.9,0 -0.9,-0.95 0,-0.55 0.4,-0.6 0.7,-0.6 1.2,-0.04 3,-0.45 3,-1.93 0,-0.55 -0.3,-0.96 -0.7,-1.66 l -13.4,-23.45 -1.9,24.7 c 0,1 -0.1,2.3 3.5,2.34 0.9,0 1.4,0 1.4,1 0,0.5 -0.6,0.55 -0.8,0.55 -2,0 -4.1,-0.15 -6,-0.15 -1.2,0 -4.2,0.15 -5.3,0.15 -0.3,0 -0.9,0 -0.9,-1 0,-0.55 0.5,-0.55 1.2,-0.55 2.1,0 2.5,-0.29 2.6,-1.24 l 0.3,-3.83 -12.6,-21.97 -1.9,25.25 c 0,0.59 0,1.75 3.8,1.79 0.5,0 1,0 1,1 0,0.55 -0.6,0.55 -0.7,0.55 -2,0 -4,-0.15 -6.1,-0.15 -1.7,0 -3.5,0.15 -5.2,0.15 -0.3,0 -0.9,0 -0.9,-0.95 0,-0.6 0.4,-0.6 1.2,-0.6 2.5,0 2.6,-0.45 2.7,-1.84 l 2.2,-30.44 c 0.1,-0.9 0.1,-1.29 0.8,-1.29 0.6,0 0.8,0.29 1.2,1.04 l 14.7,25.41 1.8,-25.16 c 0.1,-1.04 0.2,-1.29 0.8,-1.29 0.6,0 0.9,0.5 1.2,0.93 z"
           id="path11400" /><path
           style="fill:#000000;stroke-width:0"
           inkscape:connector-curvature="0"
           d="m 1381.4272,863.60986 0,0.03 0,0.02 0,0.03 0.1,0.03 0,0.02 0,0.02 0,0.03 0,0.02 0,0.02 0,0.02 0,0.03 0,0.02 0,0.04 0.1,0.03 0,0.04 0,0.03 0,0.03 0,0.03 0,0.03 0,0.02 0,0.03 0,0.02 0,0.02 0,0.02 0,0.02 0,0.02 0,0.02 0.1,0.02 0,0.01 0,0.02 0,0.01 0,0.01 0,0.03 0,0.03 0,0.02 c 0,0.16 0,0.25 -0.3,0.85 l -8.7,22.92 c -0.3,0.84 -0.6,1.14 -1.2,1.14 -0.5,0 -1,-0.44 -1,-0.98 0,-0.16 0,-0.25 0.3,-0.8 l 8.8,-23.13 -8.8,-23.01 c -0.3,-0.55 -0.3,-0.64 -0.3,-0.89 0,-0.55 0.5,-1 1,-1 0.7,0 0.9,0.5 1.1,1 z"
           id="path11404" /><path
           style="fill:#000000;stroke-width:0"
           inkscape:connector-curvature="0"
           d="m 1435.3272,868.29986 0.1,0 0.2,0 0.1,0 0.1,0.01 0.1,0 0,0.01 0.1,0.01 0.1,0.01 0,0.01 0.1,0.01 0.1,0.02 0,0.02 0.1,0.02 0.1,0.03 0,0.02 0.1,0.03 0,0.04 0.1,0.04 0,0.04 0.1,0.04 0,0.05 0,0.03 0.1,0.03 0,0.03 0,0.03 0,0.03 0,0.03 0,0.03 0,0.04 0,0.03 0.1,0.04 0,0.04 0,0.04 0,0.04 0,0.04 0,0.05 0,0.04 c 0,1 -1,1 -1.7,1 h -29.8 c -0.7,0 -1.6,0 -1.6,-1 0,-0.98 0.9,-0.98 1.6,-0.98 z"
           id="path11406" /><path
           style="fill:#000000;stroke-width:0"
           inkscape:connector-curvature="0"
           d="m 1435.3272,858.62986 0.1,0 0.1,0 0.1,0 0.1,0 0.1,0.01 0.1,0 0.1,0.01 0,0.01 0.1,0.01 0.1,0.01 0,0.01 0.1,0.02 0.1,0.02 0,0.02 0.1,0.03 0,0.02 0.1,0.04 0,0.03 0.1,0.04 0,0.04 0.1,0.05 0,0.02 0,0.03 0,0.02 0.1,0.03 0,0.03 0,0.03 0,0.03 0,0.04 0,0.03 0,0.04 0,0.03 0.1,0.04 0,0.04 0,0.04 0,0.04 0,0.05 0,0.04 0,0.05 c 0,1 -1,1 -1.7,1 h -29.8 c -0.7,0 -1.6,0 -1.6,-1 0,-1 0.9,-1 1.6,-1 z"
           id="path11408" /><path
           style="fill:#000000;stroke-width:0"
           inkscape:connector-curvature="0"
           d="m 1488.3161,865.33134 0.2,0 0.1,0.01 0.2,0 0.1,0 0,0.01 0.1,0.01 0.1,0 0.1,0.01 0,0.02 0.1,0.01 0.1,0.02 0,0.02 0.1,0.02 0.1,0.02 0,0.03 0.1,0.03 0,0.04 0.1,0.04 0,0.04 0.1,0.05 0,0.05 0,0.02 0,0.03 0.1,0.03 0,0.03 0,0.03 0,0.03 0,0.04 0,0.03 0,0.04 0,0.04 0,0.04 0,0.04 0.1,0.04 0,0.04 0,0.05 0,0.04 c 0,1 -0.9,1 -1.8,1 h -27 c -0.8,0 -1.7,0 -1.7,-1 0,-1 0.9,-1 1.7,-1 z"
           id="path11430" /><path
           style="fill:#000000;stroke-width:0"
           inkscape:connector-curvature="0"
           d="m 1521.7161,889.35134 0.1,0.02 0,0.03 0,0.02 0,0.03 0,0.04 0,0.04 0,0.05 0.1,0.03 0,0.04 0,0.04 0,0.03 0,0.03 0,0.03 0,0.03 0,0.03 0,0.02 0.1,0.03 0,0.02 0,0.03 0,0.02 0,0.02 0,0.02 0,0.02 0,0.03 0,0.04 0,0.04 0,0.04 0,0.04 0,0.02 0,0.03 c 0,0.54 -0.5,0.98 -1,0.98 -0.5,0 -0.8,-0.25 -1.2,-1.14 l -8.7,-22.86 c -0.1,-0.31 -0.2,-0.61 -0.2,-0.91 0,-0.14 0,-0.25 0.2,-0.84 l 8.7,-22.87 c 0.2,-0.55 0.5,-1.19 1.2,-1.19 0.5,0 1,0.45 1,1 0,0.14 0,0.25 -0.3,0.79 l -8.8,23.11 z"
           id="path11432" /><path
           style="fill:#000000;stroke-width:0"
           inkscape:connector-curvature="0"
           d="m 1551.3161,883.52134 0,-0.06 -0.1,-0.07 -0.1,-0.07 -0.1,-0.07 0,-0.08 -0.1,-0.08 -0.1,-0.09 -0.1,-0.08 -0.1,-0.09 -0.1,-0.09 -0.2,-0.19 -0.2,-0.2 -0.2,-0.2 -0.1,-0.11 -0.1,-0.1 -0.1,-0.1 0,-0.1 -0.1,-0.11 -0.1,-0.1 -0.1,-0.1 0,-0.1 -0.1,-0.1 0,-0.1 -0.1,-0.1 0,-0.09 -0.1,-0.09 0,-0.09 0,-0.09 0,-0.09 c 0,-0.5 0.5,-1 1,-1 0.5,0 0.7,0.36 1,0.66 0.5,0.75 1.7,2.14 3.9,3.23 0.3,0.21 0.8,0.46 0.8,1.05 0,0.5 -0.3,0.75 -0.7,1 -1.1,0.75 -1.6,1.64 -2,2.83 -0.1,0.45 -0.3,1.11 -1,1.11 -0.7,0 -1,-0.66 -1,-1.05 0,-0.25 0.4,-1.84 1.2,-2.89 h -16.8 c -0.8,0 -1.8,0 -1.8,-1 0,-1 1,-1 1.8,-1 z"
           id="path11434" /><path
           style="fill:#000000;stroke-width:0"
           inkscape:connector-curvature="0"
           d="m 1547.2161,875.35134 0,0.02 0,0.02 0,0.02 0,0.02 0,0.02 0,0.02 0,0.02 0,0.02 0,0.02 0,0.02 0,0.03 0,0.02 -0.1,0.02 0,0.02 0,0.02 0,0.02 0,0.01 0,0.02 0,0.02 -0.1,0.01 0,0.02 0,0.01 0,0.02 -0.1,0.01 0,0.01 0,0.01 0,0.01 -0.1,0.01 0,0 0,0.01 0,0 -0.1,0 0,0 c -0.5,0 -2.5,-1.99 -3.4,-3.44 -1.1,2.69 -3,3.49 -4.6,3.49 v -1.1 c 3.2,0 3.9,-4.03 3.9,-4.37 0,-0.31 -2.7,-11.22 -2.8,-11.42 -0.8,-1.39 -3.6,-4.58 -6.4,-4.58 h 0 c -3,0 -3.2,3.84 -3.2,4.69 0,2.39 1.5,7.81 2.3,9.9 1.6,3.69 4.2,5.78 6.2,5.78 v 1.1 c -5.9,0 -12,-7.38 -12,-14.6 0,-4.87 2.9,-7.97 6.6,-7.97 2.1,0 4.1,1.19 5.9,2.99 -0.5,-1.74 -2.1,-8.47 -2.3,-8.92 -0.4,-1.39 -0.8,-1.6 -3.6,-1.64 -0.6,0 -1.1,0 -1.1,-1 0,-0.05 0,-0.55 0.6,-0.55 1.6,0 3.4,0.15 5,0.15 1.7,0 3.5,-0.15 5.1,-0.15 0.3,0 0.9,0 0.9,1 0,0.55 -0.5,0.55 -1.2,0.55 -2.4,0 -2.4,0.36 -2.4,0.79 0,0.36 0.1,0.66 0.1,1.1 z"
           id="path11436" /><path
           style="fill:#000000;stroke-width:0"
           inkscape:connector-curvature="0"
           d="m 1583.9161,853.93134 0,0.3 0,0.3 0,0.29 0,0.28 -0.1,0.27 0,0.26 -0.1,0.26 0,0.25 -0.1,0.23 0,0.23 -0.1,0.22 -0.1,0.21 -0.1,0.2 -0.1,0.2 -0.1,0.18 -0.1,0.17 -0.1,0.16 -0.1,0.16 -0.1,0.14 -0.1,0.13 -0.1,0.13 -0.2,0.11 -0.1,0.11 -0.2,0.09 -0.1,0.08 -0.2,0.07 -0.1,0.06 -0.2,0.05 -0.2,0.04 -0.1,0.03 -0.2,0.02 -0.2,0 c -1.6,0 -2.6,-1.25 -2.6,-2.64 0,-1.34 1,-2.64 2.6,-2.64 0.6,0 1.3,0.2 1.8,0.64 0.1,0.11 0.2,0.16 0.2,0.16 0.1,0 0.1,-0.05 0.1,-0.75 0,-3.69 -1.7,-6.67 -3.4,-8.31 -0.5,-0.55 -0.5,-0.66 -0.5,-0.8 0,-0.36 0.2,-0.55 0.5,-0.55 0.5,0 4.5,3.83 4.5,9.66 z"
           id="path11440" /><path
           style="fill:#000000;stroke-width:0"
           inkscape:connector-curvature="0"
           d="m 1645.9161,896.00134 -0.1,-0.06 0,-0.07 -0.1,-0.07 -0.1,-0.07 -0.1,-0.08 -0.1,-0.08 -0.1,-0.09 0,-0.08 -0.1,-0.09 -0.1,-0.09 -0.2,-0.19 -0.2,-0.2 -0.2,-0.2 -0.1,-0.11 -0.1,-0.1 -0.1,-0.1 -0.1,-0.1 -0.1,-0.11 0,-0.1 -0.1,-0.1 -0.1,-0.1 0,-0.1 -0.1,-0.1 0,-0.1 -0.1,-0.09 0,-0.09 0,-0.09 0,-0.09 0,-0.09 c 0,-0.5 0.5,-1 1,-1 0.4,0 0.7,0.36 0.9,0.66 0.6,0.75 1.8,2.14 4,3.23 0.3,0.21 0.8,0.46 0.8,1.05 0,0.5 -0.3,0.75 -0.7,1 -1.1,0.75 -1.6,1.64 -2,2.83 -0.1,0.45 -0.3,1.11 -1,1.11 -0.7,0 -1,-0.66 -1,-1.05 0,-0.25 0.4,-1.84 1.2,-2.89 h -16.8 c -0.9,0 -1.8,0 -1.8,-1 0,-1 0.9,-1 1.8,-1 z"
           id="path11442" /><path
           style="fill:#000000;stroke-width:0"
           inkscape:connector-curvature="0"
           d="m 1641.6161,882.13134 0.2,0.41 0.2,0.39 0.3,0.38 0.2,0.37 0.2,0.18 0.1,0.17 0.1,0.17 0.2,0.17 0.1,0.16 0.1,0.15 0.2,0.15 0.2,0.14 0.1,0.14 0.2,0.14 0.2,0.12 0.1,0.12 0.2,0.12 0.2,0.1 0.2,0.1 0.2,0.1 0.2,0.08 0.3,0.08 0.2,0.07 0.3,0.06 0.2,0.05 0.3,0.05 0.3,0.04 0.3,0.02 c 0.4,0.05 0.9,0.05 0.9,1 0,0.19 -0.2,0.55 -0.6,0.55 -1.2,0 -2.6,-0.15 -3.8,-0.15 -1.7,0 -3.6,0.15 -5.2,0.15 -0.3,0 -1,0 -1,-0.95 0,-0.55 0.5,-0.6 0.8,-0.6 1.2,-0.04 2.9,-0.45 2.9,-1.93 0,-0.55 -0.2,-0.96 -0.6,-1.66 l -13.5,-23.45 -1.8,24.7 c -0.1,1 -0.2,2.3 3.5,2.34 0.8,0 1.3,0 1.3,1 0,0.5 -0.5,0.55 -0.7,0.55 -2,0 -4.1,-0.15 -6.1,-0.15 -1.2,0 -4.1,0.15 -5.2,0.15 -0.3,0 -1,0 -1,-1 0,-0.55 0.5,-0.55 1.2,-0.55 2.2,0 2.5,-0.29 2.6,-1.24 l 0.3,-3.83 -12.6,-21.97 -1.9,25.25 c 0,0.59 0,1.75 3.8,1.79 0.5,0 1.1,0 1.1,1 0,0.55 -0.6,0.55 -0.7,0.55 -2,0 -4.1,-0.15 -6.1,-0.15 -1.8,0 -3.6,0.15 -5.3,0.15 -0.2,0 -0.9,0 -0.9,-0.95 0,-0.6 0.5,-0.6 1.3,-0.6 2.5,0 2.5,-0.45 2.6,-1.84 l 2.3,-30.44 c 0,-0.9 0,-1.29 0.8,-1.29 0.6,0 0.7,0.29 1.1,1.04 l 14.7,25.41 1.8,-25.16 c 0.1,-1.04 0.2,-1.29 0.8,-1.29 0.7,0 1,0.5 1.2,0.93 z"
           id="path11444" /><path
           style="fill:#000000;stroke-width:0"
           inkscape:connector-curvature="0"
           d="m 1667.9196,865.49134 0,0.03 0,0.02 0,0.03 0,0.03 0,0.02 0,0.02 0,0.03 0,0.02 0,0.02 0,0.02 0.1,0.03 0,0.02 0,0.04 0,0.03 0,0.04 0,0.03 0,0.03 0,0.03 0,0.03 0.1,0.02 0,0.03 0,0.02 0,0.02 0,0.02 0,0.02 0,0.02 0,0.02 0,0.02 0,0.01 0,0.02 0,0.01 0,0.01 0,0.03 0,0.03 0,0.02 c 0,0.16 0,0.25 -0.2,0.85 l -8.8,22.92 c -0.3,0.84 -0.6,1.14 -1.1,1.14 -0.5,0 -1,-0.44 -1,-0.98 0,-0.16 0,-0.25 0.2,-0.8 l 8.9,-23.13 -8.9,-23.01 c -0.2,-0.55 -0.2,-0.64 -0.2,-0.89 0,-0.55 0.5,-1 1,-1 0.6,0 0.8,0.5 1,1 z"
           id="path11448" /><path
           style="fill:#000000;stroke-width:0"
           inkscape:connector-curvature="0"
           d="m 753.74935,740.3819 0,0.02 0,0.03 0,0.02 0,0.03 0,0.04 0,0.04 0.1,0.05 0,0.03 0,0.04 0,0.04 0,0.03 0,0.03 0,0.03 0,0.03 0.1,0.03 0,0.02 0,0.03 0,0.02 0,0.03 0,0.02 0,0.02 0,0.02 0,0.02 0,0.02 0,0.04 0,0.05 0,0.04 0,0.04 0,0.02 0,0.03 c 0,0.54 -0.4,0.98 -1,0.98 -0.4,0 -0.8,-0.25 -1.1,-1.14 l -8.8,-22.86 c -0.1,-0.31 -0.2,-0.61 -0.2,-0.91 0,-0.14 0,-0.25 0.2,-0.84 l 8.8,-22.88 c 0.2,-0.54 0.4,-1.18 1.1,-1.18 0.6,0 1,0.45 1,1 0,0.14 0,0.25 -0.2,0.79 l -8.9,23.11 z"
           id="path11450" /><path
           style="fill:#000000;stroke-width:0"
           inkscape:connector-curvature="0"
           d="m 774.94935,738.8919 0,0.08 0,0.08 -0.1,0.07 0,0.06 0,0.07 -0.1,0.06 0,0.06 0,0.05 0,0.05 -0.1,0.05 0,0.05 0,0.04 0,0.04 -0.1,0.04 0,0.03 0,0.04 0,0.03 -0.1,0.03 0,0.02 0,0.02 0,0.03 -0.1,0.01 0,0.02 0,0.02 -0.1,0.01 0,0.01 0,0.01 -0.1,0.01 0,0 -0.1,0 0,0.01 -0.1,0 c -0.5,0 -0.8,-0.46 -1,-1.05 l -11.4,-29.8 1.7,-0.39 0.9,2.14 0,-0.06 v -0.48 c 0,-0.11 0,-0.16 0,-0.46 0,-0.2 0,-2.09 0.7,-3.23 h -2.7 c 0.6,0.69 0.8,1.3 1.1,2.09 l -1.7,0.39 c -0.6,-1.59 -1.6,-2.34 -3,-2.48 -0.2,0 -1,-0.11 -1,-0.86 0,-0.89 0.8,-0.89 1.7,-0.89 h 8 c 0.8,0 1.6,0 1.6,0.89 0,0.75 -0.7,0.8 -1.1,0.86 -0.7,0.05 -1.9,0.25 -1.9,3.23 0,1.64 0.4,3.24 0.7,4.83 l 0.5,1.75 c 1.2,4.38 2.7,8.61 4.4,12.8 1.5,-3.33 4.5,-10.52 5.4,-12.8 h -9.8 l -0.5,-1.75 h 11 c 1.7,-4.87 1.8,-5.67 1.8,-6.72 l 1.1,-1.34 c 0.5,0.3 0.6,0.98 0.6,1.59 0,3.04 -4.3,13.14 -6.4,18.13 l -2.5,5.58 1.8,4.84 12.1,-27.56 c 0.2,-0.49 0.8,-1.69 1.5,-2.58 h -7.1 l -1.1,1.34 c -1.2,-1.2 -2.6,-1.29 -3.1,-1.34 -0.5,-0.06 -0.9,-0.41 -0.9,-0.86 0,-0.89 0.8,-0.89 1.7,-0.89 h 13 c 0.9,0 1.7,0 1.7,0.89 0,0.7 -0.7,0.8 -1.1,0.86 -1.1,0.19 -2,1.05 -3,3.28 z"
           id="path11452" /><path
           style="fill:#000000;stroke-width:0"
           inkscape:connector-curvature="0"
           d="m 831.55307,747.1519 -0.1,-0.06 -0.1,-0.07 -0.1,-0.07 0,-0.07 -0.1,-0.08 -0.1,-0.08 -0.1,-0.08 -0.1,-0.09 -0.1,-0.09 -0.1,-0.09 -0.2,-0.19 -0.2,-0.2 -0.2,-0.2 -0.1,-0.1 -0.1,-0.11 0,-0.1 -0.1,-0.1 -0.1,-0.11 -0.1,-0.1 -0.1,-0.1 0,-0.1 -0.1,-0.1 0,-0.1 -0.1,-0.09 0,-0.1 0,-0.09 -0.1,-0.09 0,-0.09 0,-0.09 c 0,-0.5 0.5,-1 1,-1 0.5,0 0.7,0.36 1,0.66 0.6,0.75 1.7,2.14 3.9,3.24 0.3,0.2 0.8,0.45 0.8,1.04 0,0.5 -0.3,0.75 -0.7,1 -1.1,0.75 -1.6,1.64 -2,2.83 -0.1,0.45 -0.3,1.11 -1,1.11 -0.7,0 -1,-0.66 -1,-1.05 0,-0.25 0.4,-1.84 1.2,-2.89 h -16.8 c -0.8,0 -1.7,0 -1.7,-1 0,-1 0.9,-1 1.7,-1 z"
           id="path11456" /><path
           style="fill:#000000;stroke-width:0"
           inkscape:connector-curvature="0"
           d="m 832.35307,716.5219 0,0.02 0,0.03 0,0.05 0.1,0.05 0,0.05 0,0.05 0,0.05 0,0.05 0.1,0.05 0,0.03 0,0.02 0,0.02 0,0.03 0,0.02 0,0.02 0,0.02 0,0.02 0,0.02 0,0.02 0,0.01 0,0.02 0,0.02 0,0.01 0,0.01 0,0.01 c 0,0.05 0,0.55 -0.6,0.55 -0.4,0 -0.5,-0.3 -0.6,-0.61 -3.2,-7.37 -5.1,-10.7 -13.6,-10.7 h -7.3 c -0.7,0 -0.8,0 -1.1,0.04 -0.5,0.05 -0.6,0.1 -0.6,0.5 0,0.14 0,0.25 0.2,1.14 l 3.4,13.61 h 5 c 4.2,0 4.2,-1.04 4.2,-2.29 0,-0.35 0,-0.96 -0.4,-2.44 -0.1,-0.25 -0.1,-0.41 -0.1,-0.55 0,-0.25 0.2,-0.54 0.6,-0.54 0.4,0 0.6,0.25 0.8,0.98 l 2.8,11.67 c 0,0.3 -0.2,0.55 -0.6,0.55 -0.4,0 -0.5,-0.3 -0.7,-0.91 -1,-3.78 -1.9,-4.92 -6.5,-4.92 h -4.7 l 3,12 c 0.4,1.75 0.5,1.94 2.7,1.94 h 7 c 6.1,0 7.6,-1.44 7.6,-5.53 0,-1.19 0,-1.28 -0.2,-2.64 0,-0.3 -0.1,-0.64 -0.1,-0.89 0,-0.25 0.2,-0.6 0.6,-0.6 0.6,0 0.6,0.3 0.7,1.25 l 1,8.61 c 0.2,1.35 -0.1,1.35 -1.3,1.35 h -25.2 c -1,0 -1.5,0 -1.5,-1 0,-0.55 0.5,-0.55 1.4,-0.55 1.9,0 3.3,0 3.3,-0.89 0,-0.21 0,-0.3 -0.3,-1.21 l -6.6,-26.34 c -0.5,-1.95 -0.6,-2.34 -4.5,-2.34 -0.8,0 -1.4,0 -1.4,-0.96 0,-0.59 0.5,-0.59 1.4,-0.59 h 25.9 c 1.1,0 1.2,0.05 1.5,0.84 z"
           id="path11458" /><path
           style="fill:#000000;stroke-width:0"
           inkscape:connector-curvature="0"
           d="m 870.00495,716.3619 0.1,0 0.2,0 0.2,0.01 0,0 0.1,0.01 0.1,0.01 0.1,0 0,0.01 0.1,0.02 0.1,0.01 0.1,0.02 0,0.02 0.1,0.02 0,0.02 0.1,0.03 0.1,0.03 0,0.04 0.1,0.04 0,0.04 0,0.04 0.1,0.05 0,0.03 0,0.03 0,0.03 0.1,0.03 0,0.03 0,0.03 0,0.04 0,0.03 0,0.04 0,0.04 0,0.04 0,0.04 0,0.04 0,0.04 0,0.05 0,0.04 c 0,1 -0.9,1 -1.7,1 h -27 c -0.8,0 -1.7,0 -1.7,-1 0,-1 0.9,-1 1.7,-1 z"
           id="path11462" /><path
           style="fill:#000000;stroke-width:0"
           inkscape:connector-curvature="0"
           d="m 910.20495,715.3819 -9.5,22.65 c -0.4,1 -0.5,1 -1.8,1 l 0.2,-1.73 9.6,-22.83 c 0.4,-0.84 0.4,-0.89 1,-1.09 l -2.2,-5.28 h -0.1 l -11.3,27.11 c -0.3,0.64 -0.7,1.48 -1.4,2.09 h 4.4 l -0.2,1.73 h -9.3 c -0.9,0 -1.6,0 -1.6,-0.89 0,-0.84 0.9,-0.84 1.1,-0.84 0.6,0 1.9,-0.11 3,-0.5 v -26.61 l 1.1,-2.98 0.4,-0.55 h -0.8 c 0.1,0.14 0.2,0.3 0.3,0.39 0,0.05 0,0.09 0.1,0.16 l -1.1,2.98 c 0,-1.05 0,-3.23 -3.3,-3.53 -1,-0.11 -1,-0.8 -1,-0.86 0,-0.89 0.8,-0.89 1.7,-0.89 h 7.7 c 0.9,0 1.7,0 1.7,0.89 0,0.45 -0.4,0.8 -0.8,0.86 -3.9,0.3 -3.9,2.39 -3.9,3.53 v 24.81 l 0.1,0.05 12.1,-29.09 c 0.4,-0.89 0.8,-1.05 1.1,-1.05 0.6,0 0.7,0.41 1,1 l 12.2,29.14 0,-0.05 v -24.81 l 1.8,-0.09 v 27.2 h 5.3 c -1.1,-1.25 -1.1,-2.55 -1.1,-3.44 v -23.76 c 0,-0.91 0,-2.21 1.1,-3.44 h -6.4 c 1.1,1.23 1.1,2.53 1.1,3.44 l -1.8,0.09 c 0,-1.05 0,-3.23 -3.3,-3.53 -1,-0.11 -1,-0.8 -1,-0.86 0,-0.89 0.8,-0.89 1.7,-0.89 h 13.3 c 0.9,0 1.6,0 1.6,0.89 0,0.45 -0.4,0.8 -0.8,0.86 -3.8,0.3 -3.8,2.39 -3.8,3.53 v 23.56 c 0,1.05 0,3.24 3.4,3.55 0.5,0.05 0.9,0.3 0.9,0.84 0,0.89 -0.7,0.89 -1.6,0.89 h -9.6 c -1.3,0 -1.4,0 -1.9,-1.04 z"
           id="path11464" /><path
           style="fill:#000000;stroke-width:0"
           inkscape:connector-curvature="0"
           d="m 970.92662,747.1519 -0.1,-0.06 0,-0.07 -0.1,-0.07 -0.1,-0.07 -0.1,-0.08 -0.1,-0.08 -0.1,-0.08 0,-0.09 -0.1,-0.09 -0.1,-0.09 -0.2,-0.19 -0.19996,-0.2 -0.2,-0.2 -0.1,-0.1 -0.1,-0.11 -0.1,-0.1 -0.1,-0.1 -0.1,-0.11 0,-0.1 -0.1,-0.1 -0.1,-0.1 0,-0.1 -0.1,-0.1 0,-0.09 -0.1,-0.1 0,-0.09 0,-0.09 0,-0.09 0,-0.09 c 0,-0.5 0.5,-1 1,-1 0.39996,0 0.69996,0.36 0.89996,0.66 0.6,0.75 1.79998,2.14 3.99996,3.24 0.3,0.2 0.8,0.45 0.8,1.04 0,0.5 -0.3,0.75 -0.7,1 -1.09998,0.75 -1.59998,1.64 -2.09998,2.83 0,0.45 -0.2,1.11 -0.89998,1.11 -0.7,0 -1,-0.66 -1,-1.05 0,-0.25 0.4,-1.84 1.19998,-2.89 h -16.7998 c -0.9,0 -1.8,0 -1.8,-1 0,-1 0.9,-1 1.8,-1 z"
           id="path11468" /><path
           style="fill:#000000;stroke-width:0"
           inkscape:connector-curvature="0"
           d="m 971.8266,716.5219 0,0.02 0,0.03 0,0.05 0,0.05 0,0.05 0.1,0.05 0,0.05 0,0.05 0,0.05 0,0.03 0,0.02 0,0.02 0,0.03 0,0.02 0.1,0.02 0,0.02 0,0.02 0,0.02 0,0.02 0,0.01 0,0.02 0,0.02 0,0.01 0,0.01 0,0.01 c 0,0.05 0,0.55 -0.59998,0.55 -0.5,0 -0.6,-0.3 -0.6,-0.61 -3.29996,-7.37 -5.09994,-10.7 -13.59986,-10.7 h -7.29992 c -0.7,0 -0.79998,0 -1.09998,0.04 -0.5,0.05 -0.7,0.1 -0.7,0.5 0,0.14 0,0.25 0.3,1.14 l 3.39996,13.61 h 4.89994 c 4.19996,0 4.19996,-1.04 4.19996,-2.29 0,-0.35 0,-0.96 -0.3,-2.44 -0.1,-0.25 -0.19998,-0.41 -0.19998,-0.55 0,-0.25 0.19998,-0.54 0.69998,-0.54 0.4,0 0.5,0.25 0.7,0.98 l 2.89996,11.67 c 0,0.3 -0.3,0.55 -0.59996,0.55 -0.5,0 -0.6,-0.3 -0.7,-0.91 -1.1,-3.78 -2,-4.92 -6.59996,-4.92 h -4.59994 l 2.99998,12 c 0.4,1.75 0.5,1.94 2.59996,1.94 h 7.09992 c 5.99994,0 7.49992,-1.44 7.49992,-5.53 0,-1.19 0,-1.28 -0.2,-2.64 0,-0.3 0,-0.64 0,-0.89 0,-0.25 0.2,-0.6 0.6,-0.6 0.6,0 0.6,0.3 0.7,1.25 l 0.99998,8.61 c 0.1,1.35 -0.1,1.35 -1.29998,1.35 h -25.19974 c -0.99998,0 -1.49998,0 -1.49998,-1 0,-0.55 0.4,-0.55 1.39998,-0.55 1.79998,0 3.19996,0 3.19996,-0.89 0,-0.21 0,-0.3 -0.19998,-1.21 l -6.59994,-26.34 c -0.5,-1.95 -0.6,-2.34 -4.49996,-2.34 -0.89998,0 -1.39998,0 -1.39998,-0.96 0,-0.59 0.4,-0.59 1.39998,-0.59 h 25.79974 c 1.19998,0 1.19998,0.05 1.59998,0.84 z"
           id="path11470" /><path
           style="fill:#000000;stroke-width:0"
           inkscape:connector-curvature="0"
           d="m 981.2225,704.9619 0,0.3 0,0.3 -0.1,0.29 0,0.28 0,0.27 -0.1,0.26 0,0.26 -0.1,0.25 0,0.23 -0.1,0.23 0,0.22 -0.1,0.21 -0.1,0.2 -0.1,0.2 -0.1,0.18 -0.1,0.17 -0.1,0.16 -0.1,0.16 -0.1,0.14 -0.2,0.13 -0.1,0.13 -0.1,0.11 -0.2,0.1 -0.1,0.1 -0.1,0.08 -0.2,0.07 -0.2,0.06 -0.1,0.05 -0.2,0.04 -0.2,0.03 -0.1,0.02 -0.2,0 c -1.69996,0 -2.69996,-1.25 -2.69996,-2.64 0,-1.34 1,-2.64 2.69996,-2.64 0.6,0 1.2,0.2 1.69998,0.64 0.2,0.11 0.2,0.16 0.3,0.16 0,0 0.1,-0.05 0.1,-0.75 0,-3.69 -1.79998,-6.67 -3.39994,-8.32 -0.6,-0.54 -0.6,-0.65 -0.6,-0.79 0,-0.36 0.3,-0.55 0.5,-0.55 0.6,0 4.59994,3.83 4.59994,9.66 z"
           id="path11474" /><path
           style="fill:#000000;stroke-width:0"
           inkscape:connector-curvature="0"
           d="m 1030.7223,747.1519 -0.1,-0.06 -0.1,-0.07 0,-0.07 -0.1,-0.07 -0.1,-0.08 -0.1,-0.08 -0.1,-0.08 -0.1,-0.09 -0.1,-0.09 -0.1,-0.09 -0.2,-0.19 -0.1,-0.2 -0.2,-0.2 -0.1,-0.1 -0.1,-0.11 -0.1,-0.1 -0.1,-0.1 -0.1,-0.11 0,-0.1 -0.1,-0.1 -0.1,-0.1 0,-0.1 -0.1,-0.1 0,-0.09 -0.1,-0.1 0,-0.09 0,-0.09 0,-0.09 -0.1,-0.09 c 0,-0.5 0.5,-1 1,-1 0.5,0 0.8,0.36 1,0.66 0.6,0.75 1.7,2.14 3.9,3.24 0.4,0.2 0.9,0.45 0.9,1.04 0,0.5 -0.4,0.75 -0.7,1 -1.1,0.75 -1.7,1.64 -2.1,2.83 -0.1,0.45 -0.3,1.11 -1,1.11 -0.7,0 -1,-0.66 -1,-1.05 0,-0.25 0.4,-1.84 1.2,-2.89 h -16.8 c -0.8,0 -1.7,0 -1.7,-1 0,-1 0.9,-1 1.7,-1 z"
           id="path11476" /><path
           style="fill:#000000;stroke-width:0"
           inkscape:connector-curvature="0"
           d="m 1038.8223,733.1619 0.3,0.41 0.2,0.39 0.2,0.38 0.3,0.37 0.1,0.18 0.1,0.17 0.2,0.17 0.1,0.17 0.2,0.16 0.1,0.15 0.2,0.15 0.1,0.14 0.2,0.14 0.1,0.13 0.2,0.13 0.2,0.12 0.2,0.12 0.2,0.1 0.2,0.1 0.2,0.09 0.2,0.09 0.2,0.08 0.3,0.07 0.2,0.06 0.3,0.05 0.2,0.05 0.3,0.04 0.3,0.02 c 0.5,0.05 1,0.05 1,1 0,0.19 -0.2,0.55 -0.7,0.55 -1.1,0 -2.5,-0.15 -3.8,-0.15 -1.7,0 -3.5,0.15 -5.2,0.15 -0.3,0 -0.9,0 -0.9,-0.95 0,-0.55 0.4,-0.6 0.7,-0.6 1.2,-0.04 3,-0.45 3,-1.93 0,-0.55 -0.3,-0.96 -0.7,-1.66 l -13.4,-23.45 -1.9,24.7 c 0,1 -0.1,2.3 3.5,2.34 0.9,0 1.4,0 1.4,1 0,0.5 -0.6,0.55 -0.8,0.55 -2,0 -4.1,-0.15 -6,-0.15 -1.2,0 -4.2,0.15 -5.3,0.15 -0.3,0 -0.9,0 -0.9,-1 0,-0.55 0.5,-0.55 1.2,-0.55 2.1,0 2.5,-0.29 2.6,-1.25 l 0.3,-3.82 -12.6,-21.97 -1.9,25.25 c 0,0.59 0,1.75 3.8,1.79 0.5,0 1,0 1,1 0,0.55 -0.6,0.55 -0.7,0.55 -2,0 -4,-0.15 -6.1,-0.15 -1.7,0 -3.49996,0.15 -5.19996,0.15 -0.3,0 -0.89998,0 -0.89998,-0.95 0,-0.6 0.39998,-0.6 1.19998,-0.6 2.5,0 2.6,-0.45 2.7,-1.84 l 2.19996,-30.44 c 0.1,-0.9 0.1,-1.29 0.8,-1.29 0.6,0 0.8,0.29 1.2,1.04 l 14.7,25.41 1.8,-25.16 c 0.1,-1.04 0.2,-1.29 0.8,-1.29 0.6,0 0.9,0.5 1.2,0.93 z"
           id="path11478" /><path
           style="fill:#000000;stroke-width:0"
           inkscape:connector-curvature="0"
           d="m 1063.2443,716.5219 0,0.03 0,0.02 0,0.03 0.1,0.02 0,0.03 0,0.02 0,0.03 0,0.02 0,0.02 0,0.02 0,0.02 0,0.03 0,0.03 0.1,0.04 0,0.04 0,0.03 0,0.03 0,0.03 0,0.03 0,0.02 0,0.03 0,0.02 0,0.02 0,0.02 0,0.02 0,0.02 0,0.02 0.1,0.01 0,0.02 0,0.02 0,0.01 0,0.01 0,0.03 0,0.03 0,0.02 c 0,0.16 0,0.25 -0.3,0.85 l -8.7,22.92 c -0.3,0.84 -0.6,1.14 -1.2,1.14 -0.5,0 -1,-0.44 -1,-0.98 0,-0.16 0,-0.26 0.3,-0.8 l 8.8,-23.13 -8.8,-23.01 c -0.3,-0.55 -0.3,-0.64 -0.3,-0.89 0,-0.55 0.5,-1 1,-1 0.7,0 0.9,0.5 1.1,1 z"
           id="path11482" /><path
           style="fill:#000000;stroke-width:0"
           inkscape:connector-curvature="0"
           d="m 1117.1443,721.2119 0.1,0 0.2,0 0.1,0 0.1,0.01 0.1,0 0,0.01 0.1,0.01 0.1,0.01 0,0.01 0.1,0.01 0.1,0.02 0,0.02 0.1,0.02 0.1,0.02 0,0.03 0.1,0.03 0,0.04 0.1,0.04 0,0.04 0.1,0.04 0,0.05 0,0.03 0.1,0.03 0,0.02 0,0.03 0,0.04 0,0.03 0,0.03 0,0.04 0,0.03 0.1,0.04 0,0.04 0,0.04 0,0.04 0,0.04 0,0.05 0,0.04 c 0,1 -1,1 -1.7,1 h -29.8 c -0.7,0 -1.6,0 -1.6,-1 0,-0.98 0.9,-0.98 1.6,-0.98 z"
           id="path11484" /><path
           style="fill:#000000;stroke-width:0"
           inkscape:connector-curvature="0"
           d="m 1117.1443,711.5319 0.1,0.01 0.1,0 0.1,0 0.1,0 0.1,0.01 0.1,0 0.1,0.01 0,0.01 0.1,0.01 0.1,0.01 0,0.01 0.1,0.02 0.1,0.02 0,0.02 0.1,0.02 0,0.03 0.1,0.03 0,0.04 0.1,0.04 0,0.04 0.1,0.05 0,0.02 0,0.03 0,0.02 0.1,0.03 0,0.03 0,0.03 0,0.03 0,0.04 0,0.03 0,0.03 0,0.04 0.1,0.04 0,0.04 0,0.04 0,0.04 0,0.04 0,0.05 0,0.04 c 0,1 -1,1 -1.7,1 h -29.8 c -0.7,0 -1.6,0 -1.6,-1 0,-1 0.9,-1 1.6,-1 z"
           id="path11486" /><path
           style="fill:#000000;stroke-width:0"
           inkscape:connector-curvature="0"
           d="m 1151.8443,740.3819 0,0.02 0,0.03 0,0.02 0,0.03 0,0.04 0,0.04 0.1,0.05 0,0.03 0,0.04 0,0.04 0,0.03 0,0.03 0,0.03 0,0.03 0.1,0.03 0,0.02 0,0.03 0,0.02 0,0.03 0,0.02 0,0.02 0,0.02 0,0.02 0,0.02 0,0.04 0,0.05 0,0.04 0,0.04 0,0.02 0,0.03 c 0,0.54 -0.4,0.98 -1,0.98 -0.4,0 -0.8,-0.25 -1.1,-1.14 l -8.8,-22.86 c -0.1,-0.31 -0.2,-0.61 -0.2,-0.91 0,-0.14 0,-0.25 0.2,-0.84 l 8.8,-22.88 c 0.2,-0.54 0.4,-1.18 1.1,-1.18 0.6,0 1,0.45 1,1 0,0.14 0,0.25 -0.2,0.79 l -8.9,23.11 z"
           id="path11488" /><path
           style="fill:#000000;stroke-width:0"
           inkscape:connector-curvature="0"
           d="m 1186.9178,716.3619 0.1,0 0.2,0 0.1,0.01 0.1,0 0.1,0.01 0.1,0.01 0,0 0.1,0.01 0.1,0.02 0.1,0.01 0,0.02 0.1,0.02 0.1,0.02 0,0.02 0.1,0.03 0,0.03 0.1,0.04 0,0.04 0.1,0.04 0,0.04 0.1,0.05 0,0.03 0,0.03 0,0.03 0,0.03 0,0.03 0.1,0.03 0,0.04 0,0.03 0,0.04 0,0.04 0,0.04 0,0.04 0,0.04 0,0.04 0,0.05 0,0.04 c 0,1 -0.9,1 -1.7,1 h -27 c -0.8,0 -1.7,0 -1.7,-1 0,-1 0.9,-1 1.7,-1 z"
           id="path11496" /><path
           style="fill:#000000;stroke-width:0"
           inkscape:connector-curvature="0"
           d="m 1235.6178,747.7519 0,-0.06 -0.1,-0.07 -0.1,-0.07 -0.1,-0.07 -0.1,-0.08 0,-0.08 -0.1,-0.09 -0.1,-0.08 -0.1,-0.09 -0.1,-0.1 -0.2,-0.19 -0.2,-0.19 -0.2,-0.21 -0.1,-0.1 -0.1,-0.1 -0.1,-0.1 -0.1,-0.11 0,-0.1 -0.1,-0.1 -0.1,-0.1 0,-0.1 -0.1,-0.1 -0.1,-0.1 0,-0.1 0,-0.09 -0.1,-0.09 0,-0.1 0,-0.08 0,-0.09 c 0,-0.5 0.5,-1 1,-1 0.4,0 0.7,0.36 0.9,0.66 0.6,0.75 1.8,2.14 4,3.23 0.3,0.21 0.8,0.46 0.8,1.05 0,0.5 -0.3,0.75 -0.7,1 -1.1,0.75 -1.6,1.64 -2,2.83 -0.1,0.45 -0.3,1.11 -1,1.11 -0.7,0 -1,-0.66 -1,-1.05 0,-0.25 0.4,-1.84 1.2,-2.89 h -16.8 c -0.9,0 -1.8,0 -1.8,-1 0,-1 0.9,-1 1.8,-1 z"
           id="path11498" /><path
           style="fill:#000000;stroke-width:0"
           inkscape:connector-curvature="0"
           d="m 1229.5178,738.9419 0,0 0,0.01 0,0 0,0.02 0,0.01 0,0.01 0,0.02 0,0.02 0,0.02 0,0.02 0,0.02 0,0.02 0,0.02 0,0.03 0,0.02 0,0.03 0,0.02 -0.1,0.03 0,0.02 0,0.02 0,0.03 0,0.01 0,0.01 -0.1,0.01 0,0.01 0,0.01 0,0.01 0,0.01 0,0.01 0,0.01 -0.1,0.01 0,0 0,0.01 0,0.01 0,0.01 -0.1,0 0,0.01 0,0 0,0.01 -0.1,0 0,0 0,0 0,0.01 -0.1,0 0,0 c -0.7,0 -5.5,-0.46 -6.3,-0.55 -0.4,-0.05 -0.7,-0.3 -0.7,-0.95 0,-0.6 0.4,-0.6 1.2,-0.6 2.4,0 2.5,-0.34 2.5,-0.84 l -0.2,-1 -3,-11.81 c -0.9,1.84 -2.3,3.19 -4.6,3.19 l 0.1,-1.1 c 3.2,0 3.9,-4.08 3.9,-4.37 0,-0.32 -0.1,-0.61 -0.1,-0.86 l -2.5,-9.77 c -0.3,-0.89 -0.3,-0.98 -1,-1.84 -2.2,-2.74 -4.3,-3.53 -5.6,-3.53 -2.5,0 -3.2,2.73 -3.2,4.68 0,2.49 1.6,8.61 2.7,10.91 1.6,2.94 3.8,4.78 5.8,4.78 l -0.1,1.1 c -5.8,0 -12,-7.32 -12,-14.6 0,-4.69 2.8,-7.97 6.7,-7.97 0.9,0 3.4,0.21 6.4,3.74 0.4,-2.1 2.2,-3.74 4.6,-3.74 1.7,0 2.9,1.14 3.7,2.74 0.8,1.79 1.5,4.84 1.5,4.93 0,0.5 -0.5,0.5 -0.6,0.5 -0.5,0 -0.6,-0.2 -0.7,-0.9 -0.9,-3.24 -1.8,-6.17 -3.8,-6.17 -1.4,0 -1.5,1.29 -1.5,2.29 0,1.19 0.1,1.55 0.3,2.39 z"
           id="path11500" /><path
           style="fill:#000000;stroke-width:0"
           inkscape:connector-curvature="0"
           d="m 1291.2918,716.3619 0.2,0 0.1,0 0.2,0.01 0.1,0 0.1,0.01 0,0.01 0.1,0 0.1,0.01 0.1,0.02 0,0.01 0.1,0.02 0.1,0.02 0,0.02 0.1,0.02 0,0.03 0.1,0.03 0,0.04 0.1,0.04 0,0.04 0.1,0.04 0,0.05 0,0.03 0.1,0.03 0,0.03 0,0.03 0,0.03 0,0.03 0,0.04 0,0.03 0,0.04 0.1,0.04 0,0.04 0,0.04 0,0.04 0,0.04 0,0.05 0,0.04 c 0,1 -0.9,1 -1.8,1 h -26.9 c -0.9,0 -1.8,0 -1.8,-1 0,-1 0.9,-1 1.8,-1 z"
           id="path11504" /><path
           style="fill:#000000;stroke-width:0"
           inkscape:connector-curvature="0"
           d="m 1334.8918,734.5519 0,-0.06 -0.1,-0.07 -0.1,-0.07 -0.1,-0.07 -0.1,-0.08 0,-0.08 -0.1,-0.09 -0.1,-0.08 -0.1,-0.09 -0.1,-0.09 -0.2,-0.2 -0.2,-0.19 -0.2,-0.2 -0.1,-0.11 -0.1,-0.1 -0.1,-0.1 -0.1,-0.1 0,-0.11 -0.1,-0.1 -0.1,-0.1 0,-0.1 -0.1,-0.1 -0.1,-0.1 0,-0.1 0,-0.09 -0.1,-0.09 0,-0.09 0,-0.09 0,-0.09 c 0,-0.5 0.5,-1 1,-1 0.4,0 0.7,0.36 0.9,0.66 0.6,0.75 1.8,2.14 4,3.23 0.3,0.21 0.8,0.46 0.8,1.05 0,0.5 -0.3,0.75 -0.7,1 -1.1,0.75 -1.6,1.64 -2,2.83 -0.1,0.45 -0.3,1.11 -1,1.11 -0.7,0 -1,-0.66 -1,-1.05 0,-0.25 0.4,-1.84 1.2,-2.89 h -16.8 c -0.8,0 -1.8,0 -1.8,-1 0,-1 1,-1 1.8,-1 z"
           id="path11506" /><path
           style="fill:#000000;stroke-width:0"
           inkscape:connector-curvature="0"
           d="m 1330.7918,726.3819 0,0.02 0,0.02 0,0.02 0,0.02 0,0.02 0,0.02 0,0.02 0,0.02 0,0.02 0,0.02 0,0.03 -0.1,0.02 0,0.02 0,0.02 0,0.02 0,0.02 0,0.01 0,0.02 -0.1,0.02 0,0.01 0,0.02 0,0.01 0,0.02 -0.1,0.01 0,0.01 0,0.01 0,0.01 -0.1,0.01 0,0 0,0.01 -0.1,0 0,0 0,0 c -0.5,0 -2.5,-1.99 -3.4,-3.44 -1.1,2.69 -3,3.49 -4.6,3.49 v -1.1 c 3.2,0 3.9,-4.03 3.9,-4.37 0,-0.32 -2.7,-11.22 -2.9,-11.43 -0.7,-1.39 -3.5,-4.57 -6.3,-4.57 h 0 c -3,0 -3.2,3.84 -3.2,4.68 0,2.39 1.5,7.82 2.3,9.91 1.6,3.69 4.2,5.78 6.2,5.78 v 1.1 c -5.9,0 -12,-7.38 -12,-14.6 0,-4.87 2.9,-7.97 6.6,-7.97 2.1,0 4,1.19 5.9,2.99 -0.5,-1.74 -2.1,-8.47 -2.3,-8.92 -0.4,-1.4 -0.8,-1.6 -3.6,-1.64 -0.6,0 -1.1,0 -1.1,-1 0,-0.05 0,-0.55 0.6,-0.55 1.6,0 3.4,0.15 5,0.15 1.7,0 3.5,-0.15 5.1,-0.15 0.3,0 0.9,0 0.9,1 0,0.55 -0.5,0.55 -1.3,0.55 -2.4,0 -2.4,0.35 -2.4,0.79 0,0.36 0.1,0.66 0.2,1.1 z"
           id="path11508" /><path
           style="fill:#000000;stroke-width:0"
           inkscape:connector-curvature="0"
           d="m 1345.8423,704.9619 0,0.3 0,0.3 -0.1,0.29 0,0.28 0,0.27 -0.1,0.26 0,0.26 -0.1,0.25 0,0.23 -0.1,0.23 0,0.22 -0.1,0.21 -0.1,0.2 -0.1,0.2 -0.1,0.18 -0.1,0.17 -0.1,0.16 -0.1,0.16 -0.1,0.14 -0.1,0.13 -0.2,0.13 -0.1,0.11 -0.2,0.1 -0.1,0.1 -0.1,0.08 -0.2,0.07 -0.2,0.06 -0.1,0.05 -0.2,0.04 -0.2,0.03 -0.1,0.02 -0.2,0 c -1.7,0 -2.7,-1.25 -2.7,-2.64 0,-1.34 1,-2.64 2.7,-2.64 0.6,0 1.2,0.2 1.7,0.64 0.2,0.11 0.2,0.16 0.3,0.16 0,0 0.1,-0.05 0.1,-0.75 0,-3.69 -1.8,-6.67 -3.4,-8.32 -0.6,-0.54 -0.6,-0.65 -0.6,-0.79 0,-0.36 0.3,-0.55 0.5,-0.55 0.6,0 4.6,3.83 4.6,9.66 z"
           id="path11520" /><path
           style="fill:#000000;stroke-width:0"
           inkscape:connector-curvature="0"
           d="m 1395.3423,747.1519 -0.1,-0.06 -0.1,-0.07 0,-0.07 -0.1,-0.07 -0.1,-0.08 -0.1,-0.08 -0.1,-0.08 -0.1,-0.09 -0.1,-0.09 -0.1,-0.09 -0.2,-0.19 -0.1,-0.2 -0.2,-0.2 -0.1,-0.1 -0.1,-0.11 -0.1,-0.1 -0.1,-0.1 -0.1,-0.11 0,-0.1 -0.1,-0.1 -0.1,-0.1 0,-0.1 -0.1,-0.1 0,-0.09 -0.1,-0.1 0,-0.09 0,-0.09 0,-0.09 -0.1,-0.09 c 0,-0.5 0.6,-1 1,-1 0.5,0 0.7,0.36 1,0.66 0.6,0.75 1.7,2.14 3.9,3.24 0.4,0.2 0.9,0.45 0.9,1.04 0,0.5 -0.4,0.75 -0.7,1 -1.1,0.75 -1.7,1.64 -2.1,2.83 -0.1,0.45 -0.3,1.11 -1,1.11 -0.7,0 -1,-0.66 -1,-1.05 0,-0.25 0.4,-1.84 1.2,-2.89 h -16.7 c -0.9,0 -1.8,0 -1.8,-1 0,-1 0.9,-1 1.8,-1 z"
           id="path11522" /><path
           style="fill:#000000;stroke-width:0"
           inkscape:connector-curvature="0"
           d="m 1403.4423,733.1619 0.3,0.41 0.2,0.39 0.2,0.38 0.3,0.37 0.1,0.18 0.1,0.17 0.2,0.17 0.1,0.17 0.2,0.16 0.1,0.15 0.2,0.15 0.1,0.14 0.2,0.14 0.1,0.13 0.2,0.13 0.2,0.12 0.2,0.12 0.2,0.1 0.2,0.1 0.2,0.09 0.2,0.09 0.2,0.08 0.3,0.07 0.2,0.06 0.3,0.05 0.2,0.05 0.3,0.04 0.3,0.02 c 0.5,0.05 1,0.05 1,1 0,0.19 -0.2,0.55 -0.6,0.55 -1.2,0 -2.6,-0.15 -3.9,-0.15 -1.7,0 -3.5,0.15 -5.2,0.15 -0.3,0 -0.9,0 -0.9,-0.95 0,-0.55 0.4,-0.6 0.7,-0.6 1.2,-0.04 3,-0.45 3,-1.93 0,-0.55 -0.3,-0.96 -0.7,-1.66 l -13.4,-23.45 -1.9,24.7 c 0,1 -0.1,2.3 3.5,2.34 0.9,0 1.4,0 1.4,1 0,0.5 -0.6,0.55 -0.8,0.55 -2,0 -4.1,-0.15 -6.1,-0.15 -1.1,0 -4.1,0.15 -5.2,0.15 -0.3,0 -0.9,0 -0.9,-1 0,-0.55 0.5,-0.55 1.2,-0.55 2.2,0 2.5,-0.29 2.6,-1.25 l 0.3,-3.82 -12.6,-21.97 -1.9,25.25 c 0,0.59 0,1.75 3.8,1.79 0.5,0 1,0 1,1 0,0.55 -0.6,0.55 -0.7,0.55 -2,0 -4.1,-0.15 -6.1,-0.15 -1.7,0 -3.5,0.15 -5.2,0.15 -0.3,0 -0.9,0 -0.9,-0.95 0,-0.6 0.4,-0.6 1.2,-0.6 2.5,0 2.6,-0.45 2.7,-1.84 l 2.2,-30.44 c 0.1,-0.9 0.1,-1.29 0.8,-1.29 0.6,0 0.7,0.29 1.2,1.04 l 14.7,25.41 1.8,-25.16 c 0.1,-1.04 0.2,-1.29 0.8,-1.29 0.6,0 0.9,0.5 1.2,0.93 z"
           id="path11524" /><path
           style="fill:#000000;stroke-width:0"
           inkscape:connector-curvature="0"
           d="m 1431.6273,716.5219 0,0.03 0,0.02 0,0.03 0.1,0.02 0,0.03 0,0.02 0,0.03 0,0.02 0,0.02 0,0.02 0,0.02 0,0.03 0,0.03 0.1,0.04 0,0.04 0,0.03 0,0.03 0,0.03 0,0.03 0,0.02 0,0.03 0,0.02 0,0.02 0,0.02 0,0.02 0,0.02 0,0.02 0.1,0.01 0,0.02 0,0.02 0,0.01 0,0.01 0,0.03 0,0.03 0,0.02 c 0,0.16 0,0.25 -0.3,0.85 l -8.7,22.92 c -0.3,0.84 -0.6,1.14 -1.1,1.14 -0.6,0 -1,-0.44 -1,-0.98 0,-0.16 0,-0.26 0.2,-0.8 l 8.8,-23.13 -8.8,-23.01 c -0.2,-0.55 -0.2,-0.64 -0.2,-0.89 0,-0.55 0.4,-1 1,-1 0.6,0 0.8,0.5 1,1 z"
           id="path11528" /></g>    </g>
    <g
       id="g12810"
       transform="translate(-643.64531,268.0436)">
      <g
         word-spacing="normal"
         letter-spacing="normal"
         font-size-adjust="none"
         font-stretch="normal"
         font-weight="normal"
         font-variant="normal"
         font-style="normal"
         stroke-miterlimit="10.433"
         xml:space="preserve"
         transform="matrix(1.0629921,0,0,-1.0629921,-186.02362,789.27165)"
         id="g12812"
         style="font-style:normal;font-variant:normal;font-weight:normal;font-stretch:normal;letter-spacing:normal;word-spacing:normal;text-anchor:start;fill:none;stroke:#000000;stroke-linecap:butt;stroke-linejoin:miter;stroke-miterlimit:10.43299961;stroke-opacity:1;stroke-dasharray:none;stroke-dashoffset:0"><path
           id="path12814"
           d="m 1003.5314,317.19469 0,0.02 0,0.03 0,0.01 0,0.02 0,0.01 -0.01,0.02 0,0.02 -0.01,0.01 -0.01,0.02 -0.01,0.02 -0.01,0.03 -0.02,0.02 -0.01,0.02 -0.02,0.03 -0.02,0.03 -0.03,0.03 -0.02,0.04 -0.03,0.03 -0.02,0.02 -0.01,0.02 -0.02,0.02 -0.02,0.02 -0.02,0.02 -0.02,0.03 -0.02,0.02 -0.02,0.02 -0.02,0.03 -0.03,0.03 -0.02,0.02 -0.03,0.03 -0.02,0.03 -0.03,0.03 -0.03,0.03 -0.03,0.03 -0.03,0.03 -0.03,0.03 -0.04,0.04 -0.03,0.03 -0.04,0.04 -0.03,0.04 -0.04,0.03 -0.04,0.04 c -6.21997,6.28 -7.80997,15.69 -7.80997,23.31 0,8.68 1.89,17.35 8.01997,23.57 0.63,0.61 0.63,0.7 0.63,0.86 0,0.34 -0.18,0.48 -0.48,0.48 -0.5,0 -4.97997,-3.37 -7.91997,-9.7 -2.55,-5.49 -3.14,-11.02 -3.14,-15.21 0,-3.89 0.54,-9.9 3.28,-15.54 2.98,-6.13 7.27997,-9.36 7.77997,-9.36 0.3,0 0.48,0.14 0.48,0.5 z"
           inkscape:connector-curvature="0"
           style="fill:#000000;stroke-width:0" /><path
           id="path12816"
           d="m 1024.6514,363.13469 -0.03,0.07 -0.03,0.08 -0.03,0.07 -0.03,0.07 -0.03,0.06 -0.02,0.06 -0.03,0.06 -0.02,0.05 -0.03,0.05 -0.02,0.05 -0.03,0.05 -0.02,0.04 -0.02,0.04 -0.03,0.04 -0.02,0.04 -0.03,0.03 -0.03,0.03 -0.02,0.03 -0.03,0.02 -0.03,0.03 -0.03,0.02 -0.03,0.02 -0.03,0.01 -0.04,0.02 -0.03,0.01 -0.04,0.01 -0.04,0.01 -0.04,0.01 -0.05,0 -0.04,0.01 -0.05,0 -0.05,0 c -0.55,0 -0.8,-0.45 -1.05,-1.05 l -11.36,-29.79 1.71,-0.39 0.84,2.14 0.05,-0.07 v -0.48 c -0.05,-0.11 -0.05,-0.16 -0.05,-0.45 0,-0.21 0,-2.1 0.7,-3.24 h -2.69 c 0.65,0.69 0.85,1.3 1.15,2.1 l -1.71,0.39 c -0.59,-1.6 -1.64,-2.35 -2.98,-2.49 -0.25,0 -1.05,-0.11 -1.05,-0.86 0,-0.89 0.8,-0.89 1.7,-0.89 h 7.97 c 0.89,0 1.64,0 1.64,0.89 0,0.75 -0.7,0.8 -1.04,0.86 -0.71,0.05 -1.94,0.25 -1.94,3.24 0,1.64 0.34,3.23 0.69,4.82 l 0.5,1.75 c 1.15,4.38 2.75,8.61 4.39,12.8 1.54,-3.33 4.53,-10.51 5.37,-12.8 h -9.76 l -0.5,-1.75 h 10.97 c 1.73,-4.87 1.79,-5.67 1.84,-6.71 l 1.09,-1.35 c 0.5,0.3 0.64,0.99 0.64,1.6 0,3.03 -4.32,13.14 -6.47,18.12 l -2.43,5.58 1.78,4.84 12.11,-27.56 c 0.2,-0.48 0.75,-1.69 1.45,-2.58 h -7.08 l -1.09,1.35 c -1.2,-1.21 -2.59,-1.3 -3.14,-1.35 -0.5,-0.06 -0.85,-0.4 -0.85,-0.86 0,-0.89 0.75,-0.89 1.65,-0.89 h 13.05 c 0.8,0 1.7,0 1.7,0.89 0,0.71 -0.7,0.8 -1.2,0.86 -1,0.19 -1.9,1.05 -2.9,3.28 z"
           inkscape:connector-curvature="0"
           style="fill:#000000;stroke-width:0" /><path
           id="path12818"
           d="m 1086.2514,340.59469 0.1,0.01 0.2,0 0.2,0 0,0.01 0.1,0 0.1,0.01 0.1,0.01 0,0.01 0.1,0.01 0.1,0.01 0,0.02 0.1,0.02 0.1,0.02 0,0.02 0.1,0.03 0,0.03 0.1,0.04 0,0.04 0.1,0.04 0,0.05 0.1,0.05 0,0.02 0,0.03 0,0.03 0,0.03 0.1,0.03 0,0.04 0,0.03 0,0.03 0,0.04 0,0.04 0,0.04 0,0.04 0,0.04 0,0.04 0,0.05 0,0.04 c 0,1 -0.9,1 -1.7,1 h -27 c -0.8,0 -1.7,0 -1.7,-1 0,-1 0.9,-1 1.7,-1 z"
           inkscape:connector-curvature="0"
           style="fill:#000000;stroke-width:0" /><path
           id="path12820"
           d="m 1126.4514,339.61469 -9.5,22.66 c -0.5,1 -0.5,1 -1.8,1 l 0.2,-1.74 9.6,-22.83 c 0.4,-0.84 0.4,-0.89 1,-1.09 l -2.2,-5.28 h -0.1 l -11.3,27.11 c -0.3,0.64 -0.7,1.48 -1.4,2.09 h 4.4 l -0.2,1.74 h -9.3 c -0.9,0 -1.7,0 -1.7,-0.89 0,-0.85 0.9,-0.85 1.2,-0.85 0.6,0 1.9,-0.11 3,-0.5 v -26.61 c 0,-1.04 0,-3.23 -3.3,-3.53 -1,-0.11 -1,-0.8 -1,-0.86 0,-0.89 0.8,-0.89 1.7,-0.89 h 7.7 c 0.9,0 1.7,0 1.7,0.89 0,0.46 -0.4,0.8 -0.8,0.86 -3.9,0.3 -3.9,2.39 -3.9,3.53 l -1,-2.98 0.4,-0.55 h -0.8 c 0.1,0.14 0.2,0.3 0.3,0.39 0,0.05 0,0.1 0.1,0.16 l 1,2.98 v 24.82 l 0.1,0.04 12.1,-29.09 c 0.4,-0.89 0.8,-1.05 1.1,-1.05 0.6,0 0.7,0.41 1,1 l 12.2,29.14 0,-0.04 v -24.82 l 1.8,-0.09 v 27.2 h 5.3 c -1.1,-1.25 -1.1,-2.54 -1.1,-3.44 v -23.76 c 0,-0.91 0,-2.2 1.1,-3.44 h -6.4 c 1.1,1.24 1.1,2.53 1.1,3.44 l -1.8,0.09 c 0,-1.04 0,-3.23 -3.4,-3.53 -0.9,-0.11 -0.9,-0.8 -0.9,-0.86 0,-0.89 0.8,-0.89 1.7,-0.89 h 13.3 c 0.9,0 1.6,0 1.6,0.89 0,0.46 -0.4,0.8 -0.8,0.86 -3.8,0.3 -3.8,2.39 -3.8,3.53 v 23.57 c 0,1.04 0,3.23 3.4,3.54 0.5,0.05 0.9,0.3 0.9,0.85 0,0.89 -0.7,0.89 -1.6,0.89 h -9.6 c -1.3,0 -1.4,0 -1.9,-1.05 z"
           inkscape:connector-curvature="0"
           style="fill:#000000;stroke-width:0" /><path
           id="path12822"
           d="m 1164.6514,341.59469 0,0.38 0,0.38 0,0.39 0,0.41 -0.1,0.84 0,0.88 -0.1,0.92 -0.1,0.95 -0.2,0.98 -0.1,1 -0.2,1.02 -0.3,1.04 -0.2,1.05 -0.3,1.06 -0.4,1.06 -0.4,1.07 -0.2,0.53 -0.2,0.53 -0.2,0.53 -0.3,0.53 c -3,6.13 -7.3,9.36 -7.8,9.36 -0.3,0 -0.5,-0.19 -0.5,-0.48 0,-0.16 0,-0.25 1,-1.16 4.9,-4.92 7.7,-12.84 7.7,-23.27 0,-8.51 -1.8,-17.28 -8,-23.56 -0.7,-0.59 -0.7,-0.7 -0.7,-0.84 0,-0.3 0.2,-0.5 0.5,-0.5 0.5,0 5,3.39 8,9.72 2.5,5.47 3.1,11 3.1,15.18 z"
           inkscape:connector-curvature="0"
           style="fill:#000000;stroke-width:0" /><path
           id="path12824"
           d="m 1212.4514,371.38469 -0.1,-0.06 -0.1,-0.07 -0.1,-0.07 0,-0.07 -0.1,-0.08 -0.1,-0.08 -0.1,-0.09 -0.1,-0.08 -0.1,-0.09 -0.1,-0.1 -0.2,-0.19 -0.2,-0.19 -0.2,-0.21 -0.1,-0.1 -0.1,-0.1 -0.1,-0.1 0,-0.11 -0.1,-0.1 -0.1,-0.1 -0.1,-0.1 0,-0.1 -0.1,-0.1 0,-0.1 -0.1,-0.1 0,-0.09 -0.1,-0.09 0,-0.1 0,-0.08 0,-0.09 c 0,-0.5 0.5,-1 1,-1 0.5,0 0.7,0.36 1,0.66 0.5,0.75 1.7,2.14 3.9,3.23 0.3,0.21 0.8,0.46 0.8,1.05 0,0.5 -0.3,0.75 -0.7,1 -1.1,0.75 -1.6,1.64 -2,2.83 -0.1,0.45 -0.3,1.11 -1,1.11 -0.7,0 -1,-0.66 -1,-1.05 0,-0.25 0.4,-1.84 1.2,-2.89 h -16.8 c -0.8,0 -1.7,0 -1.7,-1 0,-1 0.9,-1 1.7,-1 z"
           inkscape:connector-curvature="0"
           style="fill:#000000;stroke-width:0" /><path
           id="path12826"
           d="m 1213.2514,340.75469 0,0.02 0,0.03 0,0.05 0.1,0.05 0,0.05 0,0.05 0,0.05 0,0.06 0,0.05 0.1,0.02 0,0.02 0,0.03 0,0.02 0,0.02 0,0.02 0,0.02 0,0.02 0,0.02 0,0.02 0,0.02 0,0.01 0,0.02 0,0.01 0,0.01 0,0.01 c 0,0.05 0,0.55 -0.6,0.55 -0.4,0 -0.5,-0.3 -0.6,-0.61 -3.2,-7.37 -5.1,-10.7 -13.6,-10.7 h -7.3 c -0.7,0 -0.8,0 -1.1,0.05 -0.5,0.04 -0.6,0.09 -0.6,0.5 0,0.14 0,0.25 0.2,1.14 l 3.4,13.61 h 4.9 c 4.3,0 4.3,-1.05 4.3,-2.3 0,-0.35 0,-0.95 -0.4,-2.44 -0.1,-0.25 -0.1,-0.41 -0.1,-0.55 0,-0.25 0.2,-0.54 0.6,-0.54 0.4,0 0.6,0.25 0.8,0.98 l 2.8,11.67 c 0,0.3 -0.2,0.55 -0.6,0.55 -0.4,0 -0.5,-0.3 -0.7,-0.91 -1,-3.78 -1.9,-4.92 -6.5,-4.92 h -4.7 l 3,12 c 0.4,1.75 0.5,1.94 2.7,1.94 h 7 c 6.1,0 7.6,-1.44 7.6,-5.53 0,-1.19 0,-1.28 -0.2,-2.64 0,-0.3 -0.1,-0.64 -0.1,-0.89 0,-0.25 0.2,-0.6 0.6,-0.6 0.6,0 0.6,0.3 0.7,1.25 l 1,8.61 c 0.2,1.35 -0.1,1.35 -1.3,1.35 h -25.2 c -1,0 -1.5,0 -1.5,-1 0,-0.55 0.5,-0.55 1.4,-0.55 1.9,0 3.3,0 3.3,-0.89 0,-0.2 0,-0.3 -0.3,-1.2 l -6.5,-26.35 c -0.5,-1.95 -0.7,-2.34 -4.6,-2.34 -0.8,0 -1.4,0 -1.4,-0.95 0,-0.6 0.5,-0.6 1.4,-0.6 h 25.9 c 1.1,0 1.2,0.05 1.5,0.85 z"
           inkscape:connector-curvature="0"
           style="fill:#000000;stroke-width:0" /><path
           id="path12828"
           d="m 1265.7514,345.44469 0.1,0 0.2,0 0.1,0 0.1,0.01 0,0 0.1,0.01 0.1,0.01 0.1,0.01 0,0.01 0.1,0.01 0.1,0.02 0,0.02 0.1,0.02 0.1,0.03 0,0.02 0.1,0.03 0,0.04 0.1,0.04 0,0.04 0.1,0.04 0,0.05 0,0.03 0,0.03 0.1,0.03 0,0.03 0,0.03 0,0.03 0,0.03 0,0.04 0,0.03 0,0.04 0,0.04 0,0.04 0.1,0.04 0,0.04 0,0.05 0,0.04 c 0,1 -1,1 -1.7,1 h -29.8 c -0.7,0 -1.7,0 -1.7,-1 0,-0.98 1,-0.98 1.7,-0.98 z"
           inkscape:connector-curvature="0"
           style="fill:#000000;stroke-width:0" /><path
           id="path12830"
           d="m 1265.7514,335.77469 0.1,0 0.1,0 0.1,0 0.1,0 0.1,0.01 0.1,0 0,0.01 0.1,0.01 0.1,0.01 0,0.01 0.1,0.01 0.1,0.02 0,0.02 0.1,0.02 0.1,0.03 0,0.02 0.1,0.04 0,0.03 0.1,0.04 0,0.04 0.1,0.05 0,0.02 0,0.03 0,0.02 0,0.03 0.1,0.03 0,0.03 0,0.03 0,0.04 0,0.03 0,0.04 0,0.03 0,0.04 0,0.04 0,0.04 0.1,0.04 0,0.05 0,0.04 0,0.05 c 0,1 -1,1 -1.7,1 h -29.8 c -0.7,0 -1.7,0 -1.7,-1 0,-1 1,-1 1.7,-1 z"
           inkscape:connector-curvature="0"
           style="fill:#000000;stroke-width:0" /><path
           id="path12836"
           d="m 1308.0087,339.26428 0.2,0.01 0.1,0 0.2,0 0.1,0.01 0.1,0 0,0.01 0.1,0.01 0.1,0.01 0.1,0.01 0,0.01 0.1,0.02 0.1,0.02 0,0.02 0.1,0.02 0,0.03 0.1,0.03 0,0.04 0.1,0.04 0,0.04 0.1,0.05 0,0.05 0,0.02 0.1,0.03 0,0.03 0,0.03 0,0.03 0,0.04 0,0.03 0,0.03 0,0.04 0.1,0.04 0,0.04 0,0.04 0,0.04 0,0.04 0,0.05 0,0.04 c 0,1 -0.9,1 -1.8,1 h -26.9 c -0.9,0 -1.8,0 -1.8,-1 0,-1 0.9,-1 1.8,-1 z"
           inkscape:connector-curvature="0"
           style="fill:#000000;stroke-width:0" /><path
           id="path12838"
           d="m 1356.8087,370.53428 -0.1,-0.06 0,-0.07 -0.1,-0.07 -0.1,-0.07 -0.1,-0.08 -0.1,-0.08 -0.1,-0.09 -0.1,-0.08 -0.1,-0.09 -0.1,-0.1 -0.2,-0.19 -0.1,-0.19 -0.2,-0.2 -0.1,-0.11 -0.1,-0.1 -0.1,-0.1 -0.1,-0.11 -0.1,-0.1 0,-0.1 -0.1,-0.1 -0.1,-0.1 0,-0.1 -0.1,-0.1 0,-0.1 -0.1,-0.09 0,-0.09 0,-0.09 0,-0.09 -0.1,-0.09 c 0,-0.5 0.5,-1 1,-1 0.5,0 0.8,0.36 1,0.66 0.6,0.75 1.7,2.14 3.9,3.23 0.4,0.21 0.9,0.46 0.9,1.05 0,0.5 -0.4,0.75 -0.7,1 -1.1,0.75 -1.7,1.64 -2.1,2.83 -0.1,0.45 -0.3,1.11 -1,1.11 -0.7,0 -1,-0.66 -1,-1.05 0,-0.25 0.4,-1.84 1.2,-2.89 h -16.8 c -0.8,0 -1.7,0 -1.7,-1 0,-1 0.9,-1 1.7,-1 z"
           inkscape:connector-curvature="0"
           style="fill:#000000;stroke-width:0" /><path
           id="path12840"
           d="m 1350.7087,361.84428 0,0.01 0,0 0,0.01 0,0.01 0,0.01 0,0.01 0,0.02 0,0.02 0,0.02 0,0.02 0,0.02 0,0.02 0,0.03 0,0.02 -0.1,0.02 0,0.03 0,0.02 0,0.03 0,0.02 0,0.03 -0.1,0.02 0,0.01 0,0.01 0,0.01 0,0.01 0,0.01 0,0.01 -0.1,0.01 0,0.01 0,0.01 0,0.01 0,0.01 0,0 -0.1,0.01 0,0.01 0,0 0,0.01 -0.1,0 0,0.01 0,0 0,0 -0.1,0.01 0,0 0,0 0,0 c -0.8,0 -5.5,-0.45 -6.4,-0.55 -0.4,-0.04 -0.7,-0.29 -0.7,-0.95 0,-0.59 0.5,-0.59 1.2,-0.59 2.4,0 2.5,-0.35 2.5,-0.85 l -0.1,-1 -3,-11.81 c -0.9,1.84 -2.4,3.19 -4.6,3.19 l 0.1,-1.1 c 3.2,0 3.9,-4.07 3.9,-4.37 0,-0.31 -0.1,-0.61 -0.2,-0.86 l -2.5,-9.77 c -0.2,-0.89 -0.2,-0.98 -1,-1.84 -2.1,-2.73 -4.2,-3.53 -5.6,-3.53 -2.5,0 -3.2,2.73 -3.2,4.69 0,2.48 1.6,8.61 2.8,10.9 1.5,2.94 3.8,4.78 5.8,4.78 l -0.1,1.1 c -5.8,0 -12,-7.32 -12,-14.6 0,-4.68 2.7,-7.97 6.6,-7.97 1,0 3.5,0.21 6.5,3.74 0.4,-2.09 2.1,-3.74 4.5,-3.74 1.8,0 2.9,1.15 3.7,2.74 0.9,1.8 1.5,4.84 1.5,4.94 0,0.5 -0.4,0.5 -0.6,0.5 -0.5,0 -0.5,-0.21 -0.7,-0.91 -0.8,-3.23 -1.7,-6.17 -3.8,-6.17 -1.3,0 -1.5,1.3 -1.5,2.3 0,1.18 0.1,1.54 0.3,2.39 z"
           inkscape:connector-curvature="0"
           style="fill:#000000;stroke-width:0" /><path
           id="path12842"
           d="m 1394.8087,339.26428 0.1,0.01 0.2,0 0.2,0 0,0.01 0.1,0 0.1,0.01 0.1,0.01 0,0.01 0.1,0.01 0.1,0.01 0.1,0.02 0,0.02 0.1,0.02 0,0.02 0.1,0.03 0.1,0.03 0,0.04 0.1,0.04 0,0.04 0,0.05 0.1,0.05 0,0.02 0,0.03 0,0.03 0.1,0.03 0,0.03 0,0.04 0,0.03 0,0.03 0,0.04 0,0.04 0,0.04 0,0.04 0,0.04 0,0.04 0,0.05 0,0.04 c 0,1 -0.9,1 -1.7,1 h -27 c -0.8,0 -1.7,0 -1.7,-1 0,-1 0.9,-1 1.7,-1 z"
           inkscape:connector-curvature="0"
           style="fill:#000000;stroke-width:0" /><path
           id="path12844"
           d="m 1438.5087,357.45428 -0.1,-0.06 0,-0.07 -0.1,-0.07 -0.1,-0.07 -0.1,-0.08 -0.1,-0.08 -0.1,-0.09 -0.1,-0.08 0,-0.09 -0.1,-0.09 -0.2,-0.19 -0.2,-0.2 -0.2,-0.2 -0.1,-0.11 -0.1,-0.1 -0.1,-0.1 -0.1,-0.1 -0.1,-0.11 0,-0.1 -0.1,-0.1 -0.1,-0.1 0,-0.1 -0.1,-0.1 0,-0.09 -0.1,-0.1 0,-0.09 0,-0.09 0,-0.09 0,-0.09 c 0,-0.5 0.5,-1 1,-1 0.4,0 0.7,0.36 0.9,0.66 0.6,0.75 1.7,2.14 4,3.24 0.3,0.2 0.8,0.45 0.8,1.04 0,0.5 -0.3,0.75 -0.7,1 -1.1,0.75 -1.6,1.64 -2.1,2.83 0,0.45 -0.3,1.11 -0.9,1.11 -0.7,0 -1,-0.66 -1,-1.05 0,-0.25 0.4,-1.84 1.1,-2.89 h -16.7 c -0.9,0 -1.8,0 -1.8,-1 0,-1 0.9,-1 1.8,-1 z"
           inkscape:connector-curvature="0"
           style="fill:#000000;stroke-width:0" /><path
           id="path12846"
           d="m 1434.4087,349.28428 0,0.02 0,0.02 0,0.02 0,0.02 0,0.02 0,0.02 0,0.02 0,0.02 0,0.02 -0.1,0.03 0,0.02 0,0.02 0,0.02 0,0.02 0,0.02 0,0.02 0,0.01 -0.1,0.02 0,0.02 0,0.02 0,0.01 0,0.01 -0.1,0.02 0,0.01 0,0.01 0,0.01 -0.1,0.01 0,0.01 0,0 0,0.01 -0.1,0 0,0 0,0 c -0.6,0 -2.5,-1.98 -3.4,-3.44 -1.1,2.69 -3,3.49 -4.6,3.49 v -1.1 c 3.2,0 3.9,-4.03 3.9,-4.37 0,-0.31 -2.7,-11.22 -2.9,-11.42 -0.7,-1.39 -3.5,-4.58 -6.3,-4.58 h 0 c -3,0 -3.2,3.84 -3.2,4.69 0,2.39 1.4,7.81 2.3,9.9 1.5,3.69 4.1,5.78 6.2,5.78 v 1.1 c -5.9,0 -12,-7.38 -12,-14.6 0,-4.87 2.9,-7.97 6.5,-7.97 2.2,0 4.1,1.19 5.9,2.99 -0.4,-1.74 -2.1,-8.47 -2.2,-8.92 -0.4,-1.39 -0.8,-1.6 -3.6,-1.64 -0.7,0 -1.2,0 -1.2,-1 0,-0.05 0,-0.55 0.7,-0.55 1.6,0 3.3,0.16 5,0.16 1.7,0 3.5,-0.16 5.1,-0.16 0.3,0 0.9,0 0.9,1 0,0.55 -0.5,0.55 -1.3,0.55 -2.4,0 -2.4,0.36 -2.4,0.79 0,0.36 0.1,0.66 0.2,1.1 z"
           inkscape:connector-curvature="0"
           style="fill:#000000;stroke-width:0" /></g>    </g>
  </g>
</svg>
