<?xml version="1.0" encoding="UTF-8" standalone="no"?>
<!-- Created with Inkscape (http://www.inkscape.org/) -->

<svg
   xmlns:dc="http://purl.org/dc/elements/1.1/"
   xmlns:cc="http://creativecommons.org/ns#"
   xmlns:rdf="http://www.w3.org/1999/02/22-rdf-syntax-ns#"
   xmlns:svg="http://www.w3.org/2000/svg"
   xmlns="http://www.w3.org/2000/svg"
   xmlns:sodipodi="http://sodipodi.sourceforge.net/DTD/sodipodi-0.dtd"
   xmlns:inkscape="http://www.inkscape.org/namespaces/inkscape"
   width="766.32996"
   height="384.42059"
   id="svg2"
   version="1.1"
   inkscape:version="0.48.3.1 r9886"
   sodipodi:docname="mediums_3.pdf">
  <defs
     id="defs4">
    <marker
       inkscape:stockid="Arrow1Mend"
       orient="auto"
       refY="0"
       refX="0"
       id="Arrow1Mend"
       style="overflow:visible">
      <path
         id="path3777"
         d="M 0,0 5,-5 -12.5,0 5,5 0,0 z"
         style="fill-rule:evenodd;stroke:#000000;stroke-width:1pt"
         transform="matrix(-0.4,0,0,-0.4,-4,0)"
         inkscape:connector-curvature="0" />
    </marker>
    <marker
       inkscape:stockid="Arrow1Mstart"
       orient="auto"
       refY="0"
       refX="0"
       id="Arrow1Mstart"
       style="overflow:visible">
      <path
         id="path3774"
         d="M 0,0 5,-5 -12.5,0 5,5 0,0 z"
         style="fill-rule:evenodd;stroke:#000000;stroke-width:1pt"
         transform="matrix(0.4,0,0,0.4,4,0)"
         inkscape:connector-curvature="0" />
    </marker>
    <marker
       inkscape:stockid="Arrow1Mstart"
       orient="auto"
       refY="0"
       refX="0"
       id="Arrow1Mstart-1"
       style="overflow:visible">
      <path
         inkscape:connector-curvature="0"
         id="path3774-7"
         d="M 0,0 5,-5 -12.5,0 5,5 0,0 z"
         style="fill-rule:evenodd;stroke:#000000;stroke-width:1pt"
         transform="matrix(0.4,0,0,0.4,4,0)" />
    </marker>
    <marker
       inkscape:stockid="Arrow1Mend"
       orient="auto"
       refY="0"
       refX="0"
       id="Arrow1Mend-7"
       style="overflow:visible">
      <path
         inkscape:connector-curvature="0"
         id="path3777-0"
         d="M 0,0 5,-5 -12.5,0 5,5 0,0 z"
         style="fill-rule:evenodd;stroke:#000000;stroke-width:1pt"
         transform="matrix(-0.4,0,0,-0.4,-4,0)" />
    </marker>
    <marker
       inkscape:stockid="Arrow1Mstart"
       orient="auto"
       refY="0"
       refX="0"
       id="marker4408"
       style="overflow:visible">
      <path
         inkscape:connector-curvature="0"
         id="path4410"
         d="M 0,0 5,-5 -12.5,0 5,5 0,0 z"
         style="fill-rule:evenodd;stroke:#000000;stroke-width:1pt"
         transform="matrix(0.4,0,0,0.4,4,0)" />
    </marker>
    <marker
       inkscape:stockid="Arrow1Mend"
       orient="auto"
       refY="0"
       refX="0"
       id="marker4412"
       style="overflow:visible">
      <path
         inkscape:connector-curvature="0"
         id="path4414"
         d="M 0,0 5,-5 -12.5,0 5,5 0,0 z"
         style="fill-rule:evenodd;stroke:#000000;stroke-width:1pt"
         transform="matrix(-0.4,0,0,-0.4,-4,0)" />
    </marker>
    <clipPath
       id="clipPath9375"
       clipPathUnits="userSpaceOnUse">
      <path
         id="path9377"
         d="m 392,75 140,0 0,124 -140,0 0,-124 z" />
    </clipPath>
    <clipPath
       id="clipPath9371"
       clipPathUnits="userSpaceOnUse">
      <path
         id="path9373"
         d="m 392,74.536469 140,0 0,124.000001 -140,0 0,-124.000001 z" />
    </clipPath>
    <mask
       id="mask9359"
       height="1"
       width="1"
       y="0"
       x="0"
       maskUnits="userSpaceOnUse">
      <g
         id="g9361">
        <g
           id="g9363"
           clip-path="url(#clipPath9355)">
          <path
             id="path9365"
             style="fill:#000000;fill-opacity:0.633745;fill-rule:nonzero;stroke:none"
             d="m 392,74.536469 140,0 0,124.000001 -140,0 0,-124.000001 z" />
        </g>
      </g>
    </mask>
    <clipPath
       id="clipPath9355"
       clipPathUnits="userSpaceOnUse">
      <path
         id="path9357"
         d="m 392,74.536469 140,0 0,124.000001 -140,0 0,-124.000001 z" />
    </clipPath>
    <clipPath
       id="clipPath9329"
       clipPathUnits="userSpaceOnUse">
      <path
         id="path9331"
         d="m 307,0 307,0 0,269 -307,0 0,-269 z" />
    </clipPath>
    <clipPath
       id="clipPath9325"
       clipPathUnits="userSpaceOnUse">
      <path
         id="path9327"
         d="m 307,-0.463531 307,0 0,269.000001 -307,0 0,-269.000001 z" />
    </clipPath>
    <mask
       id="mask9313"
       height="1"
       width="1"
       y="0"
       x="0"
       maskUnits="userSpaceOnUse">
      <g
         id="g9315">
        <g
           id="g9317"
           clip-path="url(#clipPath9309)">
          <path
             id="path9319"
             style="fill:#000000;fill-opacity:0.320988;fill-rule:nonzero;stroke:none"
             d="m 307,-0.463531 307,0 0,269.000001 -307,0 0,-269.000001 z" />
        </g>
      </g>
    </mask>
    <clipPath
       id="clipPath9309"
       clipPathUnits="userSpaceOnUse">
      <path
         id="path9311"
         d="m 307,-0.463531 307,0 0,269.000001 -307,0 0,-269.000001 z" />
    </clipPath>
    <clipPath
       id="clipPath9261"
       clipPathUnits="userSpaceOnUse">
      <path
         id="path9263"
         d="M 0,1 305,1 305,269 0,269 0,1 z" />
    </clipPath>
    <clipPath
       id="clipPath9257"
       clipPathUnits="userSpaceOnUse">
      <path
         id="path9259"
         d="m 0,0.536469 305,0 0,268.000001 -305,0 L 0,0.536469 z" />
    </clipPath>
    <mask
       id="mask9245"
       height="1"
       width="1"
       y="0"
       x="0"
       maskUnits="userSpaceOnUse">
      <g
         id="g9247">
        <g
           id="g9249"
           clip-path="url(#clipPath9241)">
          <path
             id="path9251"
             style="fill:#000000;fill-opacity:0.390947;fill-rule:nonzero;stroke:none"
             d="m 0,0.536469 305,0 0,268.000001 -305,0 L 0,0.536469 z" />
        </g>
      </g>
    </mask>
    <clipPath
       id="clipPath9241"
       clipPathUnits="userSpaceOnUse">
      <path
         id="path9243"
         d="m 0,0.536469 305,0 0,268.000001 -305,0 L 0,0.536469 z" />
    </clipPath>
    <clipPath
       id="clipPath9690"
       clipPathUnits="userSpaceOnUse">
      <path
         id="path9692"
         d="m 392,75 140,0 0,124 -140,0 0,-124 z" />
    </clipPath>
    <clipPath
       id="clipPath9686"
       clipPathUnits="userSpaceOnUse">
      <path
         id="path9688"
         d="m 392,74.536469 140,0 0,124.000001 -140,0 0,-124.000001 z" />
    </clipPath>
    <mask
       id="mask9674"
       height="1"
       width="1"
       y="0"
       x="0"
       maskUnits="userSpaceOnUse">
      <g
         id="g9676">
        <g
           id="g9678"
           clip-path="url(#clipPath9670)">
          <path
             id="path9680"
             style="fill:#000000;fill-opacity:0.633745;fill-rule:nonzero;stroke:none"
             d="m 392,74.536469 140,0 0,124.000001 -140,0 0,-124.000001 z" />
        </g>
      </g>
    </mask>
    <clipPath
       id="clipPath9670"
       clipPathUnits="userSpaceOnUse">
      <path
         id="path9672"
         d="m 392,74.536469 140,0 0,124.000001 -140,0 0,-124.000001 z" />
    </clipPath>
    <clipPath
       id="clipPath9644"
       clipPathUnits="userSpaceOnUse">
      <path
         id="path9646"
         d="m 307,0 307,0 0,269 -307,0 0,-269 z" />
    </clipPath>
    <clipPath
       id="clipPath9640"
       clipPathUnits="userSpaceOnUse">
      <path
         id="path9642"
         d="m 307,-0.463531 307,0 0,269.000001 -307,0 0,-269.000001 z" />
    </clipPath>
    <mask
       id="mask9628"
       height="1"
       width="1"
       y="0"
       x="0"
       maskUnits="userSpaceOnUse">
      <g
         id="g9630">
        <g
           id="g9632"
           clip-path="url(#clipPath9624)">
          <path
             id="path9634"
             style="fill:#000000;fill-opacity:0.320988;fill-rule:nonzero;stroke:none"
             d="m 307,-0.463531 307,0 0,269.000001 -307,0 0,-269.000001 z" />
        </g>
      </g>
    </mask>
    <clipPath
       id="clipPath9624"
       clipPathUnits="userSpaceOnUse">
      <path
         id="path9626"
         d="m 307,-0.463531 307,0 0,269.000001 -307,0 0,-269.000001 z" />
    </clipPath>
    <clipPath
       id="clipPath9576"
       clipPathUnits="userSpaceOnUse">
      <path
         id="path9578"
         d="M 0,1 305,1 305,269 0,269 0,1 z" />
    </clipPath>
    <clipPath
       id="clipPath9572"
       clipPathUnits="userSpaceOnUse">
      <path
         id="path9574"
         d="m 0,0.536469 305,0 0,268.000001 -305,0 L 0,0.536469 z" />
    </clipPath>
    <mask
       id="mask9560"
       height="1"
       width="1"
       y="0"
       x="0"
       maskUnits="userSpaceOnUse">
      <g
         id="g9562">
        <g
           id="g9564"
           clip-path="url(#clipPath9556)">
          <path
             id="path9566"
             style="fill:#000000;fill-opacity:0.390947;fill-rule:nonzero;stroke:none"
             d="m 0,0.536469 305,0 0,268.000001 -305,0 L 0,0.536469 z" />
        </g>
      </g>
    </mask>
    <clipPath
       id="clipPath9556"
       clipPathUnits="userSpaceOnUse">
      <path
         id="path9558"
         d="m 0,0.536469 305,0 0,268.000001 -305,0 L 0,0.536469 z" />
    </clipPath>
  </defs>
  <sodipodi:namedview
     id="base"
     pagecolor="#ffffff"
     bordercolor="#666666"
     borderopacity="1.0"
     inkscape:pageopacity="0.0"
     inkscape:pageshadow="2"
     inkscape:zoom="1"
     inkscape:cx="462.19015"
     inkscape:cy="226.36481"
     inkscape:document-units="px"
     inkscape:current-layer="layer1"
     showgrid="false"
     fit-margin-top="0"
     fit-margin-left="0"
     fit-margin-right="0"
     fit-margin-bottom="0"
     inkscape:window-width="1375"
     inkscape:window-height="876"
     inkscape:window-x="1345"
     inkscape:window-y="24"
     inkscape:window-maximized="1" />
  <metadata
     id="metadata7">
    <rdf:RDF>
      <cc:Work
         rdf:about="">
        <dc:format>image/svg+xml</dc:format>
        <dc:type
           rdf:resource="http://purl.org/dc/dcmitype/StillImage" />
        <dc:title></dc:title>
      </cc:Work>
    </rdf:RDF>
  </metadata>
  <g
     inkscape:label="Layer 1"
     inkscape:groupmode="layer"
     id="layer1"
     transform="translate(-14.142136,-279.83594)">
    <rect
       style="opacity:0.39094651;fill:#00ff00;fill-opacity:1;stroke:none"
       id="rect3762"
       width="380.82751"
       height="334.3605"
       x="14.142136"
       y="329.09296" />
    <path
       style="fill:none;stroke:#000000;stroke-width:2.9000001;stroke-linecap:butt;stroke-linejoin:miter;stroke-miterlimit:4;stroke-opacity:1;stroke-dasharray:none;marker-start:url(#Arrow1Mstart);marker-end:url(#Arrow1Mend)"
       d="m 205.56604,348.74119 -1.01015,278.79688 0,20.20305"
       id="path3758"
       inkscape:connector-curvature="0"
       sodipodi:nodetypes="ccc" />
    <path
       style="fill:none;stroke:#000000;stroke-width:3.20000005;stroke-linecap:butt;stroke-linejoin:miter;stroke-miterlimit:4;stroke-opacity:1;stroke-dasharray:none;marker-start:url(#Arrow1Mstart);marker-end:url(#Arrow1Mend)"
       d="m 23.858513,497.28336 367.448587,0"
       id="path3760"
       inkscape:connector-curvature="0"
       sodipodi:nodetypes="cc" />
    <rect
       style="opacity:0.32098772;fill:#00ff00;fill-opacity:1;stroke:#00ff00"
       id="rect3762-6"
       width="380.82751"
       height="334.3605"
       x="399.14459"
       y="329.39603" />
    <rect
       style="opacity:0.63374484;fill:#0000ff;fill-opacity:1;fill-rule:nonzero;stroke:none"
       id="rect4446"
       width="99.388351"
       height="94.095451"
       x="681.96466"
       y="328.58792" />
    <path
       style="fill:none;stroke:#000000;stroke-width:2.9000001;stroke-linecap:butt;stroke-linejoin:miter;stroke-miterlimit:4;stroke-opacity:1;stroke-dasharray:none;marker-start:url(#Arrow1Mstart);marker-end:url(#Arrow1Mend)"
       d="m 590.56848,349.04423 -1.01015,278.79688 0,20.20305"
       id="path3758-1"
       inkscape:connector-curvature="0"
       sodipodi:nodetypes="ccc" />
    <path
       style="fill:none;stroke:#000000;stroke-width:3.20000005;stroke-linecap:butt;stroke-linejoin:miter;stroke-miterlimit:4;stroke-opacity:1;stroke-dasharray:none;marker-start:url(#Arrow1Mstart);marker-end:url(#Arrow1Mend)"
       d="m 408.86096,497.5864 367.44858,0"
       id="path3760-5"
       inkscape:connector-curvature="0"
       sodipodi:nodetypes="cc" />
    <text
       xml:space="preserve"
       style="font-size:24px;font-style:normal;font-variant:normal;font-weight:normal;font-stretch:normal;text-align:start;line-height:125%;letter-spacing:0px;word-spacing:0px;writing-mode:lr-tb;text-anchor:start;fill:#000000;fill-opacity:1;stroke:none;font-family:Sans;-inkscape-font-specification:Sans"
       x="131.52187"
       y="305.71786"
       id="text4448"
       sodipodi:linespacing="125%"><tspan
         sodipodi:role="line"
         id="tspan4450"
         x="131.52187"
         y="305.71786">Homogéneo</tspan></text>
    <text
       xml:space="preserve"
       style="font-size:24px;font-style:normal;font-variant:normal;font-weight:normal;font-stretch:normal;text-align:start;line-height:125%;letter-spacing:0px;word-spacing:0px;writing-mode:lr-tb;text-anchor:start;fill:#000000;fill-opacity:1;stroke:none;font-family:Sans;-inkscape-font-specification:Sans"
       x="512.23053"
       y="306.07031"
       id="text4448-6"
       sodipodi:linespacing="125%"><tspan
         sodipodi:role="line"
         id="tspan4450-1"
         x="512.23053"
         y="306.07031">Inhomogéneo</tspan></text>
  </g>
</svg>
